<?xml version="1.0" encoding="UTF-8"?>
<!--Generator: Apple Native CoreSVG 175.5-->
<!DOCTYPE svg
PUBLIC "-//W3C//DTD SVG 1.1//EN"
       "http://www.w3.org/Graphics/SVG/1.1/DTD/svg11.dtd">
<svg version="1.1" xmlns="http://www.w3.org/2000/svg" xmlns:xlink="http://www.w3.org/1999/xlink" width="24.6182" height="16.1807">
 <g>
  <rect height="16.1807" opacity="0" width="24.6182" x="0" y="0"/>
  <path d="M3.39258 13.5703L13.2979 13.5703C13.9043 12.2432 15.3281 11.1357 17.0332 10.6348C16.1543 9.94043 15.583 8.82422 15.583 7.55859C15.5742 5.84473 16.6465 4.36816 18.1143 3.88477L18.1143 3.41016C18.1143 2.90918 17.833 2.61914 17.3408 2.61914L3.39258 2.61914C2.90039 2.61914 2.61914 2.90918 2.61914 3.41016L2.61914 12.7793C2.61914 13.2803 2.90039 13.5703 3.39258 13.5703Z" fill="#ffffff" fill-opacity="0.2125"/>
  <path d="M2.75977 16.1807L12.9639 16.1807C12.7793 15.7676 12.7705 15.2666 12.8672 14.7656L2.78613 14.7656C1.90723 14.7656 1.41504 14.2998 1.41504 13.3857L1.41504 2.80371C1.41504 1.88965 1.90723 1.41504 2.78613 1.41504L17.9473 1.41504C18.8174 1.41504 19.3184 1.88965 19.3184 2.80371L19.3184 3.64746C19.8105 3.65625 20.25 3.71777 20.7334 3.92871L20.7334 2.72461C20.7334 0.914062 19.8105 0 17.9736 0L2.75977 0C0.931641 0 0 0.914062 0 2.72461L0 13.4648C0 15.2754 0.931641 16.1807 2.75977 16.1807ZM15.0645 16.1807L23.5459 16.1807C24.2051 16.1807 24.6182 15.873 24.6182 15.3457C24.6182 13.7109 22.5791 11.4609 19.3096 11.4609C16.0225 11.4609 13.9922 13.7109 13.9922 15.3457C13.9922 15.873 14.3965 16.1807 15.0645 16.1807ZM19.3096 10.3359C20.6543 10.3359 21.832 9.12305 21.832 7.54102C21.832 5.98535 20.6543 4.83398 19.3096 4.83398C17.9561 4.83398 16.7783 6.00293 16.7783 7.55859C16.7783 9.12305 17.9561 10.3359 19.3096 10.3359Z" fill="#ffffff" fill-opacity="0.85"/>
 </g>
</svg>
