<svg width="20" height="20" viewBox="0 0 20 20" fill="none" xmlns="http://www.w3.org/2000/svg">
<path d="M9.99996 14.167C10.2361 14.167 10.4341 14.087 10.5941 13.927C10.7536 13.7675 10.8333 13.5698 10.8333 13.3337V9.97949C10.8333 9.74338 10.7536 9.54894 10.5941 9.39616C10.4341 9.24338 10.2361 9.16699 9.99996 9.16699C9.76385 9.16699 9.56607 9.24671 9.40663 9.40616C9.24663 9.56616 9.16663 9.76421 9.16663 10.0003V13.3545C9.16663 13.5906 9.24663 13.785 9.40663 13.9378C9.56607 14.0906 9.76385 14.167 9.99996 14.167ZM9.99996 7.50033C10.2361 7.50033 10.4341 7.42033 10.5941 7.26033C10.7536 7.10088 10.8333 6.9031 10.8333 6.66699C10.8333 6.43088 10.7536 6.23283 10.5941 6.07283C10.4341 5.91338 10.2361 5.83366 9.99996 5.83366C9.76385 5.83366 9.56607 5.91338 9.40663 6.07283C9.24663 6.23283 9.16663 6.43088 9.16663 6.66699C9.16663 6.9031 9.24663 7.10088 9.40663 7.26033C9.56607 7.42033 9.76385 7.50033 9.99996 7.50033ZM9.99996 18.3337C8.84718 18.3337 7.76385 18.1148 6.74996 17.677C5.73607 17.2398 4.85413 16.6462 4.10413 15.8962C3.35413 15.1462 2.76051 14.2642 2.32329 13.2503C1.88551 12.2364 1.66663 11.1531 1.66663 10.0003C1.66663 8.84755 1.88551 7.76421 2.32329 6.75033C2.76051 5.73644 3.35413 4.85449 4.10413 4.10449C4.85413 3.35449 5.73607 2.7606 6.74996 2.32283C7.76385 1.8856 8.84718 1.66699 9.99996 1.66699C11.1527 1.66699 12.2361 1.8856 13.25 2.32283C14.2638 2.7606 15.1458 3.35449 15.8958 4.10449C16.6458 4.85449 17.2394 5.73644 17.6766 6.75033C18.1144 7.76421 18.3333 8.84755 18.3333 10.0003C18.3333 11.1531 18.1144 12.2364 17.6766 13.2503C17.2394 14.2642 16.6458 15.1462 15.8958 15.8962C15.1458 16.6462 14.2638 17.2398 13.25 17.677C12.2361 18.1148 11.1527 18.3337 9.99996 18.3337Z" fill="#FF394A"/>
</svg>
