<svg width="46" height="46" viewBox="0 0 46 46" fill="none" xmlns="http://www.w3.org/2000/svg">
<g clip-path="url(#clip0_16723_78031)">
<path d="M23 46C35.7025 46 46 35.7025 46 23C46 10.2975 35.7025 0 23 0C10.2975 0 0 10.2975 0 23C0 35.7025 10.2975 46 23 46Z" fill="#F9F9F9"/>
<g clip-path="url(#clip1_16723_78031)">
<path d="M19.0932 10.0694C17.419 10.4023 16.209 11.5982 15.7729 13.3568C15.6369 13.9055 15.6275 14.9044 15.7495 15.4672C15.998 16.6302 16.7108 17.7698 17.963 19.0219C19.1494 20.2037 22.8402 23.3692 23.1356 23.4583C23.492 23.5615 23.5577 23.5193 25.3491 21.9951C27.2906 20.3397 27.7455 19.9411 28.5334 19.1673C30.2779 17.4602 30.9861 16.1143 30.9861 14.4964C30.9908 12.0437 29.3353 10.1538 27.0609 10.0084C26.1651 9.95214 25.3116 10.196 24.5753 10.7212C24.2565 10.9463 23.7078 11.5091 23.478 11.8374L23.3279 12.0578L23.0465 11.6826C22.7323 11.2652 22.2727 10.8338 21.8788 10.5806C21.105 10.0881 20.0076 9.88648 19.0932 10.0694ZM20.6361 11.5372C21.438 11.8233 22.1133 12.569 22.5494 13.6523C22.798 14.2619 22.9434 14.4026 23.342 14.4026C23.6421 14.4026 23.8344 14.2666 23.9704 13.943C24.2846 13.2255 24.3549 13.0848 24.5847 12.7284C25.2788 11.6592 26.348 11.2043 27.4782 11.495C27.9894 11.6263 28.2708 11.7905 28.6788 12.1985C29.2931 12.8081 29.5839 13.535 29.5792 14.4495C29.5792 15.0826 29.4854 15.4765 29.1946 16.0674C28.646 17.1836 27.7784 18.0793 24.7489 20.6586L23.3279 21.8685L23.2247 21.7794C23.1685 21.7278 22.6245 21.2682 22.0195 20.7571C20.3218 19.3173 19.8904 18.9422 19.1682 18.2293C18.4225 17.4978 18.0708 17.0898 17.7191 16.5505C16.8656 15.2467 16.8328 13.7742 17.6206 12.5924C18.0239 11.9874 18.657 11.5701 19.3933 11.4294C19.6559 11.3778 20.3594 11.4388 20.6361 11.5372Z" fill="#979797"/>
<path d="M18.9724 23.9081C18.1845 23.9925 17.3123 24.3395 16.6369 24.832L16.3509 25.043L16.0976 24.7944C15.9569 24.6537 15.7365 24.4849 15.6052 24.4193C15.1222 24.1754 14.9581 24.1566 13.2088 24.1566C11.6706 24.1566 11.5815 24.1613 11.3939 24.2551C11.2486 24.3255 11.1688 24.4052 11.0985 24.5506C11 24.7475 11 24.8038 11 29.0808C11 33.3155 11 33.4187 11.0938 33.6063C11.1548 33.7282 11.2532 33.8361 11.3705 33.9017C11.5487 34.0002 11.5909 34.0049 13.1854 34.0049C14.3812 34.0049 14.8924 33.9861 15.0847 33.9392C15.3942 33.8689 15.835 33.6344 16.046 33.4327L16.1961 33.2921L16.9605 33.4796C17.3826 33.5875 17.9735 33.7141 18.2689 33.7657C19.4554 33.9721 19.7462 33.9814 23.9199 33.9814C27.6201 33.9814 27.9343 33.9767 28.2813 33.897C29.3224 33.6578 30.3166 33.0763 30.9591 32.3307C31.3858 31.8383 34.6076 27.5144 34.7624 27.2284C35.4283 25.9903 34.6264 24.4193 33.2101 24.1989C32.6614 24.1144 32.0236 24.2786 31.5922 24.6209C31.4984 24.696 30.945 25.2681 30.3682 25.8871C29.7914 26.5108 29.3083 27.0173 29.2943 27.0173C29.2802 27.0173 29.2145 26.8954 29.1489 26.75C28.9519 26.2904 28.4267 25.8402 27.8592 25.6433C27.7748 25.6104 26.8979 25.5823 25.6551 25.5682C23.2681 25.5354 23.4088 25.5635 22.6866 25.0149C22.1332 24.5975 21.7205 24.363 21.2187 24.1848C20.5012 23.9269 19.704 23.8284 18.9724 23.9081ZM20.4496 25.3994C20.8623 25.512 21.3453 25.7605 21.7158 26.0513C22.1895 26.4264 22.6022 26.6656 23.0289 26.8157L23.4041 26.947L25.4441 26.9704C27.3434 26.9939 27.4935 26.9986 27.6341 27.083C27.8123 27.1908 27.9765 27.4722 27.9765 27.6692C27.9765 27.9084 27.8123 28.1757 27.6013 28.2835C27.4231 28.3726 27.3293 28.3773 24.7875 28.3773C22.6631 28.3773 22.1285 28.3914 22.0066 28.443C21.4204 28.6915 21.4579 29.5638 22.0675 29.742C22.1754 29.7748 23.2446 29.7842 25.2096 29.7748L28.1875 29.7608L28.483 29.6341C28.6471 29.5685 28.8534 29.4606 28.9425 29.3997C29.0363 29.3434 29.8476 28.4993 30.7481 27.5332C31.6485 26.5671 32.4645 25.7277 32.5629 25.6714C32.7787 25.5401 32.9569 25.5354 33.2101 25.662C33.3555 25.7324 33.4352 25.8121 33.5056 25.9575C33.6228 26.1919 33.6275 26.3092 33.5384 26.5202C33.5009 26.6046 32.6849 27.7302 31.7188 29.0151C29.7445 31.646 29.5569 31.8523 28.8488 32.1994C28.0515 32.5933 28.3048 32.5699 24.2951 32.5886C19.7837 32.6074 19.1506 32.5699 17.4154 32.1478L16.7214 31.979V29.2871V26.5953L16.9371 26.3983C17.6124 25.7746 18.2642 25.4369 19.0427 25.3103C19.3007 25.2728 20.1635 25.3244 20.4496 25.3994ZM14.9487 25.6667C15.0612 25.7324 15.1738 25.8449 15.2254 25.9481C15.3098 26.1122 15.3145 26.267 15.3145 29.0808C15.3145 31.9508 15.3098 32.0446 15.2207 32.2228C15.1597 32.3448 15.0612 32.4432 14.9393 32.5042C14.7705 32.5886 14.6673 32.598 13.5793 32.598H12.4069V29.0808V25.5635H13.584C14.7189 25.5635 14.7705 25.5682 14.9487 25.6667Z" fill="#979797"/>
</g>
</g>
<defs>
<clipPath id="clip0_16723_78031">
<rect width="46" height="46" fill="white"/>
</clipPath>
<clipPath id="clip1_16723_78031">
<rect width="24" height="24" fill="white" transform="translate(11 10)"/>
</clipPath>
</defs>
</svg>
