<svg width="375" height="244" viewBox="0 0 375 244" fill="none" xmlns="http://www.w3.org/2000/svg">
<ellipse cx="251.073" cy="206.909" rx="72.5" ry="5" fill="white" fill-opacity="0.1"/>
<g clip-path="url(#clip0_112_13165)">
<rect x="79.2529" y="194.413" width="121.295" height="199" rx="5.6498" transform="rotate(-98.196 79.2529 194.413)" fill="url(#paint0_linear_112_13165)"/>
<rect x="83.8643" y="164.388" width="41.0635" height="6.31746" rx="3.15873" transform="rotate(-8.19598 83.8643 164.388)" fill="white" fill-opacity="0.2"/>
<rect x="85.4854" y="175.643" width="65.7016" height="8.84444" rx="4.42222" transform="rotate(-8.19598 85.4854 175.643)" fill="white" fill-opacity="0.2"/>
<rect x="231.444" y="152.068" width="33.4825" height="11.3714" rx="5.68571" transform="rotate(-8.19598 231.444 152.068)" fill="white" fill-opacity="0.4"/>
<ellipse cx="195.69" cy="44.6951" rx="29.0116" ry="29.4247" transform="rotate(-0.311387 195.69 44.6951)" fill="black" fill-opacity="0.4"/>
<ellipse cx="60.7443" cy="122.491" rx="29.0116" ry="29.4247" transform="rotate(-0.311387 60.7443 122.491)" fill="black" fill-opacity="0.4"/>
<ellipse cx="119.344" cy="66.0573" rx="18.6686" ry="18.9345" transform="rotate(-0.311387 119.344 66.0573)" fill="black" fill-opacity="0.4"/>
<path d="M257.467 74.4092C172.668 137.609 187.468 180.076 205.468 193.409L254.967 147.409L257.467 74.4092Z" fill="black" fill-opacity="0.4"/>
<path d="M62.6671 203.933C210.689 158.487 271.895 76.3827 282.31 42.3311L303.709 171.37L62.6671 203.933Z" fill="white" fill-opacity="0.1"/>
<path d="M100.471 136.904L101.264 139.234C101.517 139.977 102.21 140.48 102.994 140.49L105.456 140.521L103.13 141.33C102.398 141.585 101.902 142.269 101.887 143.044L101.838 145.506L101.045 143.175C100.793 142.433 100.099 141.93 99.3149 141.92L96.8534 141.889L99.1839 141.096C99.9266 140.843 100.43 140.15 100.44 139.365L100.471 136.904Z" fill="white"/>
<path d="M144.19 152.909L144.589 154.081C144.842 154.823 145.535 155.326 146.32 155.336L147.557 155.352L146.382 155.761C145.65 156.016 145.153 156.699 145.138 157.474L145.114 158.718L144.715 157.547C144.463 156.804 143.769 156.301 142.985 156.291L141.748 156.275L142.919 155.877C143.662 155.624 144.165 154.931 144.175 154.146L144.19 152.909Z" fill="white"/>
<path d="M129.948 93.698L131.241 97.4961C131.493 98.2388 132.187 98.7418 132.971 98.7517L136.983 98.8025L133.2 100.119C132.468 100.374 131.972 101.057 131.957 101.832L131.878 105.837L130.586 102.039C130.333 101.296 129.64 100.793 128.855 100.783L124.844 100.733L128.642 99.4401C129.385 99.1873 129.888 98.4942 129.897 97.7096L129.948 93.698Z" fill="white"/>
<g clip-path="url(#clip1_112_13165)">
<g clip-path="url(#clip2_112_13165)">
<path d="M158.776 122.642C158.903 124.429 160.472 125.77 162.268 125.642C162.332 125.634 162.396 125.626 162.46 125.617C164.256 125.385 165.519 123.756 165.275 121.971C165.045 120.184 163.409 118.929 161.615 119.174C159.896 119.396 158.645 120.92 158.776 122.642Z" fill="white"/>
<path d="M146.587 123.375C146.005 123.412 145.562 123.923 145.611 124.5C145.659 125.078 146.16 125.519 146.74 125.47C147.322 125.434 147.752 124.924 147.716 124.345C147.681 123.766 147.169 123.339 146.587 123.375Z" fill="white"/>
<path d="M156.153 103.962C156.633 103.64 156.756 102.975 156.434 102.498C156.111 102.021 155.443 101.899 154.963 102.221C154.483 102.543 154.359 103.194 154.681 103.672C155.005 104.162 155.662 104.298 156.153 103.962Z" fill="white"/>
<path d="M160.175 109.241C160.919 108.743 161.114 107.731 160.614 106.991C160.114 106.252 159.098 106.059 158.354 106.557C157.61 107.055 157.415 108.067 157.915 108.807C158.415 109.546 159.431 109.739 160.175 109.241Z" fill="white"/>
<path d="M149.625 114.586C150.291 114.903 151.091 114.631 151.422 113.965C151.741 113.301 151.468 112.506 150.8 112.177C150.133 111.861 149.334 112.133 149.002 112.798C148.671 113.464 148.958 114.27 149.625 114.586Z" fill="white"/>
<path d="M152.58 122.017C151.676 122.082 151.006 122.856 151.07 123.756C151.135 124.656 151.912 125.321 152.816 125.256C153.721 125.191 154.39 124.417 154.326 123.517C154.263 122.63 153.485 121.952 152.58 122.017Z" fill="white"/>
<path d="M152.193 133.057C151.582 133.474 151.415 134.3 151.834 134.92C152.252 135.528 153.082 135.693 153.706 135.275C154.317 134.859 154.484 134.033 154.065 133.412C153.647 132.805 152.805 132.641 152.193 133.057Z" fill="white"/>
<path d="M156.651 118.104C157.611 118.564 158.759 118.169 159.21 117.215C159.673 116.26 159.278 115.118 158.32 114.67C157.361 114.21 156.212 114.605 155.762 115.559C155.297 116.501 155.692 117.644 156.651 118.104Z" fill="white"/>
<path d="M175.512 107.129C176.318 107.518 177.305 107.182 177.697 106.379C178.089 105.576 177.753 104.594 176.947 104.206C176.14 103.817 175.153 104.152 174.761 104.955C174.358 105.773 174.692 106.742 175.512 107.129Z" fill="white"/>
<path d="M178.086 101.023C178.615 101.279 179.238 101.056 179.496 100.53C179.754 100.003 179.531 99.3835 179.002 99.1274C178.473 98.8713 177.85 99.0946 177.591 99.6082C177.345 100.133 177.571 100.766 178.086 101.023Z" fill="white"/>
<path d="M177.055 117.155C175.259 117.283 173.896 118.848 174.035 120.633C174.162 122.421 175.732 123.775 177.527 123.634C177.591 123.625 177.655 123.617 177.706 123.61C179.489 123.38 180.752 121.751 180.521 119.964C180.315 118.265 178.785 117.022 177.055 117.155Z" fill="white"/>
<path d="M162.278 117.144C162.97 118.157 164.175 118.702 165.406 118.543C167.189 118.313 168.452 116.683 168.221 114.897C168.157 114.399 167.977 113.916 167.687 113.486C166.673 111.996 164.641 111.609 163.154 112.619C161.656 113.643 161.266 115.666 162.278 117.144Z" fill="white"/>
<path d="M187.13 109.741C187.741 109.324 187.893 108.487 187.476 107.879C187.058 107.272 186.217 107.121 185.606 107.537C184.995 107.953 184.84 108.778 185.245 109.387C185.676 109.993 186.505 110.159 187.13 109.741Z" fill="white"/>
<path d="M179.052 111.822C178.177 112.415 177.939 113.601 178.534 114.471C179.129 115.341 180.32 115.576 181.195 114.983C182.07 114.39 182.308 113.205 181.713 112.334C181.119 111.464 179.929 111.241 179.052 111.822Z" fill="white"/>
<path d="M167.019 101.96C167.755 101.904 168.311 101.261 168.268 100.527C168.226 99.7932 167.568 99.2425 166.83 99.2859C166.094 99.3421 165.536 99.9721 165.579 100.706C165.636 101.451 166.281 102.004 167.019 101.96Z" fill="white"/>
<path d="M168.083 110.293C169.143 110.221 169.937 109.301 169.853 108.248C169.782 107.193 168.858 106.404 167.8 106.489C166.74 106.561 165.946 107.481 166.03 108.534C166.113 109.587 167.024 110.378 168.083 110.293Z" fill="white"/>
<path d="M160.27 130.976C161.145 130.383 161.383 129.198 160.788 128.327C160.193 127.457 159.002 127.222 158.127 127.815C157.252 128.408 157.014 129.594 157.609 130.464C158.204 131.334 159.395 131.57 160.27 130.976Z" fill="white"/>
<path d="M169.672 112.905C168.89 114.524 169.558 116.462 171.184 117.238C172.81 118.014 174.758 117.347 175.54 115.728C176.322 114.109 175.654 112.171 174.028 111.395C173.458 111.118 172.819 111.019 172.191 111.1C171.1 111.241 170.158 111.921 169.672 112.905Z" fill="white"/>
<path d="M177.044 125.653C176.03 124.163 173.998 123.776 172.511 124.786C171.012 125.797 170.621 127.82 171.634 129.298C172.648 130.789 174.68 131.175 176.167 130.165C177.655 129.169 178.062 127.17 177.06 125.677C177.059 125.665 177.059 125.665 177.044 125.653Z" fill="white"/>
<path d="M182.671 124.694C181.712 124.234 180.563 124.629 180.112 125.582C179.649 126.538 180.044 127.68 181.002 128.127C181.961 128.587 183.11 128.192 183.56 127.239C184.025 126.296 183.63 125.154 182.671 124.694Z" fill="white"/>
<path d="M188.255 119.055C188.19 118.155 187.413 117.49 186.509 117.555C185.604 117.62 184.935 118.394 184.999 119.294C185.063 120.194 185.84 120.859 186.745 120.794C187.636 120.731 188.317 119.942 188.255 119.055Z" fill="white"/>
<path d="M192.582 117.327C192 117.363 191.557 117.874 191.606 118.452C191.654 119.029 192.155 119.471 192.735 119.422C193.318 119.386 193.747 118.876 193.711 118.297C193.663 117.719 193.164 117.29 192.582 117.327Z" fill="white"/>
<path d="M189.699 128.211C189.032 127.894 188.232 128.166 187.901 128.832C187.583 129.496 187.855 130.291 188.523 130.62C189.19 130.936 189.99 130.664 190.321 129.999C190.652 129.333 190.365 128.527 189.699 128.211Z" fill="white"/>
<path d="M161.223 141.778C160.694 141.522 160.071 141.745 159.811 142.259C159.553 142.785 159.777 143.405 160.292 143.663C160.821 143.919 161.444 143.696 161.704 143.182C161.976 142.667 161.751 142.034 161.223 141.778Z" fill="white"/>
<path d="M183.168 138.836C182.688 139.157 182.565 139.822 182.888 140.299C183.21 140.777 183.878 140.898 184.358 140.577C184.838 140.255 184.963 139.603 184.64 139.126C184.316 138.636 183.659 138.5 183.168 138.836Z" fill="white"/>
<path d="M169.65 129.893C170.432 128.274 169.765 126.336 168.137 125.548C166.511 124.772 164.563 125.438 163.768 127.059C162.973 128.68 163.654 130.616 165.281 131.405C165.852 131.682 166.491 131.781 167.119 131.7C168.224 131.57 169.166 130.89 169.65 129.893Z" fill="white"/>
<path d="M163.812 135.67C163.005 135.281 162.018 135.616 161.626 136.419C161.235 137.222 161.57 138.204 162.377 138.593C163.183 138.982 164.17 138.647 164.562 137.844C164.967 137.039 164.631 136.057 163.812 135.67Z" fill="white"/>
<path d="M172.162 140.857C171.426 140.913 170.87 141.556 170.913 142.29C170.956 143.024 171.614 143.575 172.351 143.532C173.088 143.475 173.645 142.845 173.602 142.111C173.545 141.366 172.9 140.814 172.162 140.857Z" fill="white"/>
<path d="M171.098 132.521C170.038 132.593 169.244 133.513 169.328 134.566C169.399 135.621 170.322 136.41 171.381 136.325C172.439 136.24 173.235 135.333 173.151 134.28C173.081 133.238 172.156 132.436 171.098 132.521Z" fill="white"/>
<path d="M179.148 133.558C178.406 134.069 178.21 135.08 178.723 135.819C179.236 136.557 180.252 136.75 180.994 136.239C181.739 135.74 181.934 134.729 181.434 133.989C180.921 133.251 179.904 133.045 179.148 133.558Z" fill="white"/>
</g>
</g>
</g>
<path d="M265.64 207.812C265.211 207.792 264.795 207.759 264.406 207.723C248.833 206.276 209.288 205.641 200.817 170.844C193.035 138.886 237.184 95.0989 244.432 88.176C245.075 87.5598 245.427 87.2384 245.427 87.2384C245.427 87.2384 243.815 85.8076 278.968 87.7087C316.33 122.299 320.418 147.309 320.418 147.309C328.566 198.536 282.394 208.673 265.64 207.812Z" fill="#0033AD"/>
<path opacity="0.3" d="M265.64 207.812C265.21 207.792 264.795 207.759 264.406 207.723C248.832 206.276 209.288 205.641 200.817 170.844C193.035 138.886 237.183 95.099 244.432 88.1761C246.128 88.0697 247.729 88.3021 249.21 88.9161C249.781 89.1494 157.887 186.613 265.64 207.812Z" fill="black" fill-opacity="0.35"/>
<path d="M241.227 60.1583C241.227 60.1583 248.789 49.653 257.631 54.6074C266.473 59.5554 273.617 63.3156 278.752 60.8442C283.894 58.3735 286.655 56.2933 287.406 62.8391C288.162 69.3856 268.25 83.4558 268.25 83.4558C268.25 83.4558 240.085 80.8391 241.227 60.1583Z" fill="#0033AD"/>
<path d="M241.227 60.1583C241.227 60.1583 248.789 49.653 257.631 54.6074C266.473 59.5554 273.617 63.3156 278.752 60.8442C283.894 58.3735 286.655 56.2933 287.406 62.8391C288.162 69.3856 268.25 83.4558 268.25 83.4558C268.25 83.4558 240.085 80.8391 241.227 60.1583Z" fill="black" fill-opacity="0.15"/>
<path d="M240.774 65.0346C240.774 65.0346 248.335 54.5293 257.177 59.4836C266.02 64.4316 273.164 68.1918 278.299 65.7205C283.44 63.2497 286.202 61.1695 286.952 67.7154C287.709 74.2618 267.797 88.332 267.797 88.332C267.797 88.332 239.631 85.7153 240.774 65.0346Z" fill="white" fill-opacity="0.05"/>
<path d="M287.191 80.3293C284.22 83.9673 280.86 87.0155 278.045 88.1381C274.522 89.5425 268.426 90.0255 262.418 89.9115C256.403 89.7905 250.471 89.0655 247.269 88.0471L247.263 88.0465C246.469 87.7925 245.844 87.522 245.432 87.2455C245.432 87.2455 236.432 69.5043 237.006 61.6716C237.185 59.184 238.328 57.6937 241.034 58.0867C252.251 59.7147 251.923 66.0251 259.77 64.9839C267.618 63.9426 274.34 52.7735 278.759 60.8512C283.178 68.9289 289.691 58.6223 293.973 62.5608C296.744 65.0907 292.604 73.6929 287.191 80.3293Z" fill="#0033AD"/>
<path d="M244.907 86.1668C244.907 86.1668 265.098 94.0424 279.394 87.4717C280.425 89.0546 280.987 89.5896 280.987 89.5896C280.987 89.5896 270.172 97.7648 243.823 88.7634C243.823 88.7634 244.659 86.897 244.907 86.1668Z" fill="white"/>
<path opacity="0.2" d="M287.191 80.3294C284.22 83.9674 280.86 87.0156 278.045 88.1382C274.522 89.5426 268.426 90.0256 262.418 89.9115L247.269 88.0471L247.263 88.0465C246.469 87.7925 245.844 87.522 245.432 87.2455C245.432 87.2455 236.432 69.5044 237.006 61.6716C237.146 61.5495 241.702 57.5501 245.801 67.407C249.969 77.4185 251.028 85.9114 257.387 82.4594C263.752 79.008 274.45 64.1268 275.389 71.6945C276.321 79.2551 269.672 85.8282 274.147 85.0594C277.642 84.4442 284.676 79.9669 287.191 80.3294Z" fill="black" fill-opacity="0.2"/>
<path d="M269.219 114.819C270.499 114.893 271.49 115.874 271.435 117.015L271.241 120.91C273.805 121.091 276.37 121.406 278.922 121.869C280.802 122.204 282.67 122.616 284.511 123.103C285.617 123.392 286.337 124.367 286.184 125.395L285.436 130.328C285.237 131.642 283.738 132.455 282.375 131.955C281.155 131.507 279.902 131.133 278.617 130.827C276.369 130.29 273.978 129.971 271.451 129.865L270.791 129.836L270.217 141.216C276.945 142.659 281.824 144.741 284.924 147.475C288.006 150.201 289.465 153.691 289.298 157.982C289.116 162.645 287.195 166.477 283.498 169.481C279.759 172.52 274.596 174.384 267.962 175.048L267.727 179.655C267.664 180.885 266.528 181.893 265.187 181.911L265.142 181.913C263.795 181.929 262.76 180.945 262.823 179.715L263.065 175.16L261.989 175.169C258.872 175.189 255.885 175.047 253.043 174.737C250.933 174.509 248.878 174.177 246.878 173.746C245.666 173.486 244.89 172.48 245.072 171.351L246.174 164.617C246.412 163.171 248.099 162.259 249.607 162.734C251.364 163.284 253.15 163.739 254.966 164.088C257.786 164.633 260.655 164.938 263.571 165.003L264.312 151.972C257.766 150.778 252.915 148.814 249.814 146.093C246.701 143.357 245.282 139.781 245.569 135.373C245.862 130.836 247.864 127.301 251.544 124.765C255.189 122.252 260.205 120.922 266.563 120.746L266.773 116.755C266.84 115.609 267.938 114.745 269.219 114.819ZM266.083 129.856C264.057 130.048 262.456 130.581 261.28 131.463C260.097 132.345 259.468 133.503 259.386 134.937C259.312 136.295 259.774 137.42 260.774 138.298C261.773 139.176 263.359 139.851 265.53 140.317L266.083 129.856ZM269.095 152.809L268.488 164.739C270.718 164.644 272.449 164.097 273.682 163.091C274.914 162.092 275.569 160.723 275.646 158.999C275.721 157.429 275.228 156.147 274.181 155.155C273.14 154.163 271.443 153.381 269.095 152.809Z" fill="white"/>
<path d="M221.978 125.132L222.395 127.558C222.528 128.332 223.133 128.937 223.907 129.07L226.333 129.488L223.909 129.922C223.146 130.058 222.548 130.656 222.412 131.419L221.978 133.843L221.56 131.417C221.427 130.643 220.822 130.038 220.048 129.905L217.622 129.488L220.048 129.07C220.822 128.937 221.427 128.332 221.56 127.558L221.978 125.132Z" fill="white"/>
<path d="M311.284 76.9092L312.047 81.3448C312.18 82.118 312.786 82.7237 313.559 82.8566L317.995 83.6196L313.573 84.4114C312.81 84.548 312.213 85.1453 312.076 85.9085L311.284 90.33L310.521 85.8943C310.388 85.1211 309.783 84.5155 309.009 84.3825L304.574 83.6196L309.009 82.8566C309.783 82.7237 310.388 82.118 310.521 81.3448L311.284 76.9092Z" fill="white"/>
<path d="M40.2822 137.909L40.8376 141.138C40.9706 141.911 41.5762 142.517 42.3494 142.65L45.5784 143.205L42.3563 143.782C41.5932 143.919 40.9959 144.516 40.8592 145.279L40.2822 148.502L39.7268 145.273C39.5938 144.499 38.9882 143.894 38.215 143.761L34.986 143.205L38.215 142.65C38.9882 142.517 39.5939 141.911 39.7268 141.138L40.2822 137.909Z" fill="white"/>
<path d="M143.869 38.9092L144.217 40.9315C144.35 41.7047 144.956 42.3103 145.729 42.4433L147.751 42.7912L145.728 43.1534C144.965 43.29 144.368 43.8873 144.231 44.6505L143.869 46.6731L143.521 44.6508C143.388 43.8776 142.783 43.272 142.009 43.139L139.987 42.7911L142.009 42.4433C142.783 42.3103 143.388 41.7047 143.521 40.9315L143.869 38.9092Z" fill="white"/>
<path d="M311.837 37.2546L312.175 39.2186C312.308 39.9918 312.913 40.5975 313.687 40.7304L315.651 41.0682L313.686 41.4201C312.923 41.5567 312.325 42.1541 312.189 42.9172L311.837 44.8819L311.499 42.9179C311.366 42.1447 310.761 41.539 309.987 41.4061L308.023 41.0682L309.987 40.7304C310.761 40.5975 311.366 39.9918 311.499 39.2186L311.837 37.2546Z" fill="white"/>
<path d="M218.343 172.909L219.175 177.749C219.308 178.522 219.914 179.127 220.687 179.26L225.526 180.093L220.704 180.956C219.94 181.093 219.343 181.69 219.206 182.454L218.343 187.276L217.51 182.437C217.377 181.664 216.772 181.058 215.999 180.925L211.159 180.093L215.999 179.26C216.772 179.127 217.377 178.522 217.51 177.749L218.343 172.909Z" fill="white"/>
<path d="M88.5729 203.354C95.8152 205.281 112.807 204.058 122.834 183.749C127.986 172.184 114.418 176.968 116.358 180.865C118.299 184.761 134.274 193.826 142.67 172.228" stroke="#0033AD" stroke-width="0.845466" stroke-linecap="round"/>
<path d="M143.563 174.355L142.835 171.864L140.496 172.988" stroke="#0033AD" stroke-width="0.845466" stroke-linecap="round" stroke-linejoin="round"/>
<path d="M57.4727 170.909L58.3708 176.131C58.5274 177.041 59.2403 177.754 60.1505 177.911L65.3723 178.809L60.1672 179.741C59.2688 179.902 58.5656 180.605 58.4048 181.503L57.4727 186.708L56.5745 181.487C56.418 180.576 55.705 179.864 54.7948 179.707L49.573 178.809L54.7948 177.911C55.705 177.754 56.418 177.041 56.5745 176.131L57.4727 170.909Z" fill="#0033AD"/>
<path d="M43.4727 70.9092L43.9557 73.7176C44.1123 74.6278 44.8252 75.3408 45.7354 75.4973L48.5439 75.9804L45.7376 76.4829C44.8393 76.6438 44.1361 77.347 43.9752 78.2453L43.4727 81.0516L42.9896 78.2432C42.833 77.3329 42.1201 76.62 41.2099 76.4634L38.4015 75.9804L41.2099 75.4973C42.1201 75.3408 42.8331 74.6278 42.9896 73.7176L43.4727 70.9092Z" fill="#0033AD"/>
<path d="M337.623 136.909L338.197 140.247C338.297 140.829 338.753 141.285 339.335 141.385L342.673 141.959L339.346 142.555C338.771 142.658 338.322 143.108 338.219 143.682L337.623 147.01L337.049 143.671C336.949 143.09 336.493 142.634 335.911 142.534L332.573 141.959L335.911 141.385C336.493 141.285 336.949 140.829 337.049 140.247L337.623 136.909Z" fill="#0033AD"/>
<g clip-path="url(#clip3_112_13165)">
<path d="M171.424 42.7634C173.843 59.1003 189.213 70.359 205.754 67.9104C222.295 65.4618 233.744 50.2332 231.325 33.8963C228.907 17.5594 213.537 6.30066 196.996 8.74926C180.455 11.1979 169.006 26.4265 171.424 42.7634Z" fill="#B4974A"/>
<g clip-path="url(#clip4_112_13165)">
<circle cx="201.242" cy="38.2762" r="29.0458" transform="rotate(-8.42041 201.242 38.2762)" fill="#3250AA"/>
<g clip-path="url(#clip5_112_13165)">
<g clip-path="url(#clip6_112_13165)">
<path d="M197.54 25.2331C198.032 25.1109 198.335 24.6122 198.222 24.1202C198.109 23.6282 197.601 23.3306 197.106 23.4444C196.614 23.5665 196.309 24.0567 196.422 24.5487C196.546 25.0466 197.046 25.3468 197.54 25.2331Z" fill="url(#paint1_linear_112_13165)"/>
<path d="M205.822 22.8382C205.708 23.224 205.312 23.4464 204.925 23.3335C204.546 23.218 204.321 22.8155 204.427 22.4323C204.544 22.0549 204.94 21.8326 205.328 21.9455C205.715 22.0584 205.937 22.4524 205.822 22.8382Z" fill="url(#paint2_linear_112_13165)"/>
<path d="M190.415 27.8294C190.703 27.5568 190.71 27.0929 190.437 26.8067C190.164 26.5204 189.699 26.5146 189.41 26.7872C189.122 27.0597 189.112 27.5152 189.385 27.8014C189.661 28.0961 190.121 28.1129 190.415 27.8294Z" fill="url(#paint3_linear_112_13165)"/>
<path d="M197.032 41.8078C195.831 42.1 194.616 41.3713 194.326 40.1761C194.04 39.0256 194.712 37.8511 195.85 37.5043C197.037 37.1335 198.287 37.7958 198.648 38.9789C199.017 40.1593 198.348 41.4066 197.159 41.769L197.032 41.8078Z" fill="url(#paint4_linear_112_13165)"/>
<path d="M185.626 42.9379C185.527 42.5525 185.768 42.1558 186.158 42.0646C186.548 41.9735 186.943 42.204 187.033 42.5921C187.124 42.9801 186.891 43.3742 186.501 43.4653C186.114 43.5649 185.725 43.3233 185.626 42.9379Z" fill="url(#paint5_linear_112_13165)"/>
<path d="M193.78 29.371C194.203 29.8147 194.186 30.5216 193.74 30.944C193.293 31.3664 192.583 31.3519 192.16 30.9082C191.737 30.4645 191.754 29.7576 192.2 29.3352C192.647 28.9128 193.357 28.9273 193.78 29.371Z" fill="url(#paint6_linear_112_13165)"/>
<path d="M187.209 35.7693C187.697 35.9071 188.207 35.6316 188.355 35.1431C188.495 34.6573 188.22 34.1501 187.73 34.004C187.242 33.8662 186.732 34.1417 186.584 34.6302C186.436 35.1186 186.722 35.6316 187.209 35.7693Z" fill="url(#paint7_linear_112_13165)"/>
<path d="M189.236 41.81C189.09 41.2081 189.454 40.6075 190.059 40.4602C190.664 40.3128 191.269 40.6826 191.412 41.276C191.559 41.8779 191.194 42.4784 190.589 42.6258C189.984 42.7732 189.382 42.4118 189.236 41.81Z" fill="url(#paint8_linear_112_13165)"/>
<path d="M191.06 47.9774C190.694 48.3291 190.675 48.9074 191.03 49.2795C191.382 49.6431 191.962 49.6601 192.337 49.3058C192.703 48.9541 192.722 48.3759 192.367 48.0037C192.015 47.6401 191.426 47.6257 191.06 47.9774Z" fill="url(#paint9_linear_112_13165)"/>
<path d="M193.998 36.4525C193.802 37.1494 193.07 37.5481 192.368 37.3464C191.666 37.1447 191.268 36.4165 191.475 35.7254C191.671 35.0285 192.403 34.6298 193.105 34.8315C193.804 35.0247 194.203 35.7529 193.998 36.4525Z" fill="url(#paint10_linear_112_13165)"/>
<path d="M203.88 27.7613C204.47 27.9322 205.1 27.5926 205.273 27.0041C205.446 26.4157 205.107 25.7895 204.517 25.6185C203.926 25.4475 203.296 25.7872 203.123 26.3757C202.944 26.9752 203.281 27.5929 203.88 27.7613Z" fill="url(#paint11_linear_112_13165)"/>
<path d="M206.07 34.3704C204.869 34.6626 204.125 35.8774 204.424 37.07C204.714 38.2653 205.931 39.0024 207.13 38.7018L207.249 38.6655C208.429 38.3058 209.098 37.0584 208.738 35.8754C208.404 34.749 207.226 34.0828 206.07 34.3704Z" fill="url(#paint12_linear_112_13165)"/>
<path d="M198.344 36.6424C197.529 36.8908 196.651 36.6597 196.067 36.0527C195.213 35.168 195.246 33.7541 196.143 32.8898C197.034 32.0365 198.453 32.0656 199.31 32.9588C199.556 33.2164 199.733 33.5227 199.833 33.8522C200.194 35.0353 199.525 36.2826 198.344 36.6424Z" fill="url(#paint13_linear_112_13165)"/>
<path d="M212.042 28.2011C212.408 27.8494 212.416 27.2653 212.064 26.9016C211.711 26.538 211.125 26.532 210.759 26.8837C210.393 27.2354 210.382 27.8111 210.726 28.1774C211.087 28.5384 211.667 28.5554 212.042 28.2011Z" fill="url(#paint14_linear_112_13165)"/>
<path d="M206.765 32.3861C206.262 31.865 206.288 31.0353 206.813 30.5337C207.34 30.0405 208.17 30.0552 208.673 30.5763C209.175 31.0974 209.149 31.9271 208.625 32.4287C208.1 32.9303 207.267 32.9072 206.765 32.3861Z" fill="url(#paint15_linear_112_13165)"/>
<path d="M200.178 29.1666C200.355 29.8698 199.923 30.5834 199.214 30.7534C198.507 30.9318 197.8 30.5008 197.623 29.7975C197.446 29.0942 197.878 28.3807 198.587 28.2107C199.294 28.0323 200.009 28.4607 200.178 29.1666Z" fill="url(#paint16_linear_112_13165)"/>
<path d="M196.289 45.6448C196.814 45.1432 196.839 44.3135 196.337 43.7924C195.835 43.2713 195.002 43.2482 194.477 43.7498C193.952 44.2514 193.927 45.0811 194.429 45.6022C194.931 46.1233 195.764 46.1464 196.289 45.6448Z" fill="url(#paint17_linear_112_13165)"/>
<path d="M202.106 35.0989C200.916 34.7595 200.243 33.5241 200.587 32.3387C200.803 31.6171 201.364 31.0493 202.085 30.8293C202.502 30.7025 202.945 30.6965 203.363 30.8186C204.552 31.158 205.226 32.3934 204.882 33.5787C204.538 34.7641 203.295 35.4383 202.106 35.0989Z" fill="url(#paint18_linear_112_13165)"/>
<path d="M207.036 40.1262C206.179 39.233 204.759 39.2039 203.868 40.0572C202.969 40.913 202.936 42.3269 203.79 43.2116C204.647 44.1048 206.067 44.1339 206.958 43.2806C207.851 42.4358 207.898 41.0363 207.049 40.1405C207.047 40.132 207.047 40.132 207.036 40.1262Z" fill="url(#paint19_linear_112_13165)"/>
<path d="M209.104 39.7264C209.3 39.0294 210.032 38.6308 210.734 38.8325C211.436 39.0341 211.834 39.7624 211.627 40.4534C211.431 41.1504 210.699 41.549 209.997 41.3474C209.297 41.1542 208.899 40.4259 209.104 39.7264Z" fill="url(#paint20_linear_112_13165)"/>
<path d="M213.868 34.3772C213.722 33.7754 213.12 33.414 212.515 33.5614C211.91 33.7087 211.546 34.3093 211.692 34.9112C211.838 35.513 212.44 35.8744 213.045 35.727C213.642 35.5822 214.012 34.9706 213.868 34.3772Z" fill="url(#paint21_linear_112_13165)"/>
<path d="M216.069 33.5863C215.97 33.2009 216.211 32.8042 216.601 32.7131C216.991 32.622 217.378 32.8551 217.477 33.2405C217.567 33.6285 217.334 34.0226 216.944 34.1137C216.557 34.2133 216.168 33.9718 216.069 33.5863Z" fill="url(#paint22_linear_112_13165)"/>
<path d="M215.893 40.4094C215.405 40.2717 214.895 40.5472 214.747 41.0356C214.607 41.5214 214.883 42.0286 215.373 42.1748C215.86 42.3125 216.37 42.037 216.518 41.5486C216.667 41.0601 216.38 40.5471 215.893 40.4094Z" fill="url(#paint23_linear_112_13165)"/>
<path d="M197.268 53.3347C197.385 52.9573 197.782 52.7349 198.169 52.8478C198.556 52.9607 198.781 53.3632 198.655 53.7432C198.538 54.1205 198.142 54.3429 197.755 54.23C197.376 54.1145 197.154 53.7205 197.268 53.3347Z" fill="url(#paint24_linear_112_13165)"/>
<path d="M212.688 48.3493C212.4 48.6218 212.392 49.0857 212.665 49.372C212.938 49.6582 213.404 49.664 213.692 49.3915C213.98 49.1189 213.99 48.6635 213.717 48.3772C213.442 48.0825 212.982 48.0657 212.688 48.3493Z" fill="url(#paint25_linear_112_13165)"/>
<path d="M200.993 41.0714C202.185 41.4193 202.858 42.6547 202.514 43.84C202.301 44.5701 201.74 45.1379 201.007 45.3521C200.591 45.4789 200.148 45.4848 199.73 45.3628C198.538 45.0149 197.856 43.7821 198.208 42.5942C198.561 41.4062 199.804 40.7321 200.993 41.0714Z" fill="url(#paint26_linear_112_13165)"/>
<path d="M199.223 48.4177C198.632 48.2467 198.002 48.5864 197.829 49.1748C197.656 49.7633 197.995 50.3894 198.586 50.5604C199.176 50.7314 199.806 50.3917 199.979 49.8033C200.161 49.2122 199.822 48.5861 199.223 48.4177Z" fill="url(#paint27_linear_112_13165)"/>
<path d="M204.787 52.0869C204.674 51.5949 204.977 51.0963 205.468 50.9741C205.963 50.8604 206.463 51.1605 206.587 51.6584C206.699 52.1504 206.394 52.6406 205.902 52.7628C205.408 52.8765 204.899 52.5789 204.787 52.0869Z" fill="url(#paint28_linear_112_13165)"/>
<path d="M203.795 45.4535C203.086 45.6235 202.654 46.337 202.831 47.0403C203 47.7461 203.715 48.1746 204.422 47.9962C205.128 47.8177 205.563 47.1126 205.386 46.4094C205.22 45.712 204.502 45.2751 203.795 45.4535Z" fill="url(#paint29_linear_112_13165)"/>
<path d="M209.333 46.8136C208.902 46.3725 208.919 45.6656 209.363 45.2347C209.815 44.8013 210.528 44.8243 210.959 45.2653C211.382 45.709 211.365 46.4159 210.919 46.8383C210.475 47.2692 209.765 47.2547 209.333 46.8136Z" fill="url(#paint30_linear_112_13165)"/>
</g>
</g>
</g>
<path d="M172.54 42.6017C174.865 58.313 189.654 69.1635 205.595 66.8036C221.537 64.4438 232.547 49.7742 230.222 34.0629C227.896 18.3516 213.108 7.50113 197.166 9.86097C181.224 12.2208 170.214 26.8903 172.54 42.6017Z" stroke="url(#paint31_linear_112_13165)" stroke-width="2.24272"/>
<path d="M216.004 10.1013L216.736 13.6442L219.902 15.3948L216.359 16.1267L214.608 19.2927L213.876 15.7498L210.71 13.9992L214.253 13.2673L216.004 10.1013Z" fill="white"/>
<path d="M178.188 49.2845L178.676 51.6464L180.786 52.8135L178.424 53.3014L177.257 55.4121L176.769 53.0501L174.659 51.8831L177.021 51.3952L178.188 49.2845Z" fill="white"/>
<path d="M212.846 61.8607L213.172 63.4353L214.579 64.2133L213.004 64.5386L212.226 65.9457L211.901 64.3711L210.494 63.5931L212.068 63.2677L212.846 61.8607Z" fill="white"/>
<path d="M216.129 54.002L216.617 56.364L218.728 57.531L216.366 58.019L215.199 60.1296L214.711 57.7677L212.6 56.6006L214.962 56.1127L216.129 54.002Z" fill="white"/>
<path d="M177.669 25.1765L177.831 25.9639L178.535 26.3529L177.748 26.5155L177.359 27.2191L177.196 26.4318L176.492 26.0427L177.28 25.8801L177.669 25.1765Z" fill="white"/>
</g>
<path d="M134.135 66.7683C131.011 75.1801 121.115 81.9993 112.029 81.9993C102.944 81.9993 96.4756 74.3459 99.5989 65.934C102.722 57.5221 113.637 49.6621 122.722 49.6621C131.807 49.6621 137.258 58.3564 134.135 66.7683Z" fill="#4C60C1"/>
<g clip-path="url(#clip7_112_13165)">
<path d="M132.568 63.9497C128.903 72.1196 118.582 78.7426 109.516 78.7426C100.45 78.7426 96.0714 72.1196 99.7363 63.9497C103.401 55.7798 113.722 49.1567 122.788 49.1567C131.854 49.1567 136.233 55.7798 132.568 63.9497Z" fill="#B4974A"/>
<g clip-path="url(#clip8_112_13165)">
<circle cx="15.7484" cy="15.7484" r="15.7484" transform="matrix(-1 1.24191e-08 -0.409286 0.912406 138.43 49.5449)" fill="#3250AA"/>
<g clip-path="url(#clip9_112_13165)">
<g clip-path="url(#clip10_112_13165)">
<path d="M119.124 56.1855C119.409 56.1999 119.77 55.9887 119.933 55.7153C120.096 55.4418 119.987 55.2067 119.705 55.1875C119.42 55.1731 119.061 55.3794 118.899 55.6529C118.738 55.9312 118.842 56.1663 119.124 56.1855Z" fill="#A5C9FF"/>
<path d="M119.124 56.1855C119.409 56.1999 119.77 55.9887 119.933 55.7153C120.096 55.4418 119.987 55.2067 119.705 55.1875C119.42 55.1731 119.061 55.3794 118.899 55.6529C118.738 55.9312 118.842 56.1663 119.124 56.1855Z" fill="url(#paint32_linear_112_13165)"/>
<path d="M124.07 56.2526C123.847 56.4349 123.563 56.4877 123.431 56.3677C123.303 56.2478 123.374 56.0031 123.592 55.8207C123.813 55.6432 124.096 55.5904 124.229 55.7104C124.361 55.8303 124.293 56.0702 124.07 56.2526Z" fill="#A5C9FF"/>
<path d="M124.07 56.2526C123.847 56.4349 123.563 56.4877 123.431 56.3677C123.303 56.2478 123.374 56.0031 123.592 55.8207C123.813 55.6432 124.096 55.5904 124.229 55.7104C124.361 55.8303 124.293 56.0702 124.07 56.2526Z" fill="url(#paint33_linear_112_13165)"/>
<path d="M114.635 56.4061C114.89 56.3102 115.097 56.0703 115.094 55.8783C115.092 55.6864 114.875 55.6097 114.62 55.7056C114.365 55.8016 114.161 56.0367 114.163 56.2286C114.164 56.4253 114.373 56.5069 114.635 56.4061Z" fill="#A5C9FF"/>
<path d="M114.635 56.4061C114.89 56.3102 115.097 56.0703 115.094 55.8783C115.092 55.6864 114.875 55.6097 114.62 55.7056C114.365 55.8016 114.161 56.0367 114.163 56.2286C114.164 56.4253 114.373 56.5069 114.635 56.4061Z" fill="url(#paint34_linear_112_13165)"/>
<path d="M111.617 64.7163C110.924 64.678 110.672 64.107 111.06 63.4401C111.43 62.7972 112.261 62.2934 112.948 62.2934C113.669 62.2886 113.967 62.8307 113.617 63.5025C113.273 64.1742 112.412 64.7163 111.694 64.7163H111.617Z" fill="#A5C9FF"/>
<path d="M111.617 64.7163C110.924 64.678 110.672 64.107 111.06 63.4401C111.43 62.7972 112.261 62.2934 112.948 62.2934C113.669 62.2886 113.967 62.8307 113.617 63.5025C113.273 64.1742 112.412 64.7163 111.694 64.7163H111.617Z" fill="url(#paint35_linear_112_13165)"/>
<path d="M105.758 63.4975C105.88 63.2816 106.167 63.1137 106.391 63.1281C106.614 63.1425 106.699 63.3248 106.571 63.5407C106.444 63.7566 106.161 63.9245 105.938 63.9101C105.712 63.9005 105.635 63.7134 105.758 63.4975Z" fill="#A5C9FF"/>
<path d="M105.758 63.4975C105.88 63.2816 106.167 63.1137 106.391 63.1281C106.614 63.1425 106.699 63.3248 106.571 63.5407C106.444 63.7566 106.161 63.9245 105.938 63.9101C105.712 63.9005 105.635 63.7134 105.758 63.4975Z" fill="url(#paint36_linear_112_13165)"/>
<path d="M115.541 57.7399C115.545 58.0373 115.228 58.402 114.832 58.5507C114.437 58.6995 114.11 58.5795 114.105 58.282C114.101 57.9846 114.419 57.6199 114.814 57.4712C115.209 57.3224 115.537 57.4424 115.541 57.7399Z" fill="#A5C9FF"/>
<path d="M115.541 57.7399C115.545 58.0373 115.228 58.402 114.832 58.5507C114.437 58.6995 114.11 58.5795 114.105 58.282C114.101 57.9846 114.419 57.6199 114.814 57.4712C115.209 57.3224 115.537 57.4424 115.541 57.7399Z" fill="url(#paint37_linear_112_13165)"/>
<path d="M109.646 60.0237C109.815 60.1725 110.175 60.1101 110.459 59.8798C110.738 59.6495 110.831 59.3424 110.664 59.1889C110.496 59.0401 110.135 59.1025 109.851 59.3328C109.567 59.5631 109.477 59.875 109.646 60.0237Z" fill="#A5C9FF"/>
<path d="M109.646 60.0237C109.815 60.1725 110.175 60.1101 110.459 59.8798C110.738 59.6495 110.831 59.3424 110.664 59.1889C110.496 59.0401 110.135 59.1025 109.851 59.3328C109.567 59.5631 109.477 59.875 109.646 60.0237Z" fill="url(#paint38_linear_112_13165)"/>
<path d="M107.95 63.483C108.145 63.1471 108.58 62.8928 108.929 62.912C109.278 62.9312 109.401 63.2191 109.208 63.5502C109.013 63.886 108.578 64.1403 108.229 64.1211C107.88 64.1019 107.755 63.8188 107.95 63.483Z" fill="#A5C9FF"/>
<path d="M107.95 63.483C108.145 63.1471 108.58 62.8928 108.929 62.912C109.278 62.9312 109.401 63.2191 109.208 63.5502C109.013 63.886 108.578 64.1403 108.229 64.1211C107.88 64.1019 107.755 63.8188 107.95 63.483Z" fill="url(#paint39_linear_112_13165)"/>
<path d="M106.103 66.9761C105.776 67.1009 105.514 67.3983 105.518 67.6478C105.524 67.8925 105.789 67.9933 106.121 67.8685C106.447 67.7438 106.71 67.4463 106.706 67.1968C106.7 66.9521 106.429 66.8514 106.103 66.9761Z" fill="#A5C9FF"/>
<path d="M106.103 66.9761C105.776 67.1009 105.514 67.3983 105.518 67.6478C105.524 67.8925 105.789 67.9933 106.121 67.8685C106.447 67.7438 106.71 67.4463 106.706 67.1968C106.7 66.9521 106.429 66.8514 106.103 66.9761Z" fill="url(#paint40_linear_112_13165)"/>
<path d="M112.539 61.4536C112.141 61.7846 111.622 61.8758 111.38 61.6599C111.139 61.444 111.271 61.0026 111.671 60.6763C112.069 60.3452 112.588 60.2541 112.83 60.47C113.074 60.6811 112.942 61.1225 112.539 61.4536Z" fill="#A5C9FF"/>
<path d="M112.539 61.4536C112.141 61.7846 111.622 61.8758 111.38 61.6599C111.139 61.444 111.271 61.0026 111.671 60.6763C112.069 60.3452 112.588 60.2541 112.83 60.47C113.074 60.6811 112.942 61.1225 112.539 61.4536Z" fill="url(#paint41_linear_112_13165)"/>
<path d="M120.997 58.5026C121.2 58.6849 121.645 58.6082 121.984 58.3299C122.324 58.0516 122.439 57.6726 122.236 57.4903C122.034 57.3079 121.588 57.3847 121.249 57.663C120.902 57.9461 120.789 58.3203 120.997 58.5026Z" fill="#A5C9FF"/>
<path d="M120.997 58.5026C121.2 58.6849 121.645 58.6082 121.984 58.3299C122.324 58.0516 122.439 57.6726 122.236 57.4903C122.034 57.3079 121.588 57.3847 121.249 57.663C120.902 57.9461 120.789 58.3203 120.997 58.5026Z" fill="url(#paint42_linear_112_13165)"/>
<path d="M119.13 62.2834C118.437 62.245 117.554 62.7584 117.172 63.4253C116.784 64.0922 117.033 64.668 117.729 64.7016H117.801C118.513 64.7016 119.375 64.1594 119.724 63.4877C120.061 62.8496 119.799 62.317 119.13 62.2834Z" fill="#A5C9FF"/>
<path d="M119.13 62.2834C118.437 62.245 117.554 62.7584 117.172 63.4253C116.784 64.0922 117.033 64.668 117.729 64.7016H117.801C118.513 64.7016 119.375 64.1594 119.724 63.4877C120.061 62.8496 119.799 62.317 119.13 62.2834Z" fill="url(#paint43_linear_112_13165)"/>
<path d="M114.499 62.2404C114.007 62.2404 113.696 61.9813 113.687 61.5735C113.673 60.9785 114.309 60.2492 115.11 59.9422C115.903 59.6399 116.558 59.8798 116.569 60.4795C116.571 60.6523 116.52 60.8394 116.423 61.0265C116.074 61.6982 115.212 62.2404 114.499 62.2404Z" fill="#A5C9FF"/>
<path d="M114.499 62.2404C114.007 62.2404 113.696 61.9813 113.687 61.5735C113.673 60.9785 114.309 60.2492 115.11 59.9422C115.903 59.6399 116.558 59.8798 116.569 60.4795C116.571 60.6523 116.52 60.8394 116.423 61.0265C116.074 61.6982 115.212 62.2404 114.499 62.2404Z" fill="url(#paint44_linear_112_13165)"/>
<path d="M124.643 60.0237C124.97 59.8989 125.23 59.5967 125.223 59.352C125.217 59.1073 124.944 59.0113 124.618 59.1361C124.291 59.2608 124.034 59.5583 124.035 59.803C124.046 60.0477 124.312 60.1484 124.643 60.0237Z" fill="#A5C9FF"/>
<path d="M124.643 60.0237C124.97 59.8989 125.23 59.5967 125.223 59.352C125.217 59.1073 124.944 59.0113 124.618 59.1361C124.291 59.2608 124.034 59.5583 124.035 59.803C124.046 60.0477 124.312 60.1484 124.643 60.0237Z" fill="url(#paint45_linear_112_13165)"/>
<path d="M120.326 61.3623C120.319 61.0121 120.694 60.5851 121.161 60.4075C121.625 60.2348 122.01 60.374 122.017 60.7242C122.025 61.0745 121.649 61.5015 121.182 61.679C120.716 61.8565 120.334 61.7126 120.326 61.3623Z" fill="#A5C9FF"/>
<path d="M120.326 61.3623C120.319 61.0121 120.694 60.5851 121.161 60.4075C121.625 60.2348 122.01 60.374 122.017 60.7242C122.025 61.0745 121.649 61.5015 121.182 61.679C120.716 61.8565 120.334 61.7126 120.326 61.3623Z" fill="url(#paint46_linear_112_13165)"/>
<path d="M118.64 58.6467C118.414 59.0401 117.898 59.3424 117.49 59.3184C117.08 59.2992 116.936 58.9633 117.161 58.5699C117.386 58.1765 117.903 57.8742 118.311 57.8982C118.721 57.9174 118.87 58.2532 118.64 58.6467Z" fill="#A5C9FF"/>
<path d="M118.64 58.6467C118.414 59.0401 117.898 59.3424 117.49 59.3184C117.08 59.2992 116.936 58.9633 117.161 58.5699C117.386 58.1765 117.903 57.8742 118.311 57.8982C118.721 57.9174 118.87 58.2532 118.64 58.6467Z" fill="url(#paint47_linear_112_13165)"/>
<path d="M109.586 66.5922C110.052 66.4147 110.428 65.9877 110.42 65.6374C110.413 65.2872 110.031 65.1433 109.564 65.3208C109.098 65.4983 108.722 65.9253 108.729 66.2756C108.737 66.6258 109.119 66.7698 109.586 66.5922Z" fill="#A5C9FF"/>
<path d="M109.586 66.5922C110.052 66.4147 110.428 65.9877 110.42 65.6374C110.413 65.2872 110.031 65.1433 109.564 65.3208C109.098 65.4983 108.722 65.9253 108.729 66.2756C108.737 66.6258 109.119 66.7698 109.586 66.5922Z" fill="url(#paint48_linear_112_13165)"/>
<path d="M116.946 62.0341C116.535 61.6694 116.76 60.921 117.442 60.3596C117.86 60.0189 118.373 59.8126 118.809 59.8126C119.06 59.8126 119.271 59.8798 119.414 60.0093C119.825 60.374 119.6 61.1225 118.918 61.6838C118.236 62.2452 117.356 62.3987 116.946 62.0341Z" fill="#A5C9FF"/>
<path d="M116.946 62.0341C116.535 61.6694 116.76 60.921 117.442 60.3596C117.86 60.0189 118.373 59.8126 118.809 59.8126C119.06 59.8126 119.271 59.8798 119.414 60.0093C119.825 60.374 119.6 61.1225 118.918 61.6838C118.236 62.2452 117.356 62.3987 116.946 62.0341Z" fill="url(#paint49_linear_112_13165)"/>
<path d="M117.059 65.4266C117.048 64.8268 116.393 64.5869 115.6 64.8892C114.802 65.1915 114.166 65.9208 114.18 66.5157C114.191 67.1155 114.846 67.3554 115.639 67.0531C116.43 66.7556 117.065 66.0359 117.059 65.4362C117.062 65.4314 117.062 65.4314 117.059 65.4266Z" fill="#A5C9FF"/>
<path d="M117.059 65.4266C117.048 64.8268 116.393 64.5869 115.6 64.8892C114.802 65.1915 114.166 65.9208 114.18 66.5157C114.191 67.1155 114.846 67.3554 115.639 67.0531C116.43 66.7556 117.065 66.0359 117.059 65.4362C117.062 65.4314 117.062 65.4314 117.059 65.4266Z" fill="url(#paint50_linear_112_13165)"/>
<path d="M118.207 65.5463C118.605 65.2152 119.125 65.1241 119.366 65.34C119.608 65.5559 119.476 65.9973 119.075 66.3236C118.678 66.6546 118.158 66.7458 117.917 66.5299C117.672 66.3188 117.805 65.8774 118.207 65.5463Z" fill="#A5C9FF"/>
<path d="M118.207 65.5463C118.605 65.2152 119.125 65.1241 119.366 65.34C119.608 65.5559 119.476 65.9973 119.075 66.3236C118.678 66.6546 118.158 66.7458 117.917 66.5299C117.672 66.3188 117.805 65.8774 118.207 65.5463Z" fill="url(#paint51_linear_112_13165)"/>
<path d="M122.794 63.5216C122.989 63.1857 122.864 62.9027 122.515 62.8835C122.166 62.8643 121.731 63.1186 121.536 63.4544C121.341 63.7903 121.466 64.0734 121.815 64.0926C122.159 64.1117 122.601 63.8527 122.794 63.5216Z" fill="#A5C9FF"/>
<path d="M122.794 63.5216C122.989 63.1857 122.864 62.9027 122.515 62.8835C122.166 62.8643 121.731 63.1186 121.536 63.4544C121.341 63.7903 121.466 64.0734 121.815 64.0926C122.159 64.1117 122.601 63.8527 122.794 63.5216Z" fill="url(#paint52_linear_112_13165)"/>
<path d="M124.175 63.4591C124.297 63.2431 124.584 63.0752 124.808 63.0896C125.031 63.104 125.111 63.2863 124.988 63.5022C124.861 63.7181 124.578 63.8861 124.355 63.8717C124.129 63.8621 124.052 63.675 124.175 63.4591Z" fill="#A5C9FF"/>
<path d="M124.175 63.4591C124.297 63.2431 124.584 63.0752 124.808 63.0896C125.031 63.104 125.111 63.2863 124.988 63.5022C124.861 63.7181 124.578 63.8861 124.355 63.8717C124.129 63.8621 124.052 63.675 124.175 63.4591Z" fill="url(#paint53_linear_112_13165)"/>
<path d="M121.101 66.9761C120.932 66.8274 120.571 66.8897 120.287 67.12C120.009 67.3503 119.916 67.6574 120.082 67.8109C120.251 67.9597 120.611 67.8973 120.895 67.667C121.179 67.4367 121.27 67.1248 121.101 66.9761Z" fill="#A5C9FF"/>
<path d="M121.101 66.9761C120.932 66.8274 120.571 66.8897 120.287 67.12C120.009 67.3503 119.916 67.6574 120.082 67.8109C120.251 67.9597 120.611 67.8973 120.895 67.667C121.179 67.4367 121.27 67.1248 121.101 66.9761Z" fill="url(#paint54_linear_112_13165)"/>
<path d="M106.673 70.7425C106.893 70.565 107.177 70.5122 107.31 70.6321C107.442 70.7521 107.372 70.9968 107.146 71.1743C106.925 71.3518 106.642 71.4046 106.509 71.2847C106.382 71.1647 106.45 70.9248 106.673 70.7425Z" fill="#A5C9FF"/>
<path d="M106.673 70.7425C106.893 70.565 107.177 70.5122 107.31 70.6321C107.442 70.7521 107.372 70.9968 107.146 71.1743C106.925 71.3518 106.642 71.4046 106.509 71.2847C106.382 71.1647 106.45 70.9248 106.673 70.7425Z" fill="url(#paint55_linear_112_13165)"/>
<path d="M116.111 70.5938C115.856 70.6898 115.649 70.9297 115.652 71.1216C115.655 71.3135 115.871 71.3903 116.126 71.2943C116.381 71.1984 116.586 70.9633 116.583 70.7714C116.583 70.5746 116.374 70.4931 116.111 70.5938Z" fill="#A5C9FF"/>
<path d="M116.111 70.5938C115.856 70.6898 115.649 70.9297 115.652 71.1216C115.655 71.3135 115.871 71.3903 116.126 71.2943C116.381 71.1984 116.586 70.9633 116.583 70.7714C116.583 70.5746 116.374 70.4931 116.111 70.5938Z" fill="url(#paint56_linear_112_13165)"/>
<path d="M113.803 64.961C114.211 65.3304 113.986 66.0789 113.304 66.6403C112.884 66.9857 112.371 67.192 111.932 67.1872C111.681 67.1872 111.47 67.1201 111.327 66.9905C110.919 66.6211 111.139 65.8726 111.826 65.3112C112.512 64.7499 113.392 64.5963 113.803 64.961Z" fill="#A5C9FF"/>
<path d="M113.803 64.961C114.211 65.3304 113.986 66.0789 113.304 66.6403C112.884 66.9857 112.371 67.192 111.932 67.1872C111.681 67.1872 111.47 67.1201 111.327 66.9905C110.919 66.6211 111.139 65.8726 111.826 65.3112C112.512 64.7499 113.392 64.5963 113.803 64.961Z" fill="url(#paint57_linear_112_13165)"/>
<path d="M109.748 68.4972C109.546 68.3149 109.1 68.3917 108.761 68.6699C108.421 68.9482 108.306 69.3273 108.509 69.5096C108.712 69.6919 109.157 69.6151 109.496 69.3369C109.841 69.0586 109.956 68.6795 109.748 68.4972Z" fill="#A5C9FF"/>
<path d="M109.748 68.4972C109.546 68.3149 109.1 68.3917 108.761 68.6699C108.421 68.9482 108.306 69.3273 108.509 69.5096C108.712 69.6919 109.157 69.6151 109.496 69.3369C109.841 69.0586 109.956 68.6795 109.748 68.4972Z" fill="url(#paint58_linear_112_13165)"/>
<path d="M110.756 71.2846C110.919 71.0111 111.28 70.8 111.565 70.8144C111.847 70.8336 111.95 71.0687 111.79 71.347C111.628 71.6205 111.269 71.8268 110.984 71.8124C110.702 71.7932 110.593 71.5581 110.756 71.2846Z" fill="#A5C9FF"/>
<path d="M110.756 71.2846C110.919 71.0111 111.28 70.8 111.565 70.8144C111.847 70.8336 111.95 71.0687 111.79 71.347C111.628 71.6205 111.269 71.8268 110.984 71.8124C110.702 71.7932 110.593 71.5581 110.756 71.2846Z" fill="url(#paint59_linear_112_13165)"/>
<path d="M113.199 67.6813C112.791 67.6573 112.275 67.9595 112.049 68.353C111.819 68.7464 111.968 69.0823 112.378 69.1015C112.789 69.1207 113.303 68.8232 113.528 68.4298C113.755 68.0411 113.609 67.7005 113.199 67.6813Z" fill="#A5C9FF"/>
<path d="M113.199 67.6813C112.791 67.6573 112.275 67.9595 112.049 68.353C111.819 68.7464 111.968 69.0823 112.378 69.1015C112.789 69.1207 113.303 68.8232 113.528 68.4298C113.755 68.0411 113.609 67.7005 113.199 67.6813Z" fill="url(#paint60_linear_112_13165)"/>
<path d="M115.207 69.2648C115.198 68.9673 115.516 68.6027 115.914 68.4491C116.317 68.2956 116.642 68.4203 116.651 68.7178C116.655 69.0153 116.338 69.3799 115.942 69.5287C115.544 69.6822 115.217 69.5623 115.207 69.2648Z" fill="#A5C9FF"/>
<path d="M115.207 69.2648C115.198 68.9673 115.516 68.6027 115.914 68.4491C116.317 68.2956 116.642 68.4203 116.651 68.7178C116.655 69.0153 116.338 69.3799 115.942 69.5287C115.544 69.6822 115.217 69.5623 115.207 69.2648Z" fill="url(#paint61_linear_112_13165)"/>
</g>
</g>
</g>
<path d="M131.956 63.9516C128.43 71.8128 118.492 78.1971 109.75 78.1971C101.008 78.1971 96.7982 71.8128 100.325 63.9516C103.851 56.0905 113.789 49.7061 122.531 49.7061C131.272 49.7061 135.482 56.0905 131.956 63.9516Z" stroke="url(#paint62_linear_112_13165)" stroke-width="1.2"/>
<path d="M116.268 76.9276L117.755 75.5799L120.053 75.2891L118.3 74.5166L118.288 72.9908L116.801 74.3384L114.503 74.6293L116.256 75.4017L116.268 76.9276Z" fill="white"/>
<path d="M130.271 55.3864L130.932 54.7874L131.954 54.6582L131.175 54.3148L131.169 53.6367L130.508 54.2356L129.487 54.3649L130.266 54.7082L130.271 55.3864Z" fill="white"/>
<path d="M129.705 59.0302L130.696 58.1318L132.228 57.9379L131.059 57.423L131.051 56.4057L130.06 57.3042L128.528 57.498L129.696 58.013L129.705 59.0302Z" fill="white"/>
<path d="M99.732 67.0565L100.553 66.3121L101.822 66.1515L100.854 65.7248L100.847 64.882L100.026 65.6264L98.7569 65.787L99.7251 66.2137L99.732 67.0565Z" fill="white"/>
</g>
<path d="M38.4325 114.384C43.0702 126.874 57.7657 136.999 71.2558 136.999C84.7459 136.999 94.351 125.635 89.7133 113.145C85.0756 100.654 68.8688 88.9834 55.3787 88.9834C41.8885 88.9834 33.7948 101.893 38.4325 114.384Z" fill="#4C60C1"/>
<g clip-path="url(#clip11_112_13165)">
<path d="M40.7535 110.199C46.1953 122.33 61.5198 132.164 74.9818 132.164C88.4437 132.164 94.9454 122.33 89.5036 110.199C84.0618 98.0674 68.7373 88.2332 55.2753 88.2332C41.8134 88.2332 35.3117 98.0674 40.7535 110.199Z" fill="#B4974A"/>
<g clip-path="url(#clip12_112_13165)">
<circle cx="23.384" cy="23.384" r="23.384" transform="matrix(1 1.24191e-08 0.409286 0.912406 32.0547 88.8096)" fill="#3250AA"/>
</g>
<path d="M41.5289 110.203C46.7976 121.948 61.6436 131.484 74.7002 131.484C87.7567 131.484 94.0476 121.948 88.779 110.203C83.5103 98.4575 68.6643 88.9216 55.6077 88.9216C42.5511 88.9216 36.2602 98.4575 41.5289 110.203Z" stroke="url(#paint63_linear_112_13165)" stroke-width="1.5"/>
<path d="M71.6314 91.2606L72.9868 93.9138L76.0251 95.5263L73.1849 95.6771L72.365 97.7893L71.0096 95.1362L67.9713 93.5236L70.8115 93.3728L71.6314 91.2606Z" fill="white"/>
<path d="M47.8418 115.669L48.7454 117.437L50.771 118.512L48.8775 118.613L48.3309 120.021L47.4273 118.252L45.4018 117.177L47.2952 117.077L47.8418 115.669Z" fill="white"/>
<path d="M79.736 128.534L80.3384 129.713L81.6888 130.43L80.4265 130.497L80.0621 131.436L79.4597 130.256L78.1093 129.54L79.3716 129.473L79.736 128.534Z" fill="white"/>
<path d="M80.8692 123.176L81.7727 124.945L83.7983 126.02L81.9048 126.12L81.3582 127.529L80.4547 125.76L78.4291 124.685L80.3226 124.584L80.8692 123.176Z" fill="white"/>
<path d="M42.3841 98.0926L42.6853 98.6822L43.3605 99.0406L42.7293 99.0741L42.5472 99.5435L42.246 98.9539L41.5708 98.5955L42.2019 98.562L42.3841 98.0926Z" fill="white"/>
<g clip-path="url(#clip13_112_13165)">
<g clip-path="url(#clip14_112_13165)">
<path d="M58.8859 99.5379C59.3347 99.5584 59.5165 99.2577 59.2974 98.8681C59.0783 98.4785 58.5197 98.1436 58.0665 98.1162C57.6177 98.0957 57.4315 98.3896 57.6506 98.7792C57.8817 99.1756 58.4326 99.5105 58.8859 99.5379Z" fill="#A5C9FF"/>
<path d="M58.8859 99.5379C59.3347 99.5584 59.5165 99.2577 59.2974 98.8681C59.0783 98.4785 58.5197 98.1436 58.0665 98.1162C57.6177 98.0957 57.4315 98.3896 57.6506 98.7792C57.8817 99.1756 58.4326 99.5105 58.8859 99.5379Z" fill="url(#paint64_linear_112_13165)"/>
<path d="M66.3697 99.6337C66.345 99.8934 66.011 99.9686 65.6111 99.7977C65.2188 99.6269 64.9113 99.2783 64.9283 99.0186C64.9573 98.7657 65.2913 98.6905 65.6913 98.8614C66.0913 99.0322 66.3944 99.374 66.3697 99.6337Z" fill="#A5C9FF"/>
<path d="M66.3697 99.6337C66.345 99.8934 66.011 99.9686 65.6111 99.7977C65.2188 99.6269 64.9113 99.2783 64.9283 99.0186C64.9573 98.7657 65.2913 98.6905 65.6913 98.8614C66.0913 99.0322 66.3944 99.374 66.3697 99.6337Z" fill="url(#paint65_linear_112_13165)"/>
<path d="M52.5676 99.8523C52.7857 99.7156 52.689 99.3738 52.3609 99.1004C52.0328 98.827 51.5806 98.7177 51.3624 98.8544C51.1443 98.9911 51.2366 99.326 51.5647 99.5994C51.8971 99.8796 52.3461 99.9958 52.5676 99.8523Z" fill="#A5C9FF"/>
<path d="M52.5676 99.8523C52.7857 99.7156 52.689 99.3738 52.3609 99.1004C52.0328 98.827 51.5806 98.7177 51.3624 98.8544C51.1443 98.9911 51.2366 99.326 51.5647 99.5994C51.8971 99.8796 52.3461 99.9958 52.5676 99.8523Z" fill="url(#paint66_linear_112_13165)"/>
<path d="M62.0953 111.69C60.9977 111.636 59.6586 110.822 59.1109 109.872C58.5775 108.956 58.9661 108.239 59.9903 108.239C61.0561 108.232 62.4148 109.004 63.028 109.961C63.6489 110.918 63.2801 111.69 62.2099 111.69H62.0953Z" fill="#A5C9FF"/>
<path d="M62.0953 111.69C60.9977 111.636 59.6586 110.822 59.1109 109.872C58.5775 108.956 58.9661 108.239 59.9903 108.239C61.0561 108.232 62.4148 109.004 63.028 109.961C63.6489 110.918 63.2801 111.69 62.2099 111.69H62.0953Z" fill="url(#paint67_linear_112_13165)"/>
<path d="M51.3058 109.954C51.124 109.646 51.2688 109.407 51.6259 109.428C51.983 109.448 52.417 109.708 52.5912 110.016C52.7653 110.323 52.6282 110.562 52.2711 110.542C51.9183 110.528 51.4876 110.262 51.3058 109.954Z" fill="#A5C9FF"/>
<path d="M51.3058 109.954C51.124 109.646 51.2688 109.407 51.6259 109.428C51.983 109.448 52.417 109.708 52.5912 110.016C52.7653 110.323 52.6282 110.562 52.2711 110.542C51.9183 110.528 51.4876 110.262 51.3058 109.954Z" fill="url(#paint68_linear_112_13165)"/>
<path d="M56.1694 101.752C56.6779 102.176 56.8197 102.695 56.4816 102.907C56.1434 103.119 55.453 102.948 54.9445 102.525C54.4359 102.101 54.2942 101.581 54.6323 101.369C54.9704 101.158 55.6609 101.328 56.1694 101.752Z" fill="#A5C9FF"/>
<path d="M56.1694 101.752C56.6779 102.176 56.8197 102.695 56.4816 102.907C56.1434 103.119 55.453 102.948 54.9445 102.525C54.4359 102.101 54.2942 101.581 54.6323 101.369C54.9704 101.158 55.6609 101.328 56.1694 101.752Z" fill="url(#paint69_linear_112_13165)"/>
<path d="M51.2371 105.006C51.7398 105.218 52.1721 105.129 52.2064 104.801C52.2332 104.473 51.8535 104.035 51.3464 103.816C50.8437 103.605 50.4115 103.693 50.3771 104.022C50.3427 104.35 50.7345 104.794 51.2371 105.006Z" fill="#A5C9FF"/>
<path d="M51.2371 105.006C51.7398 105.218 52.1721 105.129 52.2064 104.801C52.2332 104.473 51.8535 104.035 51.3464 103.816C50.8437 103.605 50.4115 103.693 50.3771 104.022C50.3427 104.35 50.7345 104.794 51.2371 105.006Z" fill="url(#paint70_linear_112_13165)"/>
<path d="M54.5485 109.934C54.2725 109.455 54.4913 109.093 55.0439 109.12C55.5965 109.148 56.2644 109.558 56.5361 110.029C56.8121 110.508 56.5933 110.87 56.0407 110.843C55.4881 110.815 54.8245 110.412 54.5485 109.934Z" fill="#A5C9FF"/>
<path d="M54.5485 109.934C54.2725 109.455 54.4913 109.093 55.0439 109.12C55.5965 109.148 56.2644 109.558 56.5361 110.029C56.8121 110.508 56.5933 110.87 56.0407 110.843C55.4881 110.815 54.8245 110.412 54.5485 109.934Z" fill="url(#paint71_linear_112_13165)"/>
<path d="M57.6914 114.909C57.4155 115.087 57.5265 115.511 57.953 115.866C58.3751 116.215 58.941 116.358 59.2246 116.181C59.5006 116.003 59.3895 115.579 58.963 115.224C58.5409 114.875 57.9674 114.732 57.6914 114.909Z" fill="#A5C9FF"/>
<path d="M57.6914 114.909C57.4155 115.087 57.5265 115.511 57.953 115.866C58.3751 116.215 58.941 116.358 59.2246 116.181C59.5006 116.003 59.3895 115.579 58.963 115.224C58.5409 114.875 57.9674 114.732 57.6914 114.909Z" fill="url(#paint72_linear_112_13165)"/>
<path d="M57.962 107.042C57.9279 107.514 57.3079 107.644 56.5834 107.336C55.8588 107.029 55.3106 106.4 55.3568 105.935C55.3909 105.464 56.0109 105.334 56.7354 105.641C57.4555 105.942 58.0037 106.571 57.962 107.042Z" fill="#A5C9FF"/>
<path d="M57.962 107.042C57.9279 107.514 57.3079 107.644 56.5834 107.336C55.8588 107.029 55.3106 106.4 55.3568 105.935C55.3909 105.464 56.0109 105.334 56.7354 105.641C57.4555 105.942 58.0037 106.571 57.962 107.042Z" fill="url(#paint73_linear_112_13165)"/>
<path d="M65.5876 102.839C66.1974 103.099 66.7312 102.989 66.7676 102.593C66.804 102.196 66.3357 101.656 65.7259 101.397C65.1161 101.137 64.5824 101.246 64.5459 101.643C64.5062 102.046 64.9702 102.579 65.5876 102.839Z" fill="#A5C9FF"/>
<path d="M65.5876 102.839C66.1974 103.099 66.7312 102.989 66.7676 102.593C66.804 102.196 66.3357 101.656 65.7259 101.397C65.1161 101.137 64.5824 101.246 64.5459 101.643C64.5062 102.046 64.9702 102.579 65.5876 102.839Z" fill="url(#paint74_linear_112_13165)"/>
<path d="M69.1841 108.225C68.0866 108.17 67.638 108.901 68.1933 109.851C68.741 110.801 70.0845 111.621 71.1777 111.669H71.2847C72.3472 111.669 72.716 110.897 72.1028 109.94C71.5278 109.031 70.2391 108.272 69.1841 108.225Z" fill="#A5C9FF"/>
<path d="M69.1841 108.225C68.0866 108.17 67.638 108.901 68.1933 109.851C68.741 110.801 70.0845 111.621 71.1777 111.669H71.2847C72.3472 111.669 72.716 110.897 72.1028 109.94C71.5278 109.031 70.2391 108.272 69.1841 108.225Z" fill="url(#paint75_linear_112_13165)"/>
<path d="M62.2119 108.163C61.4781 108.163 60.5765 107.794 59.8755 107.213C58.8509 106.366 58.5673 105.327 59.2424 104.889C59.9143 104.459 61.2952 104.801 62.3242 105.655C62.6195 105.901 62.8591 106.167 63.0299 106.434C63.6432 107.391 63.2744 108.163 62.2119 108.163Z" fill="#A5C9FF"/>
<path d="M62.2119 108.163C61.4781 108.163 60.5765 107.794 59.8755 107.213C58.8509 106.366 58.5673 105.327 59.2424 104.889C59.9143 104.459 61.2952 104.801 62.3242 105.655C62.6195 105.901 62.8591 106.167 63.0299 106.434C63.6432 107.391 63.2744 108.163 62.2119 108.163Z" fill="url(#paint76_linear_112_13165)"/>
<path d="M73.5877 105.006C73.8637 104.828 73.7406 104.397 73.3185 104.049C72.8964 103.7 72.3272 103.563 72.0513 103.741C71.7753 103.919 71.894 104.343 72.3085 104.691C72.7382 105.04 73.3041 105.183 73.5877 105.006Z" fill="#A5C9FF"/>
<path d="M73.5877 105.006C73.8637 104.828 73.7406 104.397 73.3185 104.049C72.8964 103.7 72.3272 103.563 72.0513 103.741C71.7753 103.919 71.894 104.343 72.3085 104.691C72.7382 105.04 73.3041 105.183 73.5877 105.006Z" fill="url(#paint77_linear_112_13165)"/>
<path d="M69.4134 106.913C68.8108 106.414 68.6503 105.805 69.0463 105.552C69.4466 105.306 70.2539 105.505 70.8565 106.003C71.459 106.502 71.6195 107.111 71.2236 107.364C70.8277 107.616 70.016 107.411 69.4134 106.913Z" fill="#A5C9FF"/>
<path d="M69.4134 106.913C68.8108 106.414 68.6503 105.805 69.0463 105.552C69.4466 105.306 70.2539 105.505 70.8565 106.003C71.459 106.502 71.6195 107.111 71.2236 107.364C70.8277 107.616 70.016 107.411 69.4134 106.913Z" fill="url(#paint78_linear_112_13165)"/>
<path d="M62.3179 103.044C62.6465 103.605 62.3874 104.035 61.7387 104.001C61.0944 103.974 60.3139 103.495 59.9853 102.935C59.6567 102.374 59.9158 101.944 60.5645 101.978C61.2088 102.005 61.997 102.484 62.3179 103.044Z" fill="#A5C9FF"/>
<path d="M62.3179 103.044C62.6465 103.605 62.3874 104.035 61.7387 104.001C61.0944 103.974 60.3139 103.495 59.9853 102.935C59.6567 102.374 59.9158 101.944 60.5645 101.978C61.2088 102.005 61.997 102.484 62.3179 103.044Z" fill="url(#paint79_linear_112_13165)"/>
<path d="M62.2333 114.363C62.6293 114.11 62.4688 113.501 61.8662 113.002C61.2636 112.504 60.4519 112.298 60.056 112.551C59.6601 112.804 59.8206 113.413 60.4231 113.911C61.0257 114.41 61.8374 114.615 62.2333 114.363Z" fill="#A5C9FF"/>
<path d="M62.2333 114.363C62.6293 114.11 62.4688 113.501 61.8662 113.002C61.2636 112.504 60.4519 112.298 60.056 112.551C59.6601 112.804 59.8206 113.413 60.4231 113.911C61.0257 114.41 61.8374 114.615 62.2333 114.363Z" fill="url(#paint80_linear_112_13165)"/>
<path d="M65.5094 107.869C64.2822 107.35 63.3543 106.284 63.4228 105.484C63.471 104.999 63.8866 104.705 64.5363 104.705C64.9108 104.705 65.339 104.801 65.7707 104.985C66.9979 105.505 67.9258 106.571 67.8573 107.371C67.7889 108.17 66.7366 108.389 65.5094 107.869Z" fill="#A5C9FF"/>
<path d="M65.5094 107.869C64.2822 107.35 63.3543 106.284 63.4228 105.484C63.471 104.999 63.8866 104.705 64.5363 104.705C64.9108 104.705 65.339 104.801 65.7707 104.985C66.9979 105.505 67.9258 106.571 67.8573 107.371C67.7889 108.17 66.7366 108.389 65.5094 107.869Z" fill="url(#paint81_linear_112_13165)"/>
<path d="M71.4043 112.702C70.3752 111.848 68.9944 111.506 68.3225 111.936C67.643 112.367 67.9266 113.406 68.9512 114.253C69.9803 115.108 71.3612 115.45 72.0331 115.019C72.7093 114.595 72.4421 113.57 71.4207 112.716C71.4163 112.709 71.4163 112.709 71.4043 112.702Z" fill="#A5C9FF"/>
<path d="M71.4043 112.702C70.3752 111.848 68.9944 111.506 68.3225 111.936C67.643 112.367 67.9266 113.406 68.9512 114.253C69.9803 115.108 71.3612 115.45 72.0331 115.019C72.7093 114.595 72.4421 113.57 71.4207 112.716C71.4163 112.709 71.4163 112.709 71.4043 112.702Z" fill="url(#paint82_linear_112_13165)"/>
<path d="M73.3167 112.873C73.3508 112.401 73.9708 112.271 74.6954 112.579C75.4199 112.886 75.9681 113.515 75.922 113.98C75.8879 114.452 75.2678 114.581 74.5433 114.274C73.8232 113.973 73.275 113.344 73.3167 112.873Z" fill="#A5C9FF"/>
<path d="M73.3167 112.873C73.3508 112.401 73.9708 112.271 74.6954 112.579C75.4199 112.886 75.9681 113.515 75.922 113.98C75.8879 114.452 75.2678 114.581 74.5433 114.274C73.8232 113.973 73.275 113.344 73.3167 112.873Z" fill="url(#paint83_linear_112_13165)"/>
<path d="M76.7353 109.988C76.4593 109.51 75.7957 109.107 75.2431 109.079C74.6905 109.052 74.4717 109.414 74.7477 109.893C75.0238 110.371 75.6873 110.774 76.2399 110.802C76.7848 110.829 77.0069 110.46 76.7353 109.988Z" fill="#A5C9FF"/>
<path d="M76.7353 109.988C76.4593 109.51 75.7957 109.107 75.2431 109.079C74.6905 109.052 74.4717 109.414 74.7477 109.893C75.0238 110.371 75.6873 110.774 76.2399 110.802C76.7848 110.829 77.0069 110.46 76.7353 109.988Z" fill="url(#paint84_linear_112_13165)"/>
<path d="M78.6886 109.899C78.5068 109.592 78.6516 109.353 79.0087 109.373C79.3658 109.394 79.7922 109.653 79.974 109.961C80.1481 110.268 80.011 110.508 79.6539 110.487C79.3011 110.473 78.8704 110.207 78.6886 109.899Z" fill="#A5C9FF"/>
<path d="M78.6886 109.899C78.5068 109.592 78.6516 109.353 79.0087 109.373C79.3658 109.394 79.7922 109.653 79.974 109.961C80.1481 110.268 80.011 110.508 79.6539 110.487C79.3011 110.473 78.8704 110.207 78.6886 109.899Z" fill="url(#paint85_linear_112_13165)"/>
<path d="M80.0422 114.909C79.5396 114.698 79.1073 114.786 79.0729 115.115C79.0462 115.443 79.4259 115.88 79.933 116.099C80.4357 116.311 80.8679 116.222 80.9023 115.894C80.9366 115.566 80.5449 115.121 80.0422 114.909Z" fill="#A5C9FF"/>
<path d="M80.0422 114.909C79.5396 114.698 79.1073 114.786 79.0729 115.115C79.0462 115.443 79.4259 115.88 79.933 116.099C80.4357 116.311 80.8679 116.222 80.9023 115.894C80.9366 115.566 80.5449 115.121 80.0422 114.909Z" fill="url(#paint86_linear_112_13165)"/>
<path d="M64.8978 120.275C64.9269 120.022 65.2609 119.947 65.6608 120.117C66.0608 120.288 66.3683 120.637 66.3316 120.89C66.3026 121.143 65.9685 121.218 65.5686 121.047C65.1763 120.876 64.8732 120.534 64.8978 120.275Z" fill="#A5C9FF"/>
<path d="M64.8978 120.275C64.9269 120.022 65.2609 119.947 65.6608 120.117C66.0608 120.288 66.3683 120.637 66.3316 120.89C66.3026 121.143 65.9685 121.218 65.5686 121.047C65.1763 120.876 64.8732 120.534 64.8978 120.275Z" fill="url(#paint87_linear_112_13165)"/>
<path d="M78.7119 120.063C78.4937 120.2 78.5904 120.541 78.9185 120.815C79.2466 121.088 79.6989 121.197 79.917 121.061C80.1352 120.924 80.0428 120.589 79.7148 120.316C79.3823 120.036 78.9333 119.919 78.7119 120.063Z" fill="#A5C9FF"/>
<path d="M78.7119 120.063C78.4937 120.2 78.5904 120.541 78.9185 120.815C79.2466 121.088 79.6989 121.197 79.917 121.061C80.1352 120.924 80.0428 120.589 79.7148 120.316C79.3823 120.036 78.9333 119.919 78.7119 120.063Z" fill="url(#paint88_linear_112_13165)"/>
<path d="M65.7659 112.039C66.9975 112.565 67.9254 113.631 67.8569 114.431C67.813 114.923 67.3975 115.217 66.7357 115.21C66.3612 115.21 65.933 115.114 65.5013 114.93C64.2697 114.404 63.3342 113.337 63.4103 112.538C63.4864 111.738 64.5387 111.519 65.7659 112.039Z" fill="#A5C9FF"/>
<path d="M65.7659 112.039C66.9975 112.565 67.9254 113.631 67.8569 114.431C67.813 114.923 67.3975 115.217 66.7357 115.21C66.3612 115.21 65.933 115.114 65.5013 114.93C64.2697 114.404 63.3342 113.337 63.4103 112.538C63.4864 111.738 64.5387 111.519 65.7659 112.039Z" fill="url(#paint89_linear_112_13165)"/>
<path d="M65.6923 117.076C65.0825 116.817 64.5487 116.926 64.5123 117.322C64.4759 117.719 64.9442 118.259 65.554 118.518C66.1637 118.778 66.6975 118.669 66.7339 118.272C66.778 117.876 66.3097 117.336 65.6923 117.076Z" fill="#A5C9FF"/>
<path d="M65.6923 117.076C65.0825 116.817 64.5487 116.926 64.5123 117.322C64.4759 117.719 64.9442 118.259 65.554 118.518C66.1637 118.778 66.6975 118.669 66.7339 118.272C66.778 117.876 66.3097 117.336 65.6923 117.076Z" fill="url(#paint90_linear_112_13165)"/>
<path d="M71.8979 121.047C71.6788 120.657 71.8606 120.357 72.3095 120.377C72.7627 120.405 73.3136 120.739 73.5448 121.136C73.7638 121.525 73.5776 121.819 73.1288 121.799C72.6756 121.772 72.117 121.437 71.8979 121.047Z" fill="#A5C9FF"/>
<path d="M71.8979 121.047C71.6788 120.657 71.8606 120.357 72.3095 120.377C72.7627 120.405 73.3136 120.739 73.5448 121.136C73.7638 121.525 73.5776 121.819 73.1288 121.799C72.6756 121.772 72.117 121.437 71.8979 121.047Z" fill="url(#paint91_linear_112_13165)"/>
<path d="M69.4568 115.914C68.8081 115.88 68.549 116.31 68.8776 116.871C69.1986 117.431 69.9867 117.91 70.631 117.937C71.2753 117.964 71.5388 117.541 71.2103 116.98C70.8937 116.427 70.1011 115.941 69.4568 115.914Z" fill="#A5C9FF"/>
<path d="M69.4568 115.914C68.8081 115.88 68.549 116.31 68.8776 116.871C69.1986 117.431 69.9867 117.91 70.631 117.937C71.2753 117.964 71.5388 117.541 71.2103 116.98C70.8937 116.427 70.1011 115.941 69.4568 115.914Z" fill="url(#paint92_linear_112_13165)"/>
<path d="M75.1217 118.17C74.6056 117.746 74.4638 117.226 74.7975 117.008C75.1389 116.789 75.8337 116.967 76.3499 117.391C76.8584 117.814 77.0002 118.334 76.6621 118.546C76.3283 118.764 75.6379 118.593 75.1217 118.17Z" fill="#A5C9FF"/>
<path d="M75.1217 118.17C74.6056 117.746 74.4638 117.226 74.7975 117.008C75.1389 116.789 75.8337 116.967 76.3499 117.391C76.8584 117.814 77.0002 118.334 76.6621 118.546C76.3283 118.764 75.6379 118.593 75.1217 118.17Z" fill="url(#paint93_linear_112_13165)"/>
</g>
</g>
</g>
<defs>
<linearGradient id="paint0_linear_112_13165" x1="78.9414" y1="194.47" x2="200.511" y2="393.523" gradientUnits="userSpaceOnUse">
<stop stop-color="#2A2E51"/>
<stop offset="1" stop-color="#43487B"/>
</linearGradient>
<linearGradient id="paint1_linear_112_13165" x1="191.587" y1="26.6947" x2="210.591" y2="51.2224" gradientUnits="userSpaceOnUse">
<stop stop-color="#557EF7"/>
<stop offset="1" stop-color="#868FDF"/>
</linearGradient>
<linearGradient id="paint2_linear_112_13165" x1="191.587" y1="26.6947" x2="210.591" y2="51.2224" gradientUnits="userSpaceOnUse">
<stop stop-color="#557EF7"/>
<stop offset="1" stop-color="#868FDF"/>
</linearGradient>
<linearGradient id="paint3_linear_112_13165" x1="191.587" y1="26.6947" x2="210.591" y2="51.2224" gradientUnits="userSpaceOnUse">
<stop stop-color="#557EF7"/>
<stop offset="1" stop-color="#868FDF"/>
</linearGradient>
<linearGradient id="paint4_linear_112_13165" x1="191.587" y1="26.6947" x2="210.591" y2="51.2224" gradientUnits="userSpaceOnUse">
<stop stop-color="#557EF7"/>
<stop offset="1" stop-color="#868FDF"/>
</linearGradient>
<linearGradient id="paint5_linear_112_13165" x1="191.587" y1="26.6947" x2="210.591" y2="51.2224" gradientUnits="userSpaceOnUse">
<stop stop-color="#557EF7"/>
<stop offset="1" stop-color="#868FDF"/>
</linearGradient>
<linearGradient id="paint6_linear_112_13165" x1="191.587" y1="26.6947" x2="210.591" y2="51.2224" gradientUnits="userSpaceOnUse">
<stop stop-color="#557EF7"/>
<stop offset="1" stop-color="#868FDF"/>
</linearGradient>
<linearGradient id="paint7_linear_112_13165" x1="191.587" y1="26.6947" x2="210.591" y2="51.2224" gradientUnits="userSpaceOnUse">
<stop stop-color="#557EF7"/>
<stop offset="1" stop-color="#868FDF"/>
</linearGradient>
<linearGradient id="paint8_linear_112_13165" x1="191.587" y1="26.6947" x2="210.591" y2="51.2224" gradientUnits="userSpaceOnUse">
<stop stop-color="#557EF7"/>
<stop offset="1" stop-color="#868FDF"/>
</linearGradient>
<linearGradient id="paint9_linear_112_13165" x1="191.587" y1="26.6947" x2="210.591" y2="51.2224" gradientUnits="userSpaceOnUse">
<stop stop-color="#557EF7"/>
<stop offset="1" stop-color="#868FDF"/>
</linearGradient>
<linearGradient id="paint10_linear_112_13165" x1="191.587" y1="26.6947" x2="210.591" y2="51.2224" gradientUnits="userSpaceOnUse">
<stop stop-color="#557EF7"/>
<stop offset="1" stop-color="#868FDF"/>
</linearGradient>
<linearGradient id="paint11_linear_112_13165" x1="191.587" y1="26.6947" x2="210.591" y2="51.2224" gradientUnits="userSpaceOnUse">
<stop stop-color="#557EF7"/>
<stop offset="1" stop-color="#868FDF"/>
</linearGradient>
<linearGradient id="paint12_linear_112_13165" x1="191.587" y1="26.6947" x2="210.591" y2="51.2224" gradientUnits="userSpaceOnUse">
<stop stop-color="#557EF7"/>
<stop offset="1" stop-color="#868FDF"/>
</linearGradient>
<linearGradient id="paint13_linear_112_13165" x1="191.587" y1="26.6947" x2="210.591" y2="51.2224" gradientUnits="userSpaceOnUse">
<stop stop-color="#557EF7"/>
<stop offset="1" stop-color="#868FDF"/>
</linearGradient>
<linearGradient id="paint14_linear_112_13165" x1="191.587" y1="26.6947" x2="210.591" y2="51.2224" gradientUnits="userSpaceOnUse">
<stop stop-color="#557EF7"/>
<stop offset="1" stop-color="#868FDF"/>
</linearGradient>
<linearGradient id="paint15_linear_112_13165" x1="191.587" y1="26.6947" x2="210.591" y2="51.2224" gradientUnits="userSpaceOnUse">
<stop stop-color="#557EF7"/>
<stop offset="1" stop-color="#868FDF"/>
</linearGradient>
<linearGradient id="paint16_linear_112_13165" x1="191.587" y1="26.6947" x2="210.591" y2="51.2224" gradientUnits="userSpaceOnUse">
<stop stop-color="#557EF7"/>
<stop offset="1" stop-color="#868FDF"/>
</linearGradient>
<linearGradient id="paint17_linear_112_13165" x1="191.587" y1="26.6947" x2="210.591" y2="51.2224" gradientUnits="userSpaceOnUse">
<stop stop-color="#557EF7"/>
<stop offset="1" stop-color="#868FDF"/>
</linearGradient>
<linearGradient id="paint18_linear_112_13165" x1="191.587" y1="26.6947" x2="210.591" y2="51.2224" gradientUnits="userSpaceOnUse">
<stop stop-color="#557EF7"/>
<stop offset="1" stop-color="#868FDF"/>
</linearGradient>
<linearGradient id="paint19_linear_112_13165" x1="191.587" y1="26.6947" x2="210.591" y2="51.2224" gradientUnits="userSpaceOnUse">
<stop stop-color="#557EF7"/>
<stop offset="1" stop-color="#868FDF"/>
</linearGradient>
<linearGradient id="paint20_linear_112_13165" x1="191.587" y1="26.6947" x2="210.591" y2="51.2224" gradientUnits="userSpaceOnUse">
<stop stop-color="#557EF7"/>
<stop offset="1" stop-color="#868FDF"/>
</linearGradient>
<linearGradient id="paint21_linear_112_13165" x1="191.587" y1="26.6947" x2="210.591" y2="51.2224" gradientUnits="userSpaceOnUse">
<stop stop-color="#557EF7"/>
<stop offset="1" stop-color="#868FDF"/>
</linearGradient>
<linearGradient id="paint22_linear_112_13165" x1="191.587" y1="26.6947" x2="210.591" y2="51.2224" gradientUnits="userSpaceOnUse">
<stop stop-color="#557EF7"/>
<stop offset="1" stop-color="#868FDF"/>
</linearGradient>
<linearGradient id="paint23_linear_112_13165" x1="191.587" y1="26.6947" x2="210.591" y2="51.2224" gradientUnits="userSpaceOnUse">
<stop stop-color="#557EF7"/>
<stop offset="1" stop-color="#868FDF"/>
</linearGradient>
<linearGradient id="paint24_linear_112_13165" x1="191.587" y1="26.6947" x2="210.591" y2="51.2224" gradientUnits="userSpaceOnUse">
<stop stop-color="#557EF7"/>
<stop offset="1" stop-color="#868FDF"/>
</linearGradient>
<linearGradient id="paint25_linear_112_13165" x1="191.587" y1="26.6947" x2="210.591" y2="51.2224" gradientUnits="userSpaceOnUse">
<stop stop-color="#557EF7"/>
<stop offset="1" stop-color="#868FDF"/>
</linearGradient>
<linearGradient id="paint26_linear_112_13165" x1="191.587" y1="26.6947" x2="210.591" y2="51.2224" gradientUnits="userSpaceOnUse">
<stop stop-color="#557EF7"/>
<stop offset="1" stop-color="#868FDF"/>
</linearGradient>
<linearGradient id="paint27_linear_112_13165" x1="191.587" y1="26.6947" x2="210.591" y2="51.2224" gradientUnits="userSpaceOnUse">
<stop stop-color="#557EF7"/>
<stop offset="1" stop-color="#868FDF"/>
</linearGradient>
<linearGradient id="paint28_linear_112_13165" x1="191.587" y1="26.6947" x2="210.591" y2="51.2224" gradientUnits="userSpaceOnUse">
<stop stop-color="#557EF7"/>
<stop offset="1" stop-color="#868FDF"/>
</linearGradient>
<linearGradient id="paint29_linear_112_13165" x1="191.587" y1="26.6947" x2="210.591" y2="51.2224" gradientUnits="userSpaceOnUse">
<stop stop-color="#557EF7"/>
<stop offset="1" stop-color="#868FDF"/>
</linearGradient>
<linearGradient id="paint30_linear_112_13165" x1="191.587" y1="26.6947" x2="210.591" y2="51.2224" gradientUnits="userSpaceOnUse">
<stop stop-color="#557EF7"/>
<stop offset="1" stop-color="#868FDF"/>
</linearGradient>
<linearGradient id="paint31_linear_112_13165" x1="208.602" y1="10.0001" x2="194.281" y2="68.3059" gradientUnits="userSpaceOnUse">
<stop stop-color="#557EF7"/>
<stop offset="1" stop-color="#868FDF"/>
</linearGradient>
<linearGradient id="paint32_linear_112_13165" x1="115.684" y1="56.0023" x2="119.886" y2="69.9394" gradientUnits="userSpaceOnUse">
<stop stop-color="#557EF7"/>
<stop offset="1" stop-color="#868FDF"/>
</linearGradient>
<linearGradient id="paint33_linear_112_13165" x1="115.684" y1="56.0023" x2="119.886" y2="69.9394" gradientUnits="userSpaceOnUse">
<stop stop-color="#557EF7"/>
<stop offset="1" stop-color="#868FDF"/>
</linearGradient>
<linearGradient id="paint34_linear_112_13165" x1="115.684" y1="56.0023" x2="119.886" y2="69.9394" gradientUnits="userSpaceOnUse">
<stop stop-color="#557EF7"/>
<stop offset="1" stop-color="#868FDF"/>
</linearGradient>
<linearGradient id="paint35_linear_112_13165" x1="115.684" y1="56.0023" x2="119.886" y2="69.9394" gradientUnits="userSpaceOnUse">
<stop stop-color="#557EF7"/>
<stop offset="1" stop-color="#868FDF"/>
</linearGradient>
<linearGradient id="paint36_linear_112_13165" x1="115.684" y1="56.0023" x2="119.886" y2="69.9394" gradientUnits="userSpaceOnUse">
<stop stop-color="#557EF7"/>
<stop offset="1" stop-color="#868FDF"/>
</linearGradient>
<linearGradient id="paint37_linear_112_13165" x1="115.684" y1="56.0023" x2="119.886" y2="69.9394" gradientUnits="userSpaceOnUse">
<stop stop-color="#557EF7"/>
<stop offset="1" stop-color="#868FDF"/>
</linearGradient>
<linearGradient id="paint38_linear_112_13165" x1="115.684" y1="56.0023" x2="119.886" y2="69.9394" gradientUnits="userSpaceOnUse">
<stop stop-color="#557EF7"/>
<stop offset="1" stop-color="#868FDF"/>
</linearGradient>
<linearGradient id="paint39_linear_112_13165" x1="115.684" y1="56.0023" x2="119.886" y2="69.9394" gradientUnits="userSpaceOnUse">
<stop stop-color="#557EF7"/>
<stop offset="1" stop-color="#868FDF"/>
</linearGradient>
<linearGradient id="paint40_linear_112_13165" x1="115.684" y1="56.0023" x2="119.886" y2="69.9394" gradientUnits="userSpaceOnUse">
<stop stop-color="#557EF7"/>
<stop offset="1" stop-color="#868FDF"/>
</linearGradient>
<linearGradient id="paint41_linear_112_13165" x1="115.684" y1="56.0023" x2="119.886" y2="69.9394" gradientUnits="userSpaceOnUse">
<stop stop-color="#557EF7"/>
<stop offset="1" stop-color="#868FDF"/>
</linearGradient>
<linearGradient id="paint42_linear_112_13165" x1="115.684" y1="56.0023" x2="119.886" y2="69.9394" gradientUnits="userSpaceOnUse">
<stop stop-color="#557EF7"/>
<stop offset="1" stop-color="#868FDF"/>
</linearGradient>
<linearGradient id="paint43_linear_112_13165" x1="115.684" y1="56.0023" x2="119.886" y2="69.9394" gradientUnits="userSpaceOnUse">
<stop stop-color="#557EF7"/>
<stop offset="1" stop-color="#868FDF"/>
</linearGradient>
<linearGradient id="paint44_linear_112_13165" x1="115.684" y1="56.0023" x2="119.886" y2="69.9394" gradientUnits="userSpaceOnUse">
<stop stop-color="#557EF7"/>
<stop offset="1" stop-color="#868FDF"/>
</linearGradient>
<linearGradient id="paint45_linear_112_13165" x1="115.684" y1="56.0023" x2="119.886" y2="69.9394" gradientUnits="userSpaceOnUse">
<stop stop-color="#557EF7"/>
<stop offset="1" stop-color="#868FDF"/>
</linearGradient>
<linearGradient id="paint46_linear_112_13165" x1="115.684" y1="56.0023" x2="119.886" y2="69.9394" gradientUnits="userSpaceOnUse">
<stop stop-color="#557EF7"/>
<stop offset="1" stop-color="#868FDF"/>
</linearGradient>
<linearGradient id="paint47_linear_112_13165" x1="115.684" y1="56.0023" x2="119.886" y2="69.9394" gradientUnits="userSpaceOnUse">
<stop stop-color="#557EF7"/>
<stop offset="1" stop-color="#868FDF"/>
</linearGradient>
<linearGradient id="paint48_linear_112_13165" x1="115.684" y1="56.0023" x2="119.886" y2="69.9394" gradientUnits="userSpaceOnUse">
<stop stop-color="#557EF7"/>
<stop offset="1" stop-color="#868FDF"/>
</linearGradient>
<linearGradient id="paint49_linear_112_13165" x1="115.684" y1="56.0023" x2="119.886" y2="69.9394" gradientUnits="userSpaceOnUse">
<stop stop-color="#557EF7"/>
<stop offset="1" stop-color="#868FDF"/>
</linearGradient>
<linearGradient id="paint50_linear_112_13165" x1="115.684" y1="56.0023" x2="119.886" y2="69.9394" gradientUnits="userSpaceOnUse">
<stop stop-color="#557EF7"/>
<stop offset="1" stop-color="#868FDF"/>
</linearGradient>
<linearGradient id="paint51_linear_112_13165" x1="115.684" y1="56.0023" x2="119.886" y2="69.9394" gradientUnits="userSpaceOnUse">
<stop stop-color="#557EF7"/>
<stop offset="1" stop-color="#868FDF"/>
</linearGradient>
<linearGradient id="paint52_linear_112_13165" x1="115.684" y1="56.0023" x2="119.886" y2="69.9394" gradientUnits="userSpaceOnUse">
<stop stop-color="#557EF7"/>
<stop offset="1" stop-color="#868FDF"/>
</linearGradient>
<linearGradient id="paint53_linear_112_13165" x1="115.684" y1="56.0023" x2="119.886" y2="69.9394" gradientUnits="userSpaceOnUse">
<stop stop-color="#557EF7"/>
<stop offset="1" stop-color="#868FDF"/>
</linearGradient>
<linearGradient id="paint54_linear_112_13165" x1="115.684" y1="56.0023" x2="119.886" y2="69.9394" gradientUnits="userSpaceOnUse">
<stop stop-color="#557EF7"/>
<stop offset="1" stop-color="#868FDF"/>
</linearGradient>
<linearGradient id="paint55_linear_112_13165" x1="115.684" y1="56.0023" x2="119.886" y2="69.9394" gradientUnits="userSpaceOnUse">
<stop stop-color="#557EF7"/>
<stop offset="1" stop-color="#868FDF"/>
</linearGradient>
<linearGradient id="paint56_linear_112_13165" x1="115.684" y1="56.0023" x2="119.886" y2="69.9394" gradientUnits="userSpaceOnUse">
<stop stop-color="#557EF7"/>
<stop offset="1" stop-color="#868FDF"/>
</linearGradient>
<linearGradient id="paint57_linear_112_13165" x1="115.684" y1="56.0023" x2="119.886" y2="69.9394" gradientUnits="userSpaceOnUse">
<stop stop-color="#557EF7"/>
<stop offset="1" stop-color="#868FDF"/>
</linearGradient>
<linearGradient id="paint58_linear_112_13165" x1="115.684" y1="56.0023" x2="119.886" y2="69.9394" gradientUnits="userSpaceOnUse">
<stop stop-color="#557EF7"/>
<stop offset="1" stop-color="#868FDF"/>
</linearGradient>
<linearGradient id="paint59_linear_112_13165" x1="115.684" y1="56.0023" x2="119.886" y2="69.9394" gradientUnits="userSpaceOnUse">
<stop stop-color="#557EF7"/>
<stop offset="1" stop-color="#868FDF"/>
</linearGradient>
<linearGradient id="paint60_linear_112_13165" x1="115.684" y1="56.0023" x2="119.886" y2="69.9394" gradientUnits="userSpaceOnUse">
<stop stop-color="#557EF7"/>
<stop offset="1" stop-color="#868FDF"/>
</linearGradient>
<linearGradient id="paint61_linear_112_13165" x1="115.684" y1="56.0023" x2="119.886" y2="69.9394" gradientUnits="userSpaceOnUse">
<stop stop-color="#557EF7"/>
<stop offset="1" stop-color="#868FDF"/>
</linearGradient>
<linearGradient id="paint62_linear_112_13165" x1="116.002" y1="50.6099" x2="123.968" y2="75.5543" gradientUnits="userSpaceOnUse">
<stop stop-color="#557EF7"/>
<stop offset="1" stop-color="#868FDF"/>
</linearGradient>
<linearGradient id="paint63_linear_112_13165" x1="65.3586" y1="90.3922" x2="53.5311" y2="127.431" gradientUnits="userSpaceOnUse">
<stop stop-color="#557EF7"/>
<stop offset="1" stop-color="#868FDF"/>
</linearGradient>
<linearGradient id="paint64_linear_112_13165" x1="59.2511" y1="99.277" x2="67.8396" y2="122.862" gradientUnits="userSpaceOnUse">
<stop stop-color="#557EF7"/>
<stop offset="1" stop-color="#868FDF"/>
</linearGradient>
<linearGradient id="paint65_linear_112_13165" x1="59.2511" y1="99.277" x2="67.8396" y2="122.862" gradientUnits="userSpaceOnUse">
<stop stop-color="#557EF7"/>
<stop offset="1" stop-color="#868FDF"/>
</linearGradient>
<linearGradient id="paint66_linear_112_13165" x1="59.2511" y1="99.277" x2="67.8396" y2="122.862" gradientUnits="userSpaceOnUse">
<stop stop-color="#557EF7"/>
<stop offset="1" stop-color="#868FDF"/>
</linearGradient>
<linearGradient id="paint67_linear_112_13165" x1="59.2511" y1="99.277" x2="67.8396" y2="122.862" gradientUnits="userSpaceOnUse">
<stop stop-color="#557EF7"/>
<stop offset="1" stop-color="#868FDF"/>
</linearGradient>
<linearGradient id="paint68_linear_112_13165" x1="59.2511" y1="99.277" x2="67.8396" y2="122.862" gradientUnits="userSpaceOnUse">
<stop stop-color="#557EF7"/>
<stop offset="1" stop-color="#868FDF"/>
</linearGradient>
<linearGradient id="paint69_linear_112_13165" x1="59.2511" y1="99.277" x2="67.8396" y2="122.862" gradientUnits="userSpaceOnUse">
<stop stop-color="#557EF7"/>
<stop offset="1" stop-color="#868FDF"/>
</linearGradient>
<linearGradient id="paint70_linear_112_13165" x1="59.2511" y1="99.277" x2="67.8396" y2="122.862" gradientUnits="userSpaceOnUse">
<stop stop-color="#557EF7"/>
<stop offset="1" stop-color="#868FDF"/>
</linearGradient>
<linearGradient id="paint71_linear_112_13165" x1="59.2511" y1="99.277" x2="67.8396" y2="122.862" gradientUnits="userSpaceOnUse">
<stop stop-color="#557EF7"/>
<stop offset="1" stop-color="#868FDF"/>
</linearGradient>
<linearGradient id="paint72_linear_112_13165" x1="59.2511" y1="99.277" x2="67.8396" y2="122.862" gradientUnits="userSpaceOnUse">
<stop stop-color="#557EF7"/>
<stop offset="1" stop-color="#868FDF"/>
</linearGradient>
<linearGradient id="paint73_linear_112_13165" x1="59.2511" y1="99.277" x2="67.8396" y2="122.862" gradientUnits="userSpaceOnUse">
<stop stop-color="#557EF7"/>
<stop offset="1" stop-color="#868FDF"/>
</linearGradient>
<linearGradient id="paint74_linear_112_13165" x1="59.2511" y1="99.277" x2="67.8396" y2="122.862" gradientUnits="userSpaceOnUse">
<stop stop-color="#557EF7"/>
<stop offset="1" stop-color="#868FDF"/>
</linearGradient>
<linearGradient id="paint75_linear_112_13165" x1="59.2511" y1="99.277" x2="67.8396" y2="122.862" gradientUnits="userSpaceOnUse">
<stop stop-color="#557EF7"/>
<stop offset="1" stop-color="#868FDF"/>
</linearGradient>
<linearGradient id="paint76_linear_112_13165" x1="59.2511" y1="99.277" x2="67.8396" y2="122.862" gradientUnits="userSpaceOnUse">
<stop stop-color="#557EF7"/>
<stop offset="1" stop-color="#868FDF"/>
</linearGradient>
<linearGradient id="paint77_linear_112_13165" x1="59.2511" y1="99.277" x2="67.8396" y2="122.862" gradientUnits="userSpaceOnUse">
<stop stop-color="#557EF7"/>
<stop offset="1" stop-color="#868FDF"/>
</linearGradient>
<linearGradient id="paint78_linear_112_13165" x1="59.2511" y1="99.277" x2="67.8396" y2="122.862" gradientUnits="userSpaceOnUse">
<stop stop-color="#557EF7"/>
<stop offset="1" stop-color="#868FDF"/>
</linearGradient>
<linearGradient id="paint79_linear_112_13165" x1="59.2511" y1="99.277" x2="67.8396" y2="122.862" gradientUnits="userSpaceOnUse">
<stop stop-color="#557EF7"/>
<stop offset="1" stop-color="#868FDF"/>
</linearGradient>
<linearGradient id="paint80_linear_112_13165" x1="59.2511" y1="99.277" x2="67.8396" y2="122.862" gradientUnits="userSpaceOnUse">
<stop stop-color="#557EF7"/>
<stop offset="1" stop-color="#868FDF"/>
</linearGradient>
<linearGradient id="paint81_linear_112_13165" x1="59.2511" y1="99.277" x2="67.8396" y2="122.862" gradientUnits="userSpaceOnUse">
<stop stop-color="#557EF7"/>
<stop offset="1" stop-color="#868FDF"/>
</linearGradient>
<linearGradient id="paint82_linear_112_13165" x1="59.2511" y1="99.277" x2="67.8396" y2="122.862" gradientUnits="userSpaceOnUse">
<stop stop-color="#557EF7"/>
<stop offset="1" stop-color="#868FDF"/>
</linearGradient>
<linearGradient id="paint83_linear_112_13165" x1="59.2511" y1="99.277" x2="67.8396" y2="122.862" gradientUnits="userSpaceOnUse">
<stop stop-color="#557EF7"/>
<stop offset="1" stop-color="#868FDF"/>
</linearGradient>
<linearGradient id="paint84_linear_112_13165" x1="59.2511" y1="99.277" x2="67.8396" y2="122.862" gradientUnits="userSpaceOnUse">
<stop stop-color="#557EF7"/>
<stop offset="1" stop-color="#868FDF"/>
</linearGradient>
<linearGradient id="paint85_linear_112_13165" x1="59.2511" y1="99.277" x2="67.8396" y2="122.862" gradientUnits="userSpaceOnUse">
<stop stop-color="#557EF7"/>
<stop offset="1" stop-color="#868FDF"/>
</linearGradient>
<linearGradient id="paint86_linear_112_13165" x1="59.2511" y1="99.277" x2="67.8396" y2="122.862" gradientUnits="userSpaceOnUse">
<stop stop-color="#557EF7"/>
<stop offset="1" stop-color="#868FDF"/>
</linearGradient>
<linearGradient id="paint87_linear_112_13165" x1="59.2511" y1="99.277" x2="67.8396" y2="122.862" gradientUnits="userSpaceOnUse">
<stop stop-color="#557EF7"/>
<stop offset="1" stop-color="#868FDF"/>
</linearGradient>
<linearGradient id="paint88_linear_112_13165" x1="59.2511" y1="99.277" x2="67.8396" y2="122.862" gradientUnits="userSpaceOnUse">
<stop stop-color="#557EF7"/>
<stop offset="1" stop-color="#868FDF"/>
</linearGradient>
<linearGradient id="paint89_linear_112_13165" x1="59.2511" y1="99.277" x2="67.8396" y2="122.862" gradientUnits="userSpaceOnUse">
<stop stop-color="#557EF7"/>
<stop offset="1" stop-color="#868FDF"/>
</linearGradient>
<linearGradient id="paint90_linear_112_13165" x1="59.2511" y1="99.277" x2="67.8396" y2="122.862" gradientUnits="userSpaceOnUse">
<stop stop-color="#557EF7"/>
<stop offset="1" stop-color="#868FDF"/>
</linearGradient>
<linearGradient id="paint91_linear_112_13165" x1="59.2511" y1="99.277" x2="67.8396" y2="122.862" gradientUnits="userSpaceOnUse">
<stop stop-color="#557EF7"/>
<stop offset="1" stop-color="#868FDF"/>
</linearGradient>
<linearGradient id="paint92_linear_112_13165" x1="59.2511" y1="99.277" x2="67.8396" y2="122.862" gradientUnits="userSpaceOnUse">
<stop stop-color="#557EF7"/>
<stop offset="1" stop-color="#868FDF"/>
</linearGradient>
<linearGradient id="paint93_linear_112_13165" x1="59.2511" y1="99.277" x2="67.8396" y2="122.862" gradientUnits="userSpaceOnUse">
<stop stop-color="#557EF7"/>
<stop offset="1" stop-color="#868FDF"/>
</linearGradient>
<clipPath id="clip0_112_13165">
<rect x="79.2529" y="194.413" width="121.295" height="199" rx="5.6498" transform="rotate(-98.196 79.2529 194.413)" fill="white"/>
</clipPath>
<clipPath id="clip1_112_13165">
<rect width="56.3224" height="56.3224" fill="white" transform="translate(138.124 97.0806) rotate(-7.3626)"/>
</clipPath>
<clipPath id="clip2_112_13165">
<rect width="48.4999" height="44.5886" fill="white" transform="translate(142.755 102.396) rotate(-7.3626)"/>
</clipPath>
<clipPath id="clip3_112_13165">
<rect width="60.5535" height="60.5535" fill="white" transform="translate(167 12.8672) rotate(-8.42041)"/>
</clipPath>
<clipPath id="clip4_112_13165">
<rect width="58.0915" height="58.0915" fill="white" transform="translate(168.256 13.7969) rotate(-8.42041)"/>
</clipPath>
<clipPath id="clip5_112_13165">
<rect width="38.6642" height="38.6642" fill="white" transform="translate(177.423 25.2324) rotate(-16.9488)"/>
</clipPath>
<clipPath id="clip6_112_13165">
<rect width="33.2942" height="30.6092" fill="white" transform="translate(181.165 28.3025) rotate(-16.9488)"/>
</clipPath>
<clipPath id="clip7_112_13165">
<rect width="32.8316" height="32.8316" fill="white" transform="matrix(-1 0 -0.409286 0.912406 139.27 49)"/>
</clipPath>
<clipPath id="clip8_112_13165">
<rect width="31.4967" height="31.4967" fill="white" transform="matrix(-1 1.24191e-08 -0.409286 0.912406 138.43 49.5449)"/>
</clipPath>
<clipPath id="clip9_112_13165">
<rect width="22.3361" height="23.6686" fill="white" transform="matrix(1 0 -0.461284 0.887253 109.664 53)"/>
</clipPath>
<clipPath id="clip10_112_13165">
<rect width="19.2338" height="18.7376" fill="white" transform="matrix(1 0 -0.461284 0.887253 110.078 55.1875)"/>
</clipPath>
<clipPath id="clip11_112_13165">
<rect width="48.7501" height="48.7501" fill="white" transform="matrix(1 0 0.409286 0.912406 30.8047 88)"/>
</clipPath>
<clipPath id="clip12_112_13165">
<rect width="46.7681" height="46.7681" fill="white" transform="matrix(1 1.24191e-08 0.409286 0.912406 32.0547 88.8096)"/>
</clipPath>
<clipPath id="clip13_112_13165">
<rect width="33.2874" height="33.2874" fill="white" transform="matrix(1 0 0.575919 0.898683 39.4092 95)"/>
</clipPath>
<clipPath id="clip14_112_13165">
<rect width="28.6642" height="26.3526" fill="white" transform="matrix(1 0 0.575919 0.898683 43.7178 98.1162)"/>
</clipPath>
</defs>
</svg>
