<svg width="315" height="192" viewBox="0 0 315 192" fill="none" xmlns="http://www.w3.org/2000/svg">
<g clip-path="url(#clip0_11129_61250)">
<rect y="192" width="192" height="315" rx="8.94314" transform="rotate(-90 0 192)" fill="black"/>
<path d="M278.746 165.618L275.717 179.797H272.053L275.082 165.618H278.746ZM294.16 174.773L296.09 169.449L297.199 174.773H294.16ZM298.248 179.797H301.637L298.68 165.618H295.552C294.849 165.618 294.255 166.027 293.992 166.659L288.495 179.797H292.342L293.106 177.68H297.807L298.248 179.797ZM288.686 175.167C288.702 171.425 283.517 171.22 283.553 169.548C283.563 169.039 284.048 168.498 285.106 168.36C285.632 168.292 287.078 168.239 288.72 168.994L289.362 165.988C288.481 165.667 287.346 165.36 285.935 165.36C282.314 165.36 279.765 167.287 279.743 170.046C279.721 172.088 281.563 173.226 282.951 173.905C284.378 174.6 284.857 175.045 284.852 175.666C284.843 176.619 283.713 177.037 282.66 177.054C280.818 177.083 279.749 176.556 278.896 176.159L278.232 179.266C279.088 179.66 280.668 180.002 282.308 180.018C286.156 180.018 288.674 178.115 288.686 175.167ZM273.511 165.618L267.575 179.797H263.701L260.781 168.482C260.603 167.784 260.449 167.529 259.91 167.236C259.03 166.758 257.576 166.309 256.296 166.031L256.383 165.618H262.617C263.412 165.618 264.126 166.148 264.306 167.063L265.849 175.27L269.662 165.618H273.511Z" fill="white"/>
<path fill-rule="evenodd" clip-rule="evenodd" d="M145.283 76.263C145.277 76.263 145.277 76.263 145.283 76.263V76.263ZM161.878 124.213C159.761 125.077 157.35 124.045 156.498 121.916C155.641 119.782 156.659 117.35 158.775 116.491C166.325 113.401 174.202 108.84 179.646 103.139C183.692 98.9032 186.355 94.0564 186.355 88.7827H186.371V88.7178C186.355 85.1786 185.15 81.9906 182.942 79.7212C180.729 77.4409 177.423 76.0307 173.206 76.0307V76.0144H173.125C169.723 76.0307 166.818 77.0843 164.434 78.754C161.546 80.7694 159.381 83.6873 157.988 86.7672C157.039 88.8529 154.596 89.7769 152.522 88.8205C150.448 87.8641 149.537 85.4001 150.486 83.309C152.442 78.9809 155.544 74.8365 159.74 71.9079C163.405 69.3521 167.869 67.7256 173.088 67.704H173.2V67.6878C179.78 67.6878 185.101 70.0599 188.82 73.8909C192.55 77.7273 194.586 82.9632 194.607 88.6908V88.7881H194.623C194.623 96.4555 191.033 103.21 185.584 108.916C179.25 115.546 170.333 120.749 161.878 124.213ZM146.708 68.0661C148.959 68.4281 150.491 70.557 150.132 72.8264C149.773 75.0959 147.662 76.6412 145.411 76.2792L145.277 76.2576C145.32 76.2684 145.69 76.3278 145.277 76.2684C141.88 75.7605 138.617 76.7331 136.05 78.7594C133.403 80.8505 131.479 84.0601 130.858 87.9397C130.783 88.4044 130.922 87.5507 130.842 88.1181C130.327 91.5924 131.27 94.8885 133.253 97.4443C135.268 100.038 138.376 101.908 142.164 102.475C145.781 103.015 149.189 102.437 152.361 101.075C156.198 99.422 159.767 96.6176 163.003 93.2081C164.584 91.5492 167.193 91.5006 168.838 93.0946C170.484 94.6886 170.532 97.32 168.951 98.9789C165.002 103.139 160.544 106.608 155.592 108.737C151.065 110.688 146.178 111.509 140.964 110.726C135 109.829 130.038 106.798 126.753 102.567C123.399 98.244 121.807 92.7055 122.659 86.9131C122.718 86.497 122.611 87.2481 122.713 86.6375C123.672 80.5965 126.743 75.5498 130.976 72.2051C135.284 68.8009 140.776 67.1583 146.478 68.0174C146.917 68.0877 146.129 67.9742 146.708 68.0661ZM164.739 130.54C179.657 123.294 200.314 109.305 200.984 88.3018C201.745 64.4296 175.515 51.7154 157.5 66.0128C139.485 51.71 113.255 64.4296 114.016 88.3018C114.686 109.305 135.343 123.294 150.261 130.54C157.012 133.82 157.988 133.82 164.739 130.54Z" fill="white"/>
</g>
<defs>
<clipPath id="clip0_11129_61250">
<rect y="192" width="192" height="315" rx="8.94314" transform="rotate(-90 0 192)" fill="white"/>
</clipPath>
</defs>
</svg>
