<svg width="20" height="20" viewBox="0 0 20 20" fill="none" xmlns="http://www.w3.org/2000/svg">
<path d="M4.16665 15.8337C3.93054 15.8337 3.73248 15.7537 3.57248 15.5937C3.41304 15.4342 3.33331 15.2364 3.33331 15.0003C3.33331 14.7642 3.41304 14.5664 3.57248 14.407C3.73248 14.247 3.93054 14.167 4.16665 14.167H4.99998V8.33366C4.99998 7.18088 5.3472 6.15644 6.04165 5.26033C6.73609 4.36477 7.63887 3.7781 8.74998 3.50033V2.91699C8.74998 2.56977 8.87165 2.27477 9.11498 2.03199C9.35776 1.78866 9.65276 1.66699 9.99998 1.66699C10.3472 1.66699 10.6422 1.78866 10.885 2.03199C11.1283 2.27477 11.25 2.56977 11.25 2.91699V3.50033C12.3611 3.7781 13.2639 4.36477 13.9583 5.26033C14.6528 6.15644 15 7.18088 15 8.33366V14.167H15.8333C16.0694 14.167 16.2672 14.247 16.4266 14.407C16.5866 14.5664 16.6666 14.7642 16.6666 15.0003C16.6666 15.2364 16.5866 15.4342 16.4266 15.5937C16.2672 15.7537 16.0694 15.8337 15.8333 15.8337H4.16665ZM9.99998 18.3337C9.54165 18.3337 9.14942 18.1706 8.82331 17.8445C8.49665 17.5178 8.33331 17.1253 8.33331 16.667H11.6666C11.6666 17.1253 11.5036 17.5178 11.1775 17.8445C10.8508 18.1706 10.4583 18.3337 9.99998 18.3337ZM6.66665 14.167H13.3333V8.33366C13.3333 7.41699 13.0069 6.63227 12.3541 5.97949C11.7014 5.32671 10.9166 5.00033 9.99998 5.00033C9.08331 5.00033 8.29859 5.32671 7.64581 5.97949C6.99304 6.63227 6.66665 7.41699 6.66665 8.33366V14.167Z" fill="white"/>
</svg>
