<svg width="375" height="812" viewBox="0 0 375 812" fill="none" xmlns="http://www.w3.org/2000/svg">
<rect width="375" height="812" fill="url(#paint0_linear_11129_57963)"/>
<path fill-rule="evenodd" clip-rule="evenodd" d="M172.395 382.206C172.389 382.206 172.389 382.206 172.395 382.206V382.206ZM192.233 438.833C189.703 439.854 186.821 438.635 185.802 436.121C184.777 433.6 185.994 430.729 188.525 429.714C197.55 426.064 206.966 420.678 213.474 413.946C218.31 408.943 221.494 403.219 221.494 396.991H221.513V396.915C221.494 392.735 220.052 388.97 217.413 386.29C214.768 383.597 210.816 381.932 205.775 381.932V381.913H205.678C201.611 381.932 198.139 383.176 195.289 385.148C191.836 387.528 189.248 390.974 187.583 394.611C186.449 397.074 183.528 398.166 181.049 397.036C178.57 395.907 177.481 392.997 178.615 390.527C180.953 385.416 184.662 380.521 189.678 377.063C194.059 374.044 199.395 372.124 205.634 372.098H205.768V372.079C213.634 372.079 219.995 374.88 224.44 379.405C228.898 383.935 231.332 390.119 231.358 396.883V396.998H231.377C231.377 406.053 227.086 414.029 220.571 420.768C213 428.598 202.341 434.743 192.233 438.833ZM174.099 372.526C176.79 372.953 178.622 375.467 178.192 378.148C177.763 380.828 175.239 382.653 172.549 382.225L172.389 382.2C172.44 382.212 172.882 382.283 172.389 382.212C168.328 381.613 164.427 382.761 161.359 385.154C158.194 387.624 155.895 391.414 155.152 395.996C155.062 396.545 155.229 395.536 155.133 396.206C154.518 400.31 155.645 404.202 158.015 407.22C160.424 410.283 164.139 412.491 168.667 413.161C172.991 413.8 177.065 413.117 180.857 411.509C185.443 409.556 189.71 406.244 193.578 402.218C195.468 400.259 198.588 400.201 200.554 402.084C202.521 403.966 202.578 407.074 200.689 409.033C195.968 413.946 190.638 418.043 184.72 420.557C179.307 422.861 173.465 423.831 167.233 422.906C160.103 421.846 154.172 418.266 150.245 413.27C146.235 408.165 144.333 401.624 145.351 394.783C145.422 394.292 145.294 395.179 145.415 394.458C146.562 387.324 150.232 381.364 155.293 377.414C160.443 373.394 167.008 371.454 173.824 372.468C174.349 372.551 173.408 372.417 174.099 372.526ZM195.654 446.305C213.487 437.748 238.18 421.227 238.981 396.423C239.89 368.231 208.535 353.216 187 370.101C165.465 353.21 134.11 368.231 135.019 396.423C135.82 421.227 160.513 437.748 178.346 446.305C186.417 450.179 187.583 450.179 195.654 446.305Z" fill="white"/>
<defs>
<linearGradient id="paint0_linear_11129_57963" x1="-108.5" y1="1049.5" x2="498.853" y2="1041.8" gradientUnits="userSpaceOnUse">
<stop stop-color="#92FE9D"/>
<stop offset="1" stop-color="#00C9FF"/>
</linearGradient>
</defs>
</svg>
