<svg width="46" height="46" viewBox="0 0 46 46" fill="none" xmlns="http://www.w3.org/2000/svg">
<circle cx="23" cy="23" r="23" fill="#38353A"/>
<path d="M22.9043 17.2227V32.536" stroke="#9B9A9C" stroke-width="1.5"/>
<path d="M13.2852 22.3262H32.4109" stroke="#9B9A9C" stroke-width="1.5"/>
<path d="M14.2669 30.9654V23.2106C14.2669 22.7227 13.8714 22.3271 13.3835 22.3271C12.8955 22.3271 12.5 21.9316 12.5 21.4437V18.7933C12.5 17.9258 13.2032 17.2227 14.0706 17.2227H31.7399C32.6073 17.2227 33.3105 17.9258 33.3105 18.7933V21.3455C33.3105 21.8876 32.871 22.3271 32.3289 22.3271C31.7867 22.3271 31.3472 22.7666 31.3472 23.3087V30.9654C31.3472 31.8329 30.6441 32.536 29.7766 32.536H15.8375C14.9701 32.536 14.2669 31.8329 14.2669 30.9654Z" stroke="#9B9A9C" stroke-width="1.5"/>
<path d="M22.4307 14.7486V16.7471H20.4321C19.3284 16.7471 18.4336 15.8523 18.4336 14.7486C18.4336 13.6448 19.3284 12.75 20.4321 12.75C21.5359 12.75 22.4307 13.6448 22.4307 14.7486Z" stroke="#9B9A9C" stroke-width="1.5"/>
<path d="M23.3427 14.7486V16.7471H25.3413C26.4451 16.7471 27.3398 15.8523 27.3398 14.7486C27.3398 13.6448 26.4451 12.75 25.3413 12.75C24.2375 12.75 23.3427 13.6448 23.3427 14.7486Z" stroke="#9B9A9C" stroke-width="1.5"/>
</svg>
