<svg width="46" height="46" viewBox="0 0 46 46" fill="none" xmlns="http://www.w3.org/2000/svg">
<circle cx="23" cy="23" r="23" fill="#38353A"/>
<path d="M20 14.75C20 14.3358 19.6642 14 19.25 14H14C12.3431 14 11 15.3431 11 17V29C11 30.6569 12.3431 32 14 32H32C33.6569 32 35 30.6569 35 29V25.75C35 25.3358 34.6642 25 34.25 25C33.8358 25 33.5 25.3358 33.5 25.75V29C33.5 29.8284 32.8284 30.5 32 30.5H14C13.1716 30.5 12.5 29.8284 12.5 29V17C12.5 16.1716 13.1716 15.5 14 15.5H19.25C19.6642 15.5 20 15.1642 20 14.75Z" fill="#9B9A9C"/>
<path d="M14.5 19L19.5 19" stroke="#9B9A9C" stroke-width="1.5" stroke-linecap="round"/>
<path d="M14.5 28L18 28" stroke="#9B9A9C" stroke-width="1.5" stroke-linecap="round"/>
<circle cx="29" cy="17" r="7.25" stroke="#9B9A9C" stroke-width="1.5"/>
<path d="M27.1283 19.1063L30.5185 15.3407" stroke="#9B9A9C" stroke-width="1.5" stroke-linecap="round"/>
<path d="M27.0742 15.0601L30.7382 14.8168C30.8484 14.8095 30.9437 14.8929 30.951 15.0031L31.1943 18.6671" stroke="#9B9A9C" stroke-width="1.5" stroke-linecap="round"/>
</svg>
