<svg width="46" height="46" viewBox="0 0 46 46" fill="none" xmlns="http://www.w3.org/2000/svg">
<circle cx="23" cy="23" r="23" fill="#38353A"/>
<path d="M20 14.75C20 14.3358 19.6642 14 19.25 14H14C12.3431 14 11 15.3431 11 17V29C11 30.6569 12.3431 32 14 32H32C33.6569 32 35 30.6569 35 29V25.75C35 25.3358 34.6642 25 34.25 25C33.8358 25 33.5 25.3358 33.5 25.75V29C33.5 29.8284 32.8284 30.5 32 30.5H14C13.1716 30.5 12.5 29.8284 12.5 29V17C12.5 16.1716 13.1716 15.5 14 15.5H19.25C19.6642 15.5 20 15.1642 20 14.75Z" fill="#9B9A9C"/>
<path d="M14.5 19L19.5 19" stroke="#9B9A9C" stroke-width="1.5" stroke-linecap="round"/>
<path d="M14.5 28L18 28" stroke="#9B9A9C" stroke-width="1.5" stroke-linecap="round"/>
<circle cx="29" cy="17" r="7.25" stroke="#9B9A9C" stroke-width="1.5"/>
<path d="M28 17.2002L26.1414 15.3416C26.0633 15.2635 26.0633 15.1369 26.1414 15.0588L28 13.2002" stroke="#9B9A9C" stroke-width="1.5" stroke-linecap="round"/>
<path fill-rule="evenodd" clip-rule="evenodd" d="M26.8672 15.25C26.8672 15.6642 27.203 16 27.6172 16H29.7008C30.5293 16 31.2008 16.6716 31.2008 17.5C31.2008 18.3284 30.5293 19 29.7008 19H27.7505C27.3363 19 27.0005 19.3358 27.0005 19.75V19.75C27.0005 20.1642 27.3363 20.5 27.7505 20.5H29.7008C31.3577 20.5 32.7008 19.1569 32.7008 17.5C32.7008 15.8431 31.3577 14.5 29.7008 14.5H27.6172C27.203 14.5 26.8672 14.8358 26.8672 15.25V15.25Z" fill="#9B9A9C"/>
</svg>
