<svg width="90" height="90" viewBox="0 0 90 90" fill="none" xmlns="http://www.w3.org/2000/svg">
<rect x="1.02273" y="1.02273" width="87.9545" height="87.9545" rx="43.9773" fill="white" stroke="#F9F9F9" stroke-width="2.04545"/>
<g opacity="0.25">
<path d="M39.2236 26.01C36.7514 26.5016 34.9649 28.2674 34.3209 30.8642C34.1201 31.6744 34.1062 33.1493 34.2862 33.9803C34.6533 35.6976 35.7058 37.3803 37.5547 39.2292C39.3067 40.9743 44.7564 45.6485 45.1927 45.78C45.719 45.9324 45.8159 45.87 48.4611 43.6195C51.328 41.1751 51.9997 40.5865 53.163 39.4439C55.739 36.9233 56.7846 34.9359 56.7846 32.5469C56.7916 28.9253 54.3471 26.1346 50.9887 25.9199C49.666 25.8368 48.4057 26.1969 47.3186 26.9725C46.8477 27.3049 46.0375 28.1359 45.6982 28.6206L45.4766 28.946L45.0611 28.3921C44.5971 27.7758 43.9185 27.1387 43.3369 26.7648C42.1943 26.0377 40.5739 25.7399 39.2236 26.01ZM41.5018 28.1774C42.6859 28.5998 43.6831 29.7008 44.3271 31.3004C44.6941 32.2007 44.9088 32.4084 45.4974 32.4084C45.9405 32.4084 46.2245 32.2076 46.4253 31.7298C46.8892 30.6703 46.9931 30.4626 47.3324 29.9363C48.3573 28.3574 49.9361 27.6857 51.605 28.1151C52.3598 28.309 52.7752 28.5513 53.3777 29.1538C54.2848 30.054 54.7142 31.1273 54.7072 32.4776C54.7072 33.4125 54.5687 33.9942 54.1394 34.8667C53.3292 36.5148 52.0481 37.8374 47.5748 41.646L45.4766 43.4325L45.3242 43.301C45.2411 43.2248 44.4379 42.5462 43.5446 41.7914C41.0378 39.6655 40.4008 39.1115 39.3344 38.059C38.2333 36.9787 37.714 36.3763 37.1946 35.5799C35.9343 33.6548 35.8859 31.4805 37.0492 29.7355C37.6447 28.8422 38.5796 28.2259 39.6667 28.0181C40.0545 27.942 41.0932 28.032 41.5018 28.1774Z" fill="#353535"/>
<path d="M39.0445 46.4446C37.8811 46.5692 36.5931 47.0817 35.596 47.8088L35.1736 48.1204L34.7996 47.7534C34.5919 47.5456 34.2664 47.2963 34.0725 47.1994C33.3593 46.8393 33.1169 46.8116 30.534 46.8116C28.2627 46.8116 28.1311 46.8185 27.8541 46.957C27.6395 47.0609 27.5218 47.1786 27.4179 47.3933C27.2725 47.6841 27.2725 47.7672 27.2725 54.0826C27.2725 60.3356 27.2725 60.4879 27.411 60.7649C27.501 60.945 27.6464 61.1042 27.8195 61.2012C28.0827 61.3466 28.145 61.3535 30.4994 61.3535C32.2652 61.3535 33.02 61.3258 33.3039 61.2566C33.7609 61.1527 34.4118 60.8065 34.7235 60.5087L34.945 60.301L36.0738 60.5779C36.697 60.7372 37.5695 60.9242 38.0058 61.0004C39.7577 61.305 40.1871 61.3189 46.3501 61.3189C51.8137 61.3189 52.2776 61.312 52.79 61.1942C54.3273 60.8411 55.7954 59.9824 56.7441 58.8814C57.3742 58.1543 62.1315 51.7697 62.36 51.3473C63.3433 49.5192 62.1592 47.1994 60.0679 46.8739C59.2577 46.7493 58.316 46.9917 57.6789 47.4972C57.5404 47.608 56.7233 48.4528 55.8715 49.3668C55.0198 50.2878 54.3066 51.0357 54.2858 51.0357C54.265 51.0357 54.1681 50.8556 54.0711 50.641C53.7803 49.9624 53.0047 49.2976 52.1668 49.0067C52.0422 48.9583 50.7472 48.9167 48.9122 48.896C45.3875 48.8475 45.5953 48.889 44.5289 48.0788C43.7117 47.4625 43.1024 47.1163 42.3614 46.8532C41.3019 46.4723 40.1247 46.3269 39.0445 46.4446ZM41.2258 48.6467C41.8351 48.8129 42.5484 49.1799 43.0954 49.6092C43.7948 50.1632 44.4042 50.5163 45.0344 50.7379L45.5883 50.9318L48.6006 50.9664C51.4051 51.0011 51.6267 51.008 51.8344 51.1326C52.0976 51.2919 52.3399 51.7074 52.3399 51.9982C52.3399 52.3514 52.0976 52.7461 51.786 52.9054C51.5228 53.0369 51.3843 53.0439 47.6311 53.0439C44.4942 53.0439 43.7048 53.0646 43.5248 53.1408C42.6592 53.5078 42.7146 54.7958 43.6148 55.0589C43.7741 55.1074 45.3529 55.1213 48.2544 55.1074L52.6515 55.0866L53.0878 54.8997C53.3302 54.8027 53.6349 54.6435 53.7664 54.5534C53.9049 54.4703 55.1029 53.2239 56.4324 51.7974C57.762 50.3709 58.9669 49.1314 59.1123 49.0483C59.4308 48.8544 59.694 48.8475 60.0679 49.0344C60.2826 49.1383 60.4003 49.256 60.5042 49.4707C60.6773 49.8169 60.6842 49.9901 60.5526 50.3017C60.4972 50.4263 59.2924 52.0882 57.8659 53.9856C54.9506 57.8704 54.6736 58.1751 53.6279 58.6875C52.4507 59.2692 52.8247 59.2346 46.904 59.2623C40.2425 59.29 39.3076 59.2346 36.7455 58.6113L35.7206 58.362V54.3873V50.4125L36.0392 50.1216C37.0363 49.2006 37.9988 48.7021 39.1483 48.5151C39.5292 48.4597 40.8034 48.5359 41.2258 48.6467ZM33.1031 49.0414C33.2693 49.1383 33.4355 49.3045 33.5116 49.4569C33.6363 49.6992 33.6432 49.9277 33.6432 54.0826C33.6432 58.3205 33.6363 58.459 33.5047 58.7221C33.4147 58.9022 33.2693 59.0476 33.0892 59.1376C32.8399 59.2623 32.6876 59.2761 31.0811 59.2761H29.3499V54.0826V48.889H31.088C32.7638 48.889 32.8399 48.896 33.1031 49.0414Z" fill="#353535"/>
</g>
</svg>
