<svg width="47" height="47" viewBox="0 0 47 47" fill="none" xmlns="http://www.w3.org/2000/svg">
<circle cx="23.001" cy="23.001" r="23.001" fill="#38353A"/>
<circle cx="29.0023" cy="17.0008" r="7.25031" stroke="#9B9A9C" stroke-width="1.50006"/>
<path d="M30.9227 19.5451C31.336 19.5177 31.6488 19.1604 31.6214 18.747C31.5939 18.3337 31.2366 18.0209 30.8233 18.0483L28.734 18.1871L31.3763 15.2522C31.6534 14.9443 31.6285 14.4701 31.3207 14.1929C31.0128 13.9158 30.5386 13.9407 30.2614 14.2485L27.6356 17.1652L27.5011 15.1399C27.4737 14.7265 27.1163 14.4137 26.703 14.4412C26.2897 14.4686 25.9769 14.8259 26.0043 15.2392L26.2476 18.9034C26.2824 19.4269 26.735 19.8232 27.2585 19.7884L30.9227 19.5451Z" fill="#9B9A9C"/>
<path fill-rule="evenodd" clip-rule="evenodd" d="M18.0021 17.0012C18.0021 16.7056 17.5628 16.5711 17.4166 16.828L9.6669 30.4428C9.21311 31.237 8.98619 31.6343 9.0028 31.9596C9.02494 32.3127 9.20756 32.6326 9.50642 32.8258C9.78311 33.0021 10.2369 33.0021 11.1556 33.0021H15.5275C16.5569 33.0021 17.0715 33.0021 17.5309 32.8754C18.0345 32.7262 18.4938 32.4616 18.8757 32.0974C19.2264 31.7644 19.4794 31.3231 19.9786 30.4523L19.9936 30.4262L22.2452 26.459C22.4212 26.149 22.334 25.7578 22.0576 25.5326C21.7039 25.2443 21.1655 25.3224 20.9403 25.7193L18.6921 29.6802L18.689 29.6858L18.6772 29.7062C18.133 30.6556 17.9968 30.8634 17.8428 31.0097L17.8404 31.0119C17.6356 31.2072 17.3904 31.3501 17.1189 31.4329C16.9043 31.4896 16.6229 31.5021 15.5275 31.5021H11.1556C10.9934 31.5021 10.8889 31.3277 10.9694 31.1869L17.609 19.5222C17.9407 18.9396 18.0534 18.2633 18.0178 17.5939C18.0074 17.3977 18.0021 17.2001 18.0021 17.0012ZM10.1212 31.4739C10.1183 31.4734 10.1184 31.4733 10.1212 31.4739ZM10.4811 32.0984C10.4801 32.1014 10.4801 32.1014 10.4811 32.0984Z" fill="#9B9A9C"/>
<path fill-rule="evenodd" clip-rule="evenodd" d="M27.142 27.845C26.8462 27.7946 26.5498 27.9254 26.3984 28.1845L25.085 30.4319L25.0741 30.4505C24.6165 31.2379 24.3878 31.6314 24.4043 31.9542C24.4264 32.3073 24.609 32.6326 24.9079 32.8258C25.1791 33.0021 25.6439 33.0021 26.5681 33.0021H32.8326C33.7568 33.0021 34.2218 33.0021 34.4986 32.8204C34.7974 32.6272 34.9855 32.3016 35.0023 31.9489C35.0182 31.634 34.7962 31.2522 34.3612 30.5041L34.3363 30.4614L34.3159 30.4263L32.8385 27.9072C32.6711 27.6218 32.3297 27.4948 32.0114 27.5851C31.5472 27.7168 31.3012 28.2511 31.5453 28.6673L33.0184 31.179L33.022 31.1852L33.0393 31.2151L33.0644 31.2581C33.1274 31.3665 33.0496 31.502 32.9242 31.5021C32.8945 31.5021 32.864 31.5021 32.8326 31.5021H26.5681C26.5593 31.5021 26.5506 31.5021 26.5419 31.5021C26.3889 31.5021 26.2939 31.3369 26.3708 31.2047L26.3801 31.1887L26.3816 31.1861L27.6925 28.943C27.9521 28.4987 27.6493 27.9314 27.142 27.845ZM25.5169 31.4729C25.5151 31.4725 25.5141 31.4723 25.5141 31.4723C25.514 31.4723 25.5159 31.4728 25.52 31.4736C25.5188 31.4733 25.5178 31.473 25.5169 31.4729ZM33.8759 31.4732C33.8791 31.4726 33.8791 31.4725 33.8759 31.4732Z" fill="#9B9A9C"/>
</svg>
