<svg width="46" height="46" viewBox="0 0 46 46" fill="none" xmlns="http://www.w3.org/2000/svg">
<circle cx="23" cy="23" r="23" fill="#38353A"/>
<path fill-rule="evenodd" clip-rule="evenodd" d="M18.0002 16.9999C18.0002 16.7042 17.5605 16.5695 17.4142 16.8266L9.66492 30.4407C9.21115 31.235 8.98423 31.6323 9.00085 31.9575C9.02299 32.3106 9.2056 32.6305 9.50444 32.8236C9.78112 33 10.2349 33 11.1535 33H15.5253C16.5546 33 17.0692 33 17.5285 32.8733C18.0321 32.7241 18.4915 32.4595 18.8733 32.0954C19.224 31.7624 19.477 31.321 19.9762 30.4503L19.9911 30.4242L22.2428 26.4571C22.4187 26.1471 22.3315 25.756 22.0552 25.5308C21.7015 25.2425 21.1631 25.3205 20.9378 25.7174L18.6898 29.6783L18.6866 29.6838L18.6749 29.7043C18.1306 30.6537 17.9945 30.8613 17.8404 31.0076L17.8381 31.0098C17.6333 31.2052 17.3881 31.348 17.1166 31.4308C16.902 31.4876 16.6206 31.5 15.5253 31.5H11.1535C10.9914 31.5 10.8869 31.3256 10.9673 31.1848L17.6071 19.52C17.9386 18.9375 18.0514 18.2614 18.0159 17.592C18.0055 17.396 18.0002 17.1986 18.0002 16.9999ZM10.4791 32.0963C10.4781 32.0993 10.4781 32.0994 10.4791 32.0963ZM10.1192 31.4718C10.1163 31.4713 10.1164 31.4712 10.1192 31.4718Z" fill="#9B9A9C"/>
<path fill-rule="evenodd" clip-rule="evenodd" d="M27.1392 27.8432C26.8434 27.7928 26.547 27.9236 26.3956 28.1827L25.0823 30.4299L25.0715 30.4485C24.6139 31.2358 24.3852 31.6293 24.4017 31.9522C24.4238 32.3052 24.6064 32.6305 24.9052 32.8236C25.1764 33 25.6413 33 26.5654 33H32.8296C33.7538 33 34.2187 33 34.4956 32.8183C34.7943 32.6251 34.9824 32.2996 34.9992 31.9468C35.0151 31.632 34.7931 31.2502 34.3582 30.5021L34.3333 30.4594L34.3129 30.4243L32.8357 27.9056C32.6683 27.6201 32.3269 27.4932 32.0086 27.5835C31.5445 27.7152 31.2984 28.2495 31.5425 28.6656L33.0154 31.177L33.019 31.1832L33.0363 31.213L33.0614 31.256C33.1245 31.3644 33.0466 31.4999 32.9212 31.5C32.8916 31.5 32.8611 31.5 32.8296 31.5H26.5654C26.5568 31.5 26.5482 31.5 26.5396 31.5C26.3865 31.5 26.2914 31.3347 26.3684 31.2022L26.3789 31.184L27.6897 28.9412C27.9493 28.4969 27.6465 27.9296 27.1392 27.8432ZM33.8729 31.4711C33.8762 31.4705 33.8762 31.4704 33.8729 31.4711Z" fill="#9B9A9C"/>
<circle cx="29" cy="16.999" r="7.25" stroke="#9B9A9C" stroke-width="1.5"/>
<path d="M26 16.9995H32" stroke="#9B9A9C" stroke-width="1.5" stroke-linecap="round"/>
<path d="M28.998 19.9995L28.998 13.9995" stroke="#9B9A9C" stroke-width="1.5" stroke-linecap="round"/>
</svg>
