<svg width="46" height="46" viewBox="0 0 46 46" fill="none" xmlns="http://www.w3.org/2000/svg">
<circle cx="23" cy="23" r="23" fill="#2F293F"/>
<circle cx="29" cy="17" r="7.25" stroke="#97949F" stroke-width="1.5"/>
<path d="M15.6452 11.25H18.3906C18.9286 11.25 19.2662 11.8433 19.0375 12.3303C18.9197 12.5812 18.6707 12.75 18.3936 12.75H16.8952C16.3429 12.75 15.8952 13.1977 15.8952 13.75V20.3431C15.8952 21.0335 15.3356 21.5931 14.6452 21.5931H13.5726C13.1183 21.5931 12.75 21.9614 12.75 22.4157V23.5843C12.75 24.0386 13.1183 24.4069 13.5726 24.4069H14.6452C15.3356 24.4069 15.8952 24.9665 15.8952 25.6569V32.25C15.8952 32.8023 16.3429 33.25 16.8952 33.25H19.8181C23.2945 33.25 24.7511 33.16 25.6372 32.9482C28.6121 32.1958 30.897 30.2889 32.157 27.7843C32.248 27.6033 32.4083 27.4638 32.5997 27.3975C33.2086 27.1867 33.8431 27.748 33.5613 28.3274C32.1332 31.2638 29.4869 33.5233 26.0001 34.4036L25.9915 34.4058C24.9002 34.6677 23.2557 34.75 19.8181 34.75H15.6452C14.9549 34.75 14.3952 34.1904 14.3952 33.5V26.7295C14.3952 26.2752 14.0269 25.9069 13.5726 25.9069H12.5C11.8096 25.9069 11.25 25.3472 11.25 24.6569V21.3431C11.25 20.6528 11.8096 20.0931 12.5 20.0931H13.5726C14.0269 20.0931 14.3952 19.7248 14.3952 19.2705V12.5C14.3952 11.8096 14.9549 11.25 15.6452 11.25Z" fill="#97949F"/>
<path d="M26.0648 27.9235C26.259 27.7805 26.5035 27.7182 26.7396 27.7675C27.032 27.8286 27.3287 27.8781 27.6292 27.9154C27.8545 27.9434 27.9636 28.2099 27.8064 28.3738C27.7474 28.4354 27.6869 28.4968 27.625 28.5582L27.6213 28.5618C26.1808 29.9699 24.4602 30.4363 21.548 30.4363H19.6891C18.9987 30.4363 18.4391 29.8766 18.4391 29.1863V25.6569C18.4391 24.9665 18.9987 24.4069 19.6891 24.4069H20.5847C20.7647 24.4069 20.9358 24.4834 21.0604 24.6133C21.2594 24.8209 21.4665 25.0206 21.6812 25.212C21.9414 25.4441 21.7843 25.9069 21.4356 25.9069H20.9391C20.3868 25.9069 19.9391 26.3546 19.9391 26.9069V27.9363C19.9391 28.4886 20.3868 28.9363 20.9391 28.9363H21.548C23.8641 28.9363 25.1125 28.6243 26.0648 27.9235Z" fill="#97949F"/>
<path d="M27.0246 14.3118C26.6113 14.3393 26.2985 14.6966 26.3259 15.1099C26.3533 15.5232 26.7106 15.836 27.1239 15.8085L29.2131 15.6698L26.571 18.6046C26.2938 18.9124 26.3187 19.3866 26.6266 19.6638C26.9344 19.9409 27.4086 19.916 27.6858 19.6082L30.3115 16.6916L30.446 18.7169C30.4734 19.1302 30.8307 19.443 31.244 19.4155C31.6573 19.3881 31.9701 19.0308 31.9427 18.6175L31.6994 14.9535C31.6647 14.43 31.2121 14.0338 30.6886 14.0685L27.0246 14.3118Z" fill="#97949F"/>
</svg>
