<?xml version="1.0" encoding="UTF-8"?>
<!--Generator: Apple Native CoreSVG 175.5-->
<!DOCTYPE svg
PUBLIC "-//W3C//DTD SVG 1.1//EN"
       "http://www.w3.org/Graphics/SVG/1.1/DTD/svg11.dtd">
<svg version="1.1" xmlns="http://www.w3.org/2000/svg" xmlns:xlink="http://www.w3.org/1999/xlink" width="20.8477" height="16.6377">
 <g>
  <rect height="16.6377" opacity="0" width="20.8477" x="0" y="0"/>
  <path d="M0.720703 1.21289C0.984375 1.21289 1.21289 0.984375 1.21289 0.720703C1.21289 0.448242 0.984375 0.228516 0.720703 0.228516C0.448242 0.228516 0.228516 0.448242 0.228516 0.720703C0.228516 0.984375 0.448242 1.21289 0.720703 1.21289ZM3.48926 1.21289C3.76172 1.21289 3.98145 0.984375 3.98145 0.720703C3.98145 0.448242 3.76172 0.228516 3.48926 0.228516C3.2168 0.228516 2.99707 0.448242 2.99707 0.720703C2.99707 0.984375 3.2168 1.21289 3.48926 1.21289ZM6.25781 1.21289C6.53027 1.21289 6.75 0.984375 6.75 0.720703C6.75 0.448242 6.53027 0.228516 6.25781 0.228516C5.99414 0.228516 5.76562 0.448242 5.76562 0.720703C5.76562 0.984375 5.99414 1.21289 6.25781 1.21289ZM9.03516 1.43262C9.42188 1.43262 9.74707 1.10742 9.74707 0.720703C9.74707 0.325195 9.42188 0 9.03516 0C8.63965 0 8.31445 0.325195 8.31445 0.720703C8.31445 1.10742 8.63965 1.43262 9.03516 1.43262ZM11.8037 1.43262C12.1904 1.43262 12.5156 1.10742 12.5156 0.720703C12.5156 0.325195 12.1904 0 11.8037 0C11.4082 0 11.083 0.325195 11.083 0.720703C11.083 1.10742 11.4082 1.43262 11.8037 1.43262ZM14.5811 1.21289C14.8535 1.21289 15.0732 0.984375 15.0732 0.720703C15.0732 0.448242 14.8535 0.228516 14.5811 0.228516C14.3174 0.228516 14.0889 0.448242 14.0889 0.720703C14.0889 0.984375 14.3174 1.21289 14.5811 1.21289ZM17.3584 1.21289C17.6221 1.21289 17.8506 0.984375 17.8506 0.720703C17.8506 0.448242 17.6221 0.228516 17.3584 0.228516C17.0859 0.228516 16.8574 0.448242 16.8574 0.720703C16.8574 0.984375 17.0859 1.21289 17.3584 1.21289ZM20.127 1.21289C20.3906 1.21289 20.6191 0.984375 20.6191 0.720703C20.6191 0.448242 20.3906 0.228516 20.127 0.228516C19.8545 0.228516 19.6348 0.448242 19.6348 0.720703C19.6348 0.984375 19.8545 1.21289 20.127 1.21289ZM0.720703 4.24512C0.984375 4.24512 1.21289 4.0166 1.21289 3.74414C1.21289 3.48047 0.984375 3.25195 0.720703 3.25195C0.448242 3.25195 0.228516 3.48047 0.228516 3.74414C0.228516 4.0166 0.448242 4.24512 0.720703 4.24512ZM3.48926 4.46484C3.88477 4.46484 4.20996 4.13965 4.20996 3.74414C4.20996 3.35742 3.88477 3.03223 3.48926 3.03223C3.09375 3.03223 2.76855 3.35742 2.76855 3.74414C2.76855 4.13965 3.09375 4.46484 3.48926 4.46484ZM6.25781 4.46484C6.37207 4.46484 6.48633 4.42969 6.58301 4.38574C6.69727 4.16602 6.8291 3.94629 6.97852 3.74414C6.97852 3.35742 6.65332 3.03223 6.25781 3.03223C5.87109 3.03223 5.5459 3.35742 5.5459 3.74414C5.5459 4.13965 5.87109 4.46484 6.25781 4.46484ZM14.5811 4.46484C14.9766 4.46484 15.3018 4.13965 15.3018 3.74414C15.3018 3.35742 14.9766 3.03223 14.5811 3.03223C14.2119 3.03223 13.9131 3.31348 13.8691 3.66504C14.0449 3.90234 14.2031 4.14844 14.335 4.4209C14.4141 4.45605 14.4932 4.46484 14.5811 4.46484ZM17.3584 4.46484C17.7451 4.46484 18.0703 4.13965 18.0703 3.74414C18.0703 3.35742 17.7451 3.03223 17.3584 3.03223C16.9629 3.03223 16.6377 3.35742 16.6377 3.74414C16.6377 4.13965 16.9629 4.46484 17.3584 4.46484ZM20.127 4.24512C20.3906 4.24512 20.6191 4.0166 20.6191 3.74414C20.6191 3.48047 20.3906 3.25195 20.127 3.25195C19.8545 3.25195 19.6348 3.48047 19.6348 3.74414C19.6348 4.0166 19.8545 4.24512 20.127 4.24512ZM0.720703 7.49707C1.10742 7.49707 1.43262 7.17188 1.43262 6.77637C1.43262 6.38086 1.10742 6.05566 0.720703 6.05566C0.325195 6.05566 0 6.38086 0 6.77637C0 7.17188 0.325195 7.49707 0.720703 7.49707ZM3.48926 7.7168C4.00781 7.7168 4.42969 7.29492 4.42969 6.77637C4.42969 6.25781 4.00781 5.83594 3.48926 5.83594C2.9707 5.83594 2.54883 6.25781 2.54883 6.77637C2.54883 7.29492 2.9707 7.7168 3.48926 7.7168ZM5.31738 6.77637C5.31738 7.27734 5.72168 7.69922 6.21387 7.7168C6.11719 7.34766 6.07324 6.95215 6.07324 6.54785C6.07324 6.30176 6.09082 6.07324 6.12598 5.84473C5.66895 5.91504 5.31738 6.30176 5.31738 6.77637ZM15.5303 6.77637C15.5303 6.32812 15.2051 5.9502 14.7744 5.85352C14.8096 6.07324 14.8184 6.29297 14.8184 6.53027C14.8184 6.94336 14.7744 7.33887 14.6777 7.7168C15.1436 7.66406 15.5303 7.25977 15.5303 6.77637ZM17.3584 7.7168C17.8682 7.7168 18.2988 7.29492 18.2988 6.77637C18.2988 6.25781 17.8682 5.83594 17.3584 5.83594C16.8398 5.83594 16.4092 6.25781 16.4092 6.77637C16.4092 7.29492 16.8398 7.7168 17.3584 7.7168ZM20.127 7.49707C20.5225 7.49707 20.8477 7.17188 20.8477 6.77637C20.8477 6.38086 20.5225 6.05566 20.127 6.05566C19.7314 6.05566 19.4062 6.38086 19.4062 6.77637C19.4062 7.17188 19.7314 7.49707 20.127 7.49707ZM0.720703 10.5205C1.10742 10.5205 1.43262 10.1953 1.43262 9.80859C1.43262 9.41309 1.10742 9.08789 0.720703 9.08789C0.325195 9.08789 0 9.41309 0 9.80859C0 10.1953 0.325195 10.5205 0.720703 10.5205ZM3.48926 10.749C4.00781 10.749 4.42969 10.3184 4.42969 9.80859C4.42969 9.29004 4.00781 8.85938 3.48926 8.85938C2.9707 8.85938 2.54883 9.29004 2.54883 9.80859C2.54883 10.3184 2.9707 10.749 3.48926 10.749ZM5.85352 10.6611C6.25781 10.3975 6.70605 10.1865 7.18066 9.99316C7.29492 9.41309 6.85547 8.85938 6.25781 8.85938C5.74805 8.85938 5.31738 9.29004 5.31738 9.80859C5.31738 10.1777 5.5459 10.5029 5.85352 10.6611ZM15.0205 10.6348C15.3105 10.4766 15.5303 10.1602 15.5303 9.80859C15.5303 9.29004 15.0996 8.85938 14.5811 8.85938C13.9922 8.85938 13.5527 9.4043 13.667 9.98438C14.1504 10.1602 14.5986 10.3887 15.0205 10.6348ZM17.3584 10.749C17.8682 10.749 18.2988 10.3184 18.2988 9.80859C18.2988 9.29004 17.8682 8.85938 17.3584 8.85938C16.8398 8.85938 16.4092 9.29004 16.4092 9.80859C16.4092 10.3184 16.8398 10.749 17.3584 10.749ZM20.127 10.5205C20.5225 10.5205 20.8477 10.1953 20.8477 9.80859C20.8477 9.41309 20.5225 9.08789 20.127 9.08789C19.7314 9.08789 19.4062 9.41309 19.4062 9.80859C19.4062 10.1953 19.7314 10.5205 20.127 10.5205ZM0.720703 13.3242C0.984375 13.3242 1.21289 13.1045 1.21289 12.832C1.21289 12.5684 0.984375 12.3398 0.720703 12.3398C0.448242 12.3398 0.228516 12.5684 0.228516 12.832C0.228516 13.1045 0.448242 13.3242 0.720703 13.3242ZM3.18164 13.4736C3.38379 13.0693 3.64746 12.665 3.94629 12.2871C3.82324 12.1816 3.66504 12.1201 3.48926 12.1201C3.09375 12.1201 2.76855 12.4453 2.76855 12.832C2.76855 13.1133 2.93555 13.3594 3.18164 13.4736ZM17.7012 13.4648C17.9121 13.3418 18.0703 13.1045 18.0703 12.832C18.0703 12.4453 17.7451 12.1201 17.3584 12.1201C17.1826 12.1201 17.042 12.1729 16.9189 12.2607C17.2354 12.6475 17.4902 13.0518 17.7012 13.4648ZM20.127 13.3242C20.3906 13.3242 20.6191 13.1045 20.6191 12.832C20.6191 12.5684 20.3906 12.3398 20.127 12.3398C19.8545 12.3398 19.6348 12.5684 19.6348 12.832C19.6348 13.1045 19.8545 13.3242 20.127 13.3242ZM0.720703 16.3564C0.984375 16.3564 1.21289 16.1367 1.21289 15.8643C1.21289 15.5918 0.984375 15.3721 0.720703 15.3721C0.448242 15.3721 0.228516 15.5918 0.228516 15.8643C0.228516 16.1367 0.448242 16.3564 0.720703 16.3564ZM20.127 16.3564C20.3906 16.3564 20.6191 16.1367 20.6191 15.8643C20.6191 15.5918 20.3906 15.3721 20.127 15.3721C19.8545 15.3721 19.6348 15.5918 19.6348 15.8643C19.6348 16.1367 19.8545 16.3564 20.127 16.3564Z" fill="#ffffff" fill-opacity="0.425"/>
  <path d="M10.4414 9.87012C12.0498 9.87012 13.4736 8.40234 13.4736 6.53027C13.4736 4.6582 12.0498 3.2959 10.4414 3.2959C8.8418 3.2959 7.41797 4.69336 7.41797 6.54785C7.41797 8.40234 8.8418 9.87012 10.4414 9.87012ZM5.94141 16.5234L14.9414 16.5234C16.2422 16.5234 16.6377 16.1543 16.6377 15.5039C16.6377 13.6055 14.2734 10.9863 10.4414 10.9863C6.61816 10.9863 4.25391 13.6055 4.25391 15.5039C4.25391 16.1543 4.64062 16.5234 5.94141 16.5234Z" fill="#ffffff" fill-opacity="0.85"/>
 </g>
</svg>
