<?xml version="1.0" encoding="UTF-8"?>
<!--Generator: Apple Native CoreSVG 175.5-->
<!DOCTYPE svg
PUBLIC "-//W3C//DTD SVG 1.1//EN"
       "http://www.w3.org/Graphics/SVG/1.1/DTD/svg11.dtd">
<svg version="1.1" xmlns="http://www.w3.org/2000/svg" xmlns:xlink="http://www.w3.org/1999/xlink" width="18.4131" height="19.2568">
 <g>
  <rect height="19.2568" opacity="0" width="18.4131" x="0" y="0"/>
  <path d="M11.0039 19.2568C11.6367 19.2568 12.085 18.7119 12.4102 17.8682L18.167 2.83008C18.3252 2.42578 18.4131 2.06543 18.4131 1.7666C18.4131 1.19531 18.0615 0.84375 17.4902 0.84375C17.1914 0.84375 16.8311 0.931641 16.4268 1.08984L1.30957 6.88184C0.571289 7.16309 0 7.61133 0 8.25293C0 9.06152 0.615234 9.33398 1.45898 9.58887L6.20508 11.0303C6.76758 11.2061 7.08398 11.1885 7.46191 10.8369L17.1035 1.82812C17.2178 1.72266 17.3496 1.74023 17.4375 1.81934C17.5254 1.90723 17.5342 2.03906 17.4287 2.15332L8.45508 11.8301C8.1123 12.1904 8.08594 12.4893 8.25293 13.0781L9.65039 17.7188C9.91406 18.6064 10.1865 19.2568 11.0039 19.2568Z" fill="#ffffff" fill-opacity="0.85"/>
 </g>
</svg>
