<svg width="46" height="46" viewBox="0 0 46 46" fill="none" xmlns="http://www.w3.org/2000/svg">
<circle cx="23" cy="23" r="23" fill="#F9F9F9"/>
<path d="M20 14.75C20 14.3358 19.6642 14 19.25 14H14C12.3431 14 11 15.3431 11 17V29C11 30.6569 12.3431 32 14 32H32C33.6569 32 35 30.6569 35 29V25.75C35 25.3358 34.6642 25 34.25 25C33.8358 25 33.5 25.3358 33.5 25.75V29C33.5 29.8284 32.8284 30.5 32 30.5H14C13.1716 30.5 12.5 29.8284 12.5 29V17C12.5 16.1716 13.1716 15.5 14 15.5H19.25C19.6642 15.5 20 15.1642 20 14.75Z" fill="#979797"/>
<path d="M14.5 19L19.5 19" stroke="#979797" stroke-width="1.5" stroke-linecap="round"/>
<path d="M14.5 28L18 28" stroke="#979797" stroke-width="1.5" stroke-linecap="round"/>
<circle cx="29" cy="17" r="7.25" stroke="#979797" stroke-width="1.5"/>
<path d="M27.4689 17.7305C27.7618 18.0234 28.2366 18.0234 28.5295 17.7305C28.8224 17.4376 28.8224 16.9628 28.5295 16.6699L27.8597 16H29.7C30.5285 16 31.2 16.6716 31.2 17.5C31.2 18.3284 30.5285 19 29.7 19H27.7497C27.3355 19 26.9997 19.3358 26.9997 19.75C26.9997 20.1642 27.3355 20.5 27.7497 20.5H29.7C31.3569 20.5 32.7 19.1569 32.7 17.5C32.7 15.8431 31.3569 14.5 29.7 14.5H27.76L28.5295 13.7305C28.8224 13.4376 28.8224 12.9628 28.5295 12.6699C28.2366 12.377 27.7618 12.377 27.4689 12.6699L25.6103 14.5284C25.2393 14.8994 25.2393 15.5009 25.6103 15.8719L27.4689 17.7305Z" fill="#979797"/>
</svg>
