<svg width="46" height="46" viewBox="0 0 46 46" fill="none" xmlns="http://www.w3.org/2000/svg">
<circle cx="23" cy="23" r="23" fill="#2F293F"/>
<path d="M35 20.4815C35 19.1471 35 18.0715 34.8903 17.2256C34.7764 16.3473 34.5328 15.6078 33.9663 15.0205C33.3997 14.4332 32.6865 14.1806 31.8393 14.0625C31.6561 14.037 31.4618 14.0172 31.256 14.0018C30.8588 13.9722 30.5294 14.3067 30.5294 14.7196C30.5294 15.1152 30.8329 15.4353 31.2134 15.466C31.3687 15.4785 31.5142 15.494 31.6512 15.5131C32.3418 15.6093 32.7075 15.7854 32.968 16.0554C33.2285 16.3255 33.3983 16.7046 33.4912 17.4206C33.5867 18.1576 33.5882 19.1345 33.5882 20.5351V25.4138C33.5882 26.8144 33.5867 27.7912 33.4912 28.5282C33.3983 29.2442 33.2285 29.6233 32.968 29.8934C32.7075 30.1634 32.3418 30.3395 31.6512 30.4357C30.9403 30.5348 29.998 30.5364 28.6471 30.5364H17.3529C16.002 30.5364 15.0597 30.5348 14.3488 30.4357C13.6582 30.3395 13.2925 30.1634 13.032 29.8934C12.7715 29.6233 12.6017 29.2442 12.5088 28.5282C12.4133 27.7912 12.4118 26.8144 12.4118 25.4138L12.4118 20.5351C12.4118 19.1345 12.4133 18.1576 12.5088 17.4206C12.6017 16.7046 12.7715 16.3255 13.032 16.0554C13.2925 15.7854 13.6582 15.6093 14.3488 15.5131C14.4858 15.494 14.6313 15.4785 14.7866 15.466C15.1671 15.4353 15.4706 15.1152 15.4706 14.7196C15.4706 14.3067 15.1412 13.9722 14.744 14.0018C14.5382 14.0172 14.3439 14.037 14.1607 14.0625C13.3135 14.1806 12.6003 14.4332 12.0337 15.0205C11.4672 15.6078 11.2236 16.3473 11.1097 17.2256C11 18.0715 11 19.1471 11 20.4815L11 25.4673C11 26.8017 11 27.8773 11.1097 28.7232C11.2236 29.6015 11.4672 30.341 12.0337 30.9283C12.6003 31.5156 13.3135 31.7682 14.1607 31.8863C14.9767 32 16.0142 32 17.3013 32H28.6987C29.9858 32 31.0233 32 31.8393 31.8863C32.6865 31.7682 33.3997 31.5156 33.9663 30.9283C34.5328 30.341 34.7764 29.6015 34.8903 28.7232C35 27.8773 35 26.8017 35 25.4673V20.4815Z" fill="#97949F"/>
<path d="M22.4697 25.5303C22.7626 25.8232 23.2374 25.8232 23.5303 25.5303L28.3033 20.7574C28.5962 20.4645 28.5962 19.9896 28.3033 19.6967C28.0104 19.4038 27.5355 19.4038 27.2426 19.6967L23 23.9393L18.7574 19.6967C18.4645 19.4038 17.9896 19.4038 17.6967 19.6967C17.4038 19.9896 17.4038 20.4645 17.6967 20.7574L22.4697 25.5303ZM23.75 14C23.75 13.5858 23.4142 13.25 23 13.25C22.5858 13.25 22.25 13.5858 22.25 14L23.75 14ZM23.75 25L23.75 14L22.25 14L22.25 25L23.75 25Z" fill="#97949F"/>
</svg>
