<svg width="46" height="46" viewBox="0 0 46 46" fill="none" xmlns="http://www.w3.org/2000/svg">
<circle cx="23" cy="23" r="23" fill="#38353A"/>
<path d="M19.3581 10.0712C17.6289 10.4151 16.3793 11.6502 15.9288 13.4666C15.7884 14.0333 15.7787 15.0649 15.9046 15.6462C16.1613 16.8474 16.8975 18.0243 18.1908 19.3176C19.4162 20.5381 23.228 23.8075 23.5332 23.8996C23.9013 24.0061 23.9691 23.9625 25.8193 22.3884C27.8246 20.6786 28.2944 20.2669 29.1081 19.4677C30.9099 17.7047 31.6413 16.3146 31.6413 14.6435C31.6461 12.1104 29.9364 10.1584 27.5872 10.0083C26.6621 9.95014 25.7806 10.202 25.0202 10.7445C24.6908 10.977 24.1241 11.5582 23.8868 11.8972L23.7318 12.1249L23.4412 11.7374C23.1166 11.3063 22.642 10.8607 22.2351 10.5992C21.4359 10.0906 20.3025 9.88233 19.3581 10.0712ZM20.9516 11.5873C21.7798 11.8827 22.4773 12.6528 22.9277 13.7717C23.1845 14.4014 23.3346 14.5467 23.7463 14.5467C24.0563 14.5467 24.2549 14.4062 24.3953 14.072C24.7199 13.3309 24.7925 13.1856 25.0298 12.8175C25.7467 11.7132 26.851 11.2434 28.0183 11.5437C28.5463 11.6793 28.8369 11.8488 29.2583 12.2702C29.8928 12.8999 30.1931 13.6506 30.1882 14.5951C30.1882 15.249 30.0914 15.6558 29.7911 16.2661C29.2244 17.4189 28.3283 18.344 25.1994 21.008L23.7318 22.2576L23.6252 22.1656C23.5671 22.1123 23.0052 21.6376 22.3804 21.1097C20.6271 19.6227 20.1815 19.2352 19.4355 18.499C18.6654 17.7434 18.3022 17.322 17.9389 16.765C17.0574 15.4185 17.0235 13.8976 17.8372 12.6771C18.2537 12.0522 18.9076 11.6212 19.668 11.4759C19.9393 11.4226 20.6658 11.4855 20.9516 11.5873Z" fill="#9B9A9C"/>
<path d="M19.234 24.3643C18.4203 24.4515 17.5194 24.8099 16.8219 25.3185L16.5265 25.5365L16.2649 25.2798C16.1196 25.1344 15.892 24.9601 15.7564 24.8923C15.2575 24.6404 15.088 24.621 13.2813 24.621C11.6926 24.621 11.6006 24.6259 11.4069 24.7227C11.2567 24.7954 11.1744 24.8777 11.1017 25.0279C11 25.2313 11 25.2894 11 29.7068C11 34.0805 11 34.187 11.0969 34.3808C11.1598 34.5067 11.2616 34.6181 11.3826 34.6859C11.5667 34.7876 11.6103 34.7925 13.2571 34.7925C14.4922 34.7925 15.0201 34.7731 15.2187 34.7247C15.5384 34.652 15.9937 34.4098 16.2117 34.2016L16.3667 34.0563L17.1562 34.25C17.5921 34.3614 18.2024 34.4922 18.5075 34.5455C19.7329 34.7586 20.0332 34.7683 24.344 34.7683C28.1655 34.7683 28.4901 34.7634 28.8485 34.6811C29.9237 34.4341 30.9506 33.8335 31.6141 33.0633C32.0549 32.5548 35.3824 28.089 35.5423 27.7936C36.23 26.5149 35.4018 24.8923 33.939 24.6646C33.3724 24.5774 32.7136 24.747 32.268 25.1005C32.1712 25.178 31.5996 25.7689 31.0039 26.4083C30.4081 27.0525 29.9092 27.5756 29.8947 27.5756C29.8802 27.5756 29.8123 27.4497 29.7445 27.2995C29.5411 26.8248 28.9986 26.3599 28.4126 26.1564C28.3254 26.1225 27.4196 26.0935 26.1361 26.0789C23.6707 26.045 23.816 26.0741 23.0701 25.5074C22.4986 25.0763 22.0724 24.8341 21.5541 24.6501C20.813 24.3837 19.9896 24.282 19.234 24.3643ZM20.7598 25.9046C21.186 26.0208 21.6849 26.2775 22.0675 26.5778C22.5567 26.9653 22.9829 27.2123 23.4237 27.3673L23.8112 27.5029L25.9181 27.5272C27.8798 27.5514 28.0348 27.5562 28.1801 27.6434C28.3641 27.7548 28.5336 28.0454 28.5336 28.2488C28.5336 28.4959 28.3641 28.7719 28.1462 28.8834C27.9621 28.9754 27.8652 28.9802 25.24 28.9802C23.0459 28.9802 22.4937 28.9948 22.3678 29.048C21.7624 29.3047 21.8011 30.2056 22.4308 30.3897C22.5422 30.4236 23.6465 30.4333 25.676 30.4236L28.7516 30.4091L29.0568 30.2783C29.2263 30.2105 29.4394 30.0991 29.5314 30.0361C29.6283 29.978 30.4662 29.1062 31.3962 28.1084C32.3261 27.1106 33.1689 26.2436 33.2706 26.1855C33.4934 26.0499 33.6775 26.045 33.939 26.1758C34.0892 26.2485 34.1715 26.3308 34.2442 26.481C34.3653 26.7231 34.3701 26.8442 34.2781 27.0622C34.2393 27.1494 33.3966 28.3118 32.3988 29.6389C30.3597 32.3562 30.1659 32.5693 29.4345 32.9277C28.6111 33.3346 28.8727 33.3104 24.7315 33.3297C20.072 33.3491 19.4181 33.3104 17.626 32.8744L16.9091 32.7001V29.9199V27.1397L17.1319 26.9362C17.8294 26.2921 18.5027 25.9433 19.3067 25.8125C19.5731 25.7738 20.4643 25.8271 20.7598 25.9046ZM15.0783 26.1807C15.1945 26.2485 15.3108 26.3647 15.364 26.4713C15.4512 26.6408 15.4561 26.8006 15.4561 29.7068C15.4561 32.671 15.4512 32.7679 15.3592 32.9519C15.2962 33.0779 15.1945 33.1796 15.0686 33.2425C14.8942 33.3297 14.7877 33.3394 13.664 33.3394H12.4531V29.7068V26.0741H13.6688C14.8409 26.0741 14.8942 26.0789 15.0783 26.1807Z" fill="#9B9A9C"/>
</svg>
