<svg width="288" height="209" viewBox="0 0 288 209" fill="none" xmlns="http://www.w3.org/2000/svg">
<ellipse cx="163.402" cy="197.792" rx="62.515" ry="4.31138" fill="black" fill-opacity="0.05"/>
<g clip-path="url(#clip0_20383_72559)">
<rect x="68.3398" y="167.973" width="104.59" height="171.593" rx="4.87168" transform="rotate(-98.196 68.3398 167.973)" fill="url(#paint0_linear_20383_72559)"/>
<rect x="68.3398" y="167.973" width="104.59" height="171.593" rx="4.87168" transform="rotate(-98.196 68.3398 167.973)" fill="url(#paint1_linear_20383_72559)"/>
<rect x="72.3145" y="142.082" width="35.408" height="5.44739" rx="2.7237" transform="rotate(-8.19598 72.3145 142.082)" fill="white" fill-opacity="0.2"/>
<rect x="73.7129" y="151.789" width="56.6529" height="7.62635" rx="3.81317" transform="rotate(-8.19598 73.7129 151.789)" fill="white" fill-opacity="0.2"/>
<rect x="199.57" y="131.457" width="28.8712" height="9.8053" rx="4.90265" transform="rotate(-8.19598 199.57 131.457)" fill="white" fill-opacity="0.4"/>
<ellipse cx="154.081" cy="46.6304" rx="25.016" ry="25.3722" transform="rotate(-0.311387 154.081 46.6304)" fill="black" fill-opacity="0.5"/>
<ellipse cx="56.6906" cy="103.365" rx="25.016" ry="25.3722" transform="rotate(-0.311387 56.6906 103.365)" fill="white" fill-opacity="0.08"/>
<ellipse cx="102.909" cy="57.2937" rx="16.0975" ry="16.3267" transform="rotate(-0.311387 102.909 57.2937)" fill="black"/>
<path d="M54.0352 176.184C181.671 136.997 234.447 66.2003 243.428 36.8384L261.88 148.105L54.0352 176.184Z" fill="white" fill-opacity="0.1"/>
<path d="M86.6348 118.383L87.3186 120.392C87.5366 121.033 88.1343 121.466 88.8107 121.475L90.9333 121.502L88.9278 122.2C88.2964 122.419 87.8686 123.009 87.8556 123.677L87.8141 125.8L87.1303 123.791C86.9124 123.15 86.3146 122.717 85.6382 122.708L83.5157 122.681L85.5252 121.997C86.1656 121.78 86.5993 121.182 86.6079 120.505L86.6348 118.383Z" fill="white"/>
<path d="M124.332 132.18L124.676 133.19C124.894 133.83 125.491 134.264 126.168 134.272L127.235 134.286L126.222 134.639C125.59 134.858 125.162 135.448 125.149 136.116L125.128 137.189L124.785 136.179C124.567 135.538 123.969 135.104 123.293 135.096L122.226 135.082L123.236 134.739C123.876 134.521 124.31 133.923 124.319 133.247L124.332 132.18Z" fill="white"/>
<path d="M112.051 81.125L113.165 84.4C113.383 85.0404 113.981 85.4742 114.657 85.4827L118.117 85.5265L114.855 86.6616C114.223 86.8813 113.796 87.4708 113.782 88.1392L113.715 91.5923L112.601 88.3173C112.383 87.6768 111.785 87.2431 111.108 87.2345L107.649 87.1908L110.924 86.0763C111.565 85.8583 111.998 85.2606 112.007 84.5841L112.051 81.125Z" fill="white"/>
<path fill-rule="evenodd" clip-rule="evenodd" d="M133.152 101.883L135.713 119.437C137.29 120.203 138.967 120.779 140.711 121.14L137.804 101.205C137.22 97.1975 139.994 93.4765 144.001 92.8921C148.008 92.3077 151.729 95.0815 152.314 99.0889C152.898 103.096 150.124 106.817 146.117 107.402C145.2 107.536 144.297 107.493 143.444 107.3L144.151 112.147C145.016 112.212 145.901 112.184 146.795 112.054C153.371 111.095 157.924 104.986 156.965 98.4105C156.006 91.8353 149.898 87.2812 143.322 88.2402C136.747 89.1991 132.194 95.3086 133.152 101.883Z" fill="white"/>
</g>
<path d="M191.371 108.23L191.75 110.326C191.871 110.994 192.398 111.521 193.066 111.643L195.161 112.024L193.074 112.377C192.418 112.488 191.907 112.998 191.796 113.655L191.441 115.741L191.061 113.645C190.941 112.977 190.414 112.45 189.746 112.328L187.651 111.947L189.739 111.609C190.405 111.501 190.922 110.984 191.031 110.319L191.371 108.23Z" fill="white"/>
<path d="M259.736 66.6445L260.43 70.4758C260.55 71.1437 261.077 71.6712 261.745 71.7927L265.576 72.4898L261.77 73.1334C261.113 73.2444 260.603 73.7542 260.491 74.411L259.843 78.2163L259.15 74.385C259.029 73.7172 258.502 73.1896 257.835 73.0681L254.004 72.3711L257.822 71.7525C258.488 71.6447 259.005 71.1278 259.114 70.4623L259.736 66.6445Z" fill="#353535"/>
<path d="M34.6934 119.246L35.198 122.035C35.3188 122.703 35.8458 123.231 36.5136 123.352L39.3021 123.859L36.5285 124.328C35.8717 124.44 35.3614 124.949 35.2496 125.606L34.7778 128.379L34.2732 125.59C34.1524 124.922 33.6254 124.395 32.9576 124.273L30.1691 123.766L32.9488 123.315C33.6144 123.208 34.1317 122.691 34.2402 122.025L34.6934 119.246Z" fill="#353535"/>
<path d="M124.025 33.8828L124.341 35.6296C124.462 36.2975 124.989 36.825 125.657 36.9465L127.403 37.2643L125.662 37.5587C125.006 37.6698 124.495 38.1795 124.383 38.8363L124.087 40.5771L123.771 38.8303C123.65 38.1625 123.123 37.6349 122.456 37.5134L120.709 37.1956L122.45 36.9136C123.116 36.8058 123.633 36.2889 123.742 35.6234L124.025 33.8828Z" fill="#353535"/>
<path d="M260.236 32.4531L260.543 34.1495C260.664 34.8174 261.191 35.3449 261.859 35.4664L263.555 35.7751L261.864 36.061C261.207 36.1721 260.697 36.6819 260.585 37.3386L260.297 39.0295L259.99 37.3331C259.869 36.6653 259.342 36.1377 258.675 36.0162L256.979 35.7076L258.669 35.4337C259.335 35.3259 259.852 34.8091 259.961 34.1435L260.236 32.4531Z" fill="#353535"/>
<path d="M188.273 149.43L188.991 153.603C189.106 154.269 189.628 154.792 190.295 154.906L194.468 155.624L190.309 156.369C189.651 156.486 189.136 157.002 189.018 157.66L188.273 161.818L187.556 157.645C187.441 156.979 186.919 156.456 186.252 156.342L182.079 155.624L186.252 154.906C186.919 154.792 187.441 154.269 187.556 153.603L188.273 149.43Z" fill="white"/>
<path d="M60.3576 198.069C65.2419 199.369 76.7009 198.544 83.4632 184.848C86.9377 177.048 77.7877 180.275 79.0962 182.902C80.4047 185.53 91.1784 191.644 96.8406 177.078" stroke="#FD9B4C" stroke-width="0.729025" stroke-linecap="round"/>
<path d="M97.4434 178.516L96.952 176.836L95.3749 177.594" stroke="#FD9B4C" stroke-width="0.729025" stroke-linecap="round" stroke-linejoin="round"/>
<path d="M49.5586 147.703L50.333 152.206C50.468 152.991 51.0828 153.605 51.8677 153.74L56.3702 154.515L51.882 155.319C51.1074 155.457 50.501 156.064 50.3623 156.838L49.5586 161.326L48.7841 156.824C48.6491 156.039 48.0344 155.424 47.2495 155.289L42.7469 154.515L47.2495 153.74C48.0344 153.605 48.6492 152.991 48.7842 152.206L49.5586 147.703Z" fill="#FD9B4C"/>
<path d="M37.4844 61.4766L37.9009 63.8982C38.0359 64.6831 38.6506 65.2978 39.4355 65.4328L41.8571 65.8493L39.4374 66.2826C38.6628 66.4214 38.0564 67.0277 37.9177 67.8023L37.4844 70.2221L37.0679 67.8005C36.9329 67.0156 36.3181 66.4008 35.5332 66.2659L33.1116 65.8493L35.5332 65.4328C36.3181 65.2978 36.9329 64.6831 37.0679 63.8982L37.4844 61.4766Z" fill="#FD9B4C"/>
<path d="M256.635 118.387L257.13 121.265C257.216 121.767 257.609 122.16 258.111 122.246L260.99 122.741L258.12 123.255C257.625 123.344 257.237 123.732 257.149 124.227L256.635 127.096L256.14 124.218C256.053 123.716 255.66 123.323 255.159 123.237L252.28 122.741L255.159 122.246C255.66 122.16 256.053 121.767 256.14 121.265L256.635 118.387Z" fill="#FD9B4C"/>
<mask id="mask0_20383_72559" style="mask-type:alpha" maskUnits="userSpaceOnUse" x="100" y="47" width="134" height="139">
<path fill-rule="evenodd" clip-rule="evenodd" d="M198.543 100.955C202.351 119.039 194.979 138.409 178.55 149.077C169.941 154.668 160.16 157.014 150.645 156.422L101.177 163.634L100.95 163.781C125.421 187.929 164.205 192.709 194.225 173.216C222.649 154.758 234.39 120.271 225.282 89.3415C230.669 86.7654 233.449 84.7228 233.801 81.666C234.296 77.3703 229.665 73.9354 220.405 67.0656L210.249 59.5323C200.988 52.6624 196.358 49.2275 192.39 50.947C188.423 52.6665 187.763 58.394 186.444 69.8491L184.998 82.4105C183.679 93.8656 183.02 99.5931 186.492 102.169C189.055 104.07 192.607 103.32 198.543 100.955ZM112.17 48.0539L113.267 47.3417C113.084 47.4587 112.9 47.5766 112.717 47.6954C112.534 47.8143 112.352 47.9338 112.17 48.0539Z" fill="white"/>
</mask>
<g mask="url(#mask0_20383_72559)">
<path d="M198.545 100.956C202.351 119.04 194.979 138.408 178.551 149.076C169.94 154.668 160.158 157.014 150.641 156.42L101.174 163.632L100.949 163.778C125.42 187.928 164.205 192.709 194.226 173.215C222.649 154.758 234.39 120.271 225.284 89.3427C230.669 86.7671 233.449 84.7247 233.801 81.6682C234.295 77.3726 229.665 73.9377 220.404 67.0678L210.249 59.5345C200.988 52.6647 196.357 49.2298 192.39 50.9492C188.423 52.6687 187.763 58.3963 186.444 69.8514L184.998 82.4127C183.679 93.8678 183.019 99.5954 186.492 102.172C189.055 104.073 192.607 103.322 198.545 100.956Z" fill="white"/>
<path d="M112.644 47.7426L112.793 47.6462L112.719 47.6943L112.644 47.7426Z" fill="white"/>
<path d="M228.754 68.7536C247.916 98.2629 236.302 145.716 193.866 173.273C151.429 200.829 103.355 192.135 84.1929 162.625C65.0308 133.116 76.6444 85.6626 119.081 58.106C161.518 30.5494 209.592 39.2443 228.754 68.7536Z" stroke="black" stroke-opacity="0.05" stroke-width="32.6946"/>
</g>
<mask id="mask1_20383_72559" style="mask-type:alpha" maskUnits="userSpaceOnUse" x="130" y="16" width="52" height="52">
<path d="M136.615 58.3592C145.674 69.0897 161.826 70.3522 172.691 61.1791C183.556 52.006 185.019 35.8709 175.959 25.1403C166.899 14.4098 150.747 13.1472 139.882 22.3204C129.018 31.4935 127.555 47.6286 136.615 58.3592Z" fill="white"/>
</mask>
<g mask="url(#mask1_20383_72559)">
<path d="M136.615 58.3592C145.674 69.0897 161.826 70.3522 172.691 61.1791C183.556 52.006 185.019 35.8709 175.959 25.1403C166.899 14.4098 150.747 13.1472 139.882 22.3204C129.018 31.4935 127.555 47.6286 136.615 58.3592Z" fill="white"/>
<path d="M183.93 48.7668C155.676 61.8052 136.234 46.2309 130.046 36.8139L127.264 60.7659L163.81 79.715L183.93 48.7668Z" fill="black" fill-opacity="0.03"/>
<path d="M137.341 57.744C146.054 68.0636 161.603 69.2911 172.074 60.4505C182.545 51.6099 183.941 36.0751 175.228 25.7555C166.516 15.4358 150.966 14.2083 140.496 23.049C130.025 31.8896 128.628 47.4243 137.341 57.744Z" stroke="#FD9B4C" stroke-width="1.90713"/>
<path d="M173.966 46.4731L175.376 47.9625L177.425 47.8618L175.935 49.2717L176.036 51.3201L174.626 49.8306L172.578 49.9313L174.067 48.5215L173.966 46.4731Z" fill="white"/>
<path d="M133.255 42.8504L133.725 43.3469L134.408 43.3133L133.911 43.7833L133.945 44.4661L133.475 43.9696L132.792 44.0032L133.289 43.5332L133.255 42.8504Z" fill="white"/>
<path fill-rule="evenodd" clip-rule="evenodd" d="M150.166 27.4086C151.305 26.9221 152.623 27.4514 153.11 28.5907L153.989 30.6507L157.428 29.1824C158.567 28.696 159.885 29.2252 160.372 30.3646C160.858 31.5039 160.329 32.8219 159.19 33.3083L153.801 35.6092C153.764 35.6272 153.727 35.6442 153.689 35.6604C153.651 35.6765 153.613 35.6916 153.575 35.7055L150.938 36.8315C150.665 36.9479 150.445 37.0423 150.255 37.127C150.333 37.3193 150.428 37.5403 150.544 37.8128L151.718 40.5634C151.835 40.8359 151.929 41.0568 152.014 41.2465C152.206 41.168 152.427 41.0738 152.7 40.9574L158.201 38.6086L158.295 38.5682C158.86 38.327 159.47 38.0663 160.014 37.9157C160.652 37.7392 161.512 37.6188 162.437 37.9904C163.363 38.3621 163.9 39.0437 164.239 39.6124C164.528 40.0977 164.788 40.7078 165.029 41.2721L165.029 41.2722L165.029 41.2722L165.07 41.367L166.244 44.1176L166.284 44.2123L166.284 44.2123L166.284 44.2124C166.526 44.7764 166.786 45.3864 166.937 45.9309C167.113 46.5688 167.234 47.4285 166.862 48.354C166.49 49.2796 165.809 49.8172 165.24 50.1559C164.755 50.445 164.145 50.7052 163.58 50.9459L163.486 50.9863L162.796 51.2808L163.678 53.3465C164.164 54.4858 163.635 55.8038 162.496 56.2902C161.356 56.7767 160.038 56.2474 159.552 55.1081L158.67 53.0424L155.234 54.5096C154.094 54.996 152.776 54.4667 152.29 53.3274C151.804 52.1881 152.333 50.8701 153.472 50.3837L161.724 46.8604C161.996 46.7441 162.217 46.6497 162.407 46.565C162.329 46.3727 162.234 46.1517 162.118 45.8792L160.944 43.1286C160.827 42.8561 160.733 42.6352 160.648 42.4455C160.456 42.5239 160.235 42.6182 159.962 42.7345L154.461 45.0833L154.366 45.1238L154.366 45.1238C153.802 45.3649 153.192 45.6257 152.648 45.7763C152.01 45.9528 151.15 46.0732 150.225 45.7016C149.299 45.3299 148.762 44.6483 148.423 44.0796C148.134 43.5942 147.873 42.9841 147.633 42.4198L147.592 42.325L146.418 39.5744L146.377 39.4797C146.136 38.9156 145.876 38.3056 145.725 37.7611C145.549 37.1232 145.428 36.2634 145.8 35.3379C146.171 34.4124 146.853 33.8748 147.422 33.5361C147.907 33.247 148.517 32.9867 149.082 32.7461L149.176 32.7056L149.863 32.4123L148.984 30.3523C148.497 29.213 149.027 27.895 150.166 27.4086Z" fill="#353535"/>
</g>
<path d="M40.0347 97.7322C43.7894 107.845 55.687 116.042 66.6088 116.042C77.5305 116.042 85.3069 106.842 81.5522 96.7293C77.7974 86.6169 64.6762 77.168 53.7545 77.168C42.8327 77.168 36.2799 87.6199 40.0347 97.7322Z" fill="#FD9B4C"/>
<path d="M40.0347 97.7322C43.7894 107.845 55.687 116.042 66.6088 116.042C77.5305 116.042 85.3069 106.842 81.5522 96.7293C77.7974 86.6169 64.6762 77.168 53.7545 77.168C42.8327 77.168 36.2799 87.6199 40.0347 97.7322Z" fill="black" fill-opacity="0.2"/>
<g clip-path="url(#clip1_20383_72559)">
<mask id="mask2_20383_72559" style="mask-type:alpha" maskUnits="userSpaceOnUse" x="40" y="76" width="43" height="37">
<path d="M42.0911 94.646C45.8458 104.758 57.7435 112.956 68.6652 112.956C79.587 112.956 85.397 104.758 81.6423 94.646C77.8876 84.5336 65.9899 76.3359 55.0682 76.3359C44.1464 76.3359 38.3364 84.5336 42.0911 94.646Z" fill="white"/>
</mask>
<g mask="url(#mask2_20383_72559)">
<path d="M42.0911 94.646C45.8458 104.758 57.7435 112.956 68.6652 112.956C79.587 112.956 85.397 104.758 81.6423 94.646C77.8876 84.5336 65.9899 76.3359 55.0682 76.3359C44.1464 76.3359 38.3364 84.5336 42.0911 94.646Z" fill="white"/>
<path d="M90.9997 107.573C56.841 108.177 43.9219 93.3958 41.7322 85.9297L28.5938 100.023L57.3332 121.415L90.9997 107.573Z" fill="black" fill-opacity="0.03"/>
</g>
<path d="M42.8216 94.646C46.4325 104.371 57.8825 112.269 68.4083 112.269C78.9342 112.269 84.5188 104.371 80.9079 94.646C77.297 84.9209 65.847 77.0226 55.3211 77.0226C44.7953 77.0226 39.2106 84.9209 42.8216 94.646Z" stroke="#FD9B4C" stroke-width="1.46486"/>
<path fill-rule="evenodd" clip-rule="evenodd" d="M57.4458 84.5154C58.6491 84.4843 59.9525 85.1177 60.357 85.9302L61.0877 87.3979L64.7196 87.3039C65.9229 87.2727 67.2263 87.9062 67.6308 88.7187C68.0354 89.5312 67.3878 90.2151 66.1845 90.2463L60.5268 90.3927C60.4774 90.3964 60.4271 90.3989 60.3757 90.4003C60.3243 90.4016 60.2727 90.4017 60.221 90.4006L57.4695 90.4719C57.1817 90.4793 56.9484 90.4854 56.7477 90.4928C56.8123 90.6292 56.8906 90.7867 56.9874 90.9811L57.964 92.9427C58.0608 93.137 58.1393 93.2946 58.2104 93.4307C58.4132 93.4277 58.6466 93.4217 58.9344 93.4143L64.7444 93.2639L64.8445 93.2613C65.4403 93.2457 66.0845 93.2289 66.653 93.2642C67.3189 93.3055 68.2069 93.4332 69.1222 93.878C70.0375 94.3229 70.5314 94.8668 70.8313 95.2948C71.0872 95.6602 71.3036 96.0952 71.5037 96.4976L71.5373 96.5652L72.5139 98.5268L72.5476 98.5943C72.7481 98.9967 72.965 99.4318 73.0747 99.8009C73.2032 100.233 73.2566 100.789 72.8019 101.269C72.3471 101.749 71.6073 101.919 70.9989 101.993C70.4796 102.057 69.8353 102.073 69.2393 102.089L69.1392 102.091L68.4113 102.11L69.1453 103.584C69.5498 104.397 68.9023 105.081 67.699 105.112C66.4957 105.143 65.1923 104.51 64.7878 103.697L64.0537 102.223L60.4242 102.317C59.2209 102.348 57.9175 101.714 57.5129 100.902C57.1084 100.089 57.756 99.4055 58.9592 99.3743L67.6743 99.1488C67.9621 99.1413 68.1954 99.1352 68.3961 99.1278C68.3315 98.9915 68.2532 98.8339 68.1564 98.6396L67.1798 96.6779C67.083 96.4836 67.0045 96.3261 66.9334 96.1899C66.7305 96.1929 66.4972 96.1989 66.2094 96.2063L60.3993 96.3567L60.2993 96.3593C59.7035 96.3749 59.0593 96.3918 58.4908 96.3565C57.8249 96.3151 56.9369 96.1874 56.0216 95.7426C55.1063 95.2978 54.6124 94.7539 54.3125 94.3258C54.0565 93.9605 53.8402 93.5254 53.6401 93.123L53.6065 93.0555L52.6299 91.0939L52.5962 91.0263L52.5962 91.0263L52.5962 91.0263C52.3956 90.6239 52.1788 90.1889 52.0691 89.8197C51.9405 89.3873 51.8872 88.832 52.3419 88.3517C52.7966 87.8714 53.5365 87.7016 54.1449 87.6272C54.6642 87.5638 55.3086 87.5473 55.9045 87.532L56.0046 87.5294L56.7302 87.5107L55.9995 86.043C55.595 85.2305 56.2425 84.5465 57.4458 84.5154Z" fill="#353535"/>
</g>
<mask id="mask3_20383_72559" style="mask-type:alpha" maskUnits="userSpaceOnUse" x="86" y="45" width="29" height="27">
<path d="M86.6822 58.6652C85.0473 65.8671 89.7836 71.7054 97.2611 71.7054C104.739 71.7054 112.126 65.8671 113.76 58.6652C115.395 51.4633 110.659 45.625 103.182 45.625C95.7041 45.625 88.3171 51.4633 86.6822 58.6652Z" fill="#B4974A"/>
</mask>
<g mask="url(#mask3_20383_72559)">
<path d="M86.6803 58.6652C85.0453 65.8671 89.7817 71.7054 97.2591 71.7054C104.737 71.7054 112.124 65.8671 113.758 58.6652C115.393 51.4633 110.657 45.625 103.18 45.625C95.7022 45.625 88.3152 51.4633 86.6803 58.6652Z" fill="url(#paint2_linear_20383_72559)"/>
<path d="M86.6803 58.6652C85.0453 65.8671 89.7817 71.7054 97.2591 71.7054C104.737 71.7054 112.124 65.8671 113.758 58.6652C115.393 51.4633 110.657 45.625 103.18 45.625C95.7022 45.625 88.3152 51.4633 86.6803 58.6652Z" fill="black" fill-opacity="0.35"/>
</g>
<g clip-path="url(#clip2_20383_72559)">
<mask id="mask4_20383_72559" style="mask-type:alpha" maskUnits="userSpaceOnUse" x="85" y="44" width="28" height="27">
<path d="M85.4127 57.3996C83.7778 64.6014 88.5141 70.4397 95.9915 70.4397C103.469 70.4397 110.856 64.6014 112.491 57.3996C114.126 50.1977 109.39 44.3594 101.912 44.3594C94.4346 44.3594 87.0476 50.1977 85.4127 57.3996Z" fill="white"/>
</mask>
<g mask="url(#mask4_20383_72559)">
<path d="M85.4127 57.3996C83.7778 64.6014 88.5141 70.4397 95.9915 70.4397C103.469 70.4397 110.856 64.6014 112.491 57.3996C114.126 50.1977 109.39 44.3594 101.912 44.3594C94.4346 44.3594 87.0476 50.1977 85.4127 57.3996Z" fill="white"/>
<path d="M109.271 67.7549C93.6599 68.1939 87.7554 57.445 86.7547 52.0156L80.75 62.2645L93.8848 77.8208L109.271 67.7549Z" fill="black" fill-opacity="0.03"/>
</g>
<path d="M85.9141 57.3996C84.3418 64.3257 88.8961 69.9507 96.1025 69.9507C103.309 69.9507 110.417 64.3257 111.989 57.3996C113.562 50.4734 109.007 44.8484 101.801 44.8484C94.5947 44.8484 87.4864 50.4734 85.9141 57.3996Z" stroke="#FD9B4C" stroke-width="1.0029"/>
<path fill-rule="evenodd" clip-rule="evenodd" d="M103.303 49.7012C103.858 49.88 104.021 50.4974 103.667 51.0802L103.025 52.1359L104.7 52.6757C105.255 52.8545 105.418 53.4719 105.063 54.0547C104.709 54.6375 103.972 54.9651 103.417 54.7863L99.3969 53.4914C99.2642 53.4486 99.1565 53.414 99.0625 53.3856C99.0016 53.4829 98.9328 53.5959 98.848 53.7353L97.9924 55.1423C97.9076 55.2817 97.8389 55.3948 97.781 55.493C97.8731 55.5245 97.9807 55.5592 98.1134 55.602L100.793 56.4653L100.839 56.4801C101.114 56.5685 101.412 56.6642 101.641 56.7804C101.91 56.9165 102.22 57.1442 102.334 57.5778C102.448 58.0113 102.31 58.4383 102.162 58.7596C102.036 59.0339 101.846 59.346 101.67 59.6345L101.641 59.683L100.785 61.0901L100.756 61.1385C100.58 61.4272 100.39 61.7393 100.197 61.9919C99.9694 62.2878 99.628 62.6493 99.1103 62.8793C98.5926 63.1093 98.1523 63.095 97.8332 63.0419C97.5608 62.9965 97.2637 62.9006 96.9889 62.812L96.9427 62.7971L96.6082 62.6893L95.9676 63.7427C95.6132 64.3255 94.8759 64.653 94.3209 64.4742C93.7659 64.2954 93.6033 63.678 93.9577 63.0952L94.5983 62.0419L92.923 61.5022C92.368 61.3234 92.2054 60.706 92.5598 60.1232C92.9142 59.5403 93.6515 59.2128 94.2065 59.3916L96.8249 60.2351C96.8461 60.2403 96.8672 60.2463 96.8879 60.253C96.9087 60.2597 96.929 60.267 96.9486 60.2749L98.2262 60.6865C98.359 60.7293 98.4666 60.7639 98.5607 60.7923C98.6216 60.695 98.6904 60.582 98.7751 60.4426L99.6308 59.0356C99.7156 58.8961 99.7843 58.7831 99.8422 58.6849C99.7501 58.6534 99.6425 58.6186 99.5098 58.5759L96.8299 57.7126L96.7838 57.6978C96.5088 57.6093 96.2116 57.5137 95.9823 57.3975C95.7136 57.2613 95.4031 57.0337 95.2889 56.6001C95.1747 56.1666 95.3129 55.7396 95.461 55.4183C95.5875 55.144 95.7774 54.8319 95.953 54.5433L95.9825 54.4949L96.8382 53.0878L96.8676 53.0393L96.8676 53.0393C97.043 52.7507 97.2327 52.4386 97.4266 52.186C97.6538 51.8901 97.9952 51.5286 98.5129 51.2986C99.0306 51.0686 99.4709 51.0828 99.79 51.136C100.062 51.1814 100.36 51.2773 100.634 51.3659L100.68 51.3808L101.015 51.4885L101.657 50.4328C102.011 49.8499 102.748 49.5224 103.303 49.7012Z" fill="#353535"/>
</g>
<defs>
<linearGradient id="paint0_linear_20383_72559" x1="13.0216" y1="167.973" x2="188.332" y2="114.233" gradientUnits="userSpaceOnUse">
<stop stop-color="#92FE9D"/>
<stop offset="1" stop-color="#00C9FF"/>
</linearGradient>
<linearGradient id="paint1_linear_20383_72559" x1="68.0712" y1="168.022" x2="172.897" y2="339.66" gradientUnits="userSpaceOnUse">
<stop/>
<stop offset="1" stop-color="#3D3D3D"/>
</linearGradient>
<linearGradient id="paint2_linear_20383_72559" x1="116.719" y1="45.625" x2="90.3689" y2="40.0844" gradientUnits="userSpaceOnUse">
<stop stop-color="#EE5C3E"/>
<stop offset="0.203125" stop-color="#FD9B4C"/>
<stop offset="0.395833" stop-color="#F6D348"/>
<stop offset="0.604167" stop-color="#ABD139"/>
<stop offset="0.802083" stop-color="#418CA0"/>
<stop offset="1" stop-color="#7A67B1"/>
</linearGradient>
<clipPath id="clip0_20383_72559">
<rect x="68.3398" y="167.973" width="104.59" height="171.593" rx="4.87168" transform="rotate(-98.196 68.3398 167.973)" fill="white"/>
</clipPath>
<clipPath id="clip1_20383_72559">
<rect width="39.5512" height="39.5512" fill="white" transform="matrix(1 0 0.348081 0.937464 35.2246 76.1367)"/>
</clipPath>
<clipPath id="clip2_20383_72559">
<rect width="27.0782" height="27.0782" fill="white" transform="matrix(1 0 -0.221378 0.975188 88.4062 44.2266)"/>
</clipPath>
</defs>
</svg>
